<svg xmlns="http://www.w3.org/2000/svg" width="38" height="38" viewBox="0 0 38 38">
  <g id="developers" transform="translate(-1 -1)">
    <path id="Path_290" data-name="Path 290" d="M34.1,27.971V25.516a3.068,3.068,0,0,0-3.065-3.065H25.873a17.276,17.276,0,0,0,1.366-3.289L29.567,17.3a2.264,2.264,0,0,0-1.341-4.032l1.366-3.755A6.344,6.344,0,0,0,23.631,1h-5.2A20.756,20.756,0,0,0,7.417,4.158a.613.613,0,0,0,.131,1.1l1.478.49a1.574,1.574,0,0,1,.963,2.077,2.8,2.8,0,0,0,.1,2.292l1.58,3.157A2.261,2.261,0,0,0,10.434,17.3l2.329,1.864a17.276,17.276,0,0,0,1.364,3.289H8.968A3.068,3.068,0,0,0,5.9,25.516v2.455A7.979,7.979,0,0,0,1,35.323v3.065A.613.613,0,0,0,1.613,39H38.387A.613.613,0,0,0,39,38.387V35.323a7.979,7.979,0,0,0-4.9-7.351ZM24.9,13.258H21.226a.613.613,0,0,0-.613.613v.613H19.387v-.613a.613.613,0,0,0-.613-.613H13.258v-.9l3.826-2.55a5,5,0,0,1,2.781-.842,6.259,6.259,0,0,0,3.9-1.367l1-.8,1.051,1.578a5.5,5.5,0,0,1,.927,3.06v1.822Zm-.613,1.226v1.839a.613.613,0,0,1-.613.613H22.452a.613.613,0,0,1-.613-.613V14.484Zm-6.129,0v1.839a.613.613,0,0,1-.613.613H16.323a.613.613,0,0,1-.613-.613V14.484Zm11.032,1.042a1.038,1.038,0,0,1-.391.814l-1.111.889a17.248,17.248,0,0,0,.267-2.745h.194A1.042,1.042,0,0,1,29.194,15.526ZM11.127,8.284a2.8,2.8,0,0,0-1.713-3.7l-.188-.061a19.529,19.529,0,0,1,9.2-2.3h5.2A5.118,5.118,0,0,1,28.44,9.09l-.533,1.465a6.721,6.721,0,0,0-1.073-2.861L25.413,5.561a.614.614,0,0,0-.893-.139L23,6.644a5.035,5.035,0,0,1-3.132,1.1A6.222,6.222,0,0,0,16.4,8.79l-4.1,2.732a.608.608,0,0,0-.1.089l-1.02-2.04A1.573,1.573,0,0,1,11.127,8.284Zm.071,8.057a1.042,1.042,0,0,1,.65-1.857h.192a17.248,17.248,0,0,0,.267,2.746Zm2.07-1.857h1.216v1.839a1.839,1.839,0,0,0,1.839,1.839h1.226a1.839,1.839,0,0,0,1.839-1.839V15.71h1.226v.613a1.839,1.839,0,0,0,1.839,1.839h1.226a1.839,1.839,0,0,0,1.839-1.839V14.484h1.216a16.048,16.048,0,0,1-2.274,7.968H15.542A16.048,16.048,0,0,1,13.268,14.484Zm-4.3,9.194H31.032a1.839,1.839,0,0,1,1.839,1.839V37.774H7.129V25.516a1.839,1.839,0,0,1,1.839-1.839ZM2.226,35.323a6.752,6.752,0,0,1,3.677-6v8.454H2.226Zm35.548,2.452H34.1V29.32a6.752,6.752,0,0,1,3.677,6Z" transform="translate(0 0)" fill="#fff"/>
    <path id="Path_291" data-name="Path 291" d="M30.452,54.9A2.452,2.452,0,1,0,28,52.452,2.452,2.452,0,0,0,30.452,54.9Zm0-3.677a1.226,1.226,0,1,1-1.226,1.226A1.226,1.226,0,0,1,30.452,51.226Z" transform="translate(-10.452 -18.968)" fill="#fff"/>
    <path id="Path_292" data-name="Path 292" d="M23.631,45.063,24.5,44.2,22.48,42.178,24.5,40.16l-.867-.867L21.18,41.745a.613.613,0,0,0,0,.867Z" transform="translate(-7.742 -14.823)" fill="#fff"/>
    <path id="Path_293" data-name="Path 293" d="M38.16,45.063l2.452-2.452a.613.613,0,0,0,0-.867L38.16,39.293l-.867.867,2.018,2.018L37.293,44.2Z" transform="translate(-14.049 -14.823)" fill="#fff"/>
    <rect id="Rectangle_28" data-name="Rectangle 28" width="6.129" height="1.226" transform="matrix(0.6, -0.8, 0.8, 0.6, 17.67, 29.438)" fill="#fff"/>
  </g>
</svg>
