<svg xmlns="http://www.w3.org/2000/svg" width="38" height="38.324" viewBox="0 0 38 38.324">
  <g id="expertise" transform="translate(-1.57 -2.115)">
    <path id="Path_312" data-name="Path 312" d="M13.262,40.442a3.526,3.526,0,0,1-3.525-3.52V9.009a.547.547,0,0,1,1.095,0V36.923a2.43,2.43,0,1,0,4.861,0V34.312a.547.547,0,0,1,.547-.547H37.928V5.65A2.433,2.433,0,0,0,35.5,3.22H7.023a.547.547,0,0,1,0-1.095H35.5A3.529,3.529,0,0,1,39.023,5.65V34.312a.547.547,0,0,1-.547.547H16.787v2.064A3.527,3.527,0,0,1,13.262,40.442Z" transform="translate(-2.22 -0.005)" fill="#fff"/>
    <path id="Path_313" data-name="Path 313" d="M43.43,66.6H18.421a.547.547,0,1,1,0-1.095,2.43,2.43,0,0,0,2.43-2.425V60.472a.547.547,0,0,1,.547-.547h25a.547.547,0,0,1,.547.547v2.611A3.523,3.523,0,0,1,43.43,66.6ZM20.975,65.509H43.43a2.427,2.427,0,0,0,2.424-2.425V61.02H21.947v2.064A3.5,3.5,0,0,1,20.975,65.509Z" transform="translate(-7.379 -26.164)" fill="#fff"/>
    <path id="Path_314" data-name="Path 314" d="M30.01,47.732a.547.547,0,0,1-.485-.293l-.8-1.525-1.639.524a.547.547,0,0,1-.671-.737l2.336-5.47a.548.548,0,1,1,1.007.43l-1.866,4.37.937-.3a.547.547,0,0,1,.652.267l.477.909,2-4.708a.547.547,0,1,1,1.007.428L30.513,47.4a.547.547,0,0,1-.481.333Z" transform="translate(-11.225 -17.101)" fill="#fff"/>
    <path id="Path_315" data-name="Path 315" d="M41.815,47.732h-.022a.547.547,0,0,1-.482-.333l-2.447-5.772a.548.548,0,1,1,1.008-.428l2,4.708L42.346,45A.547.547,0,0,1,43,44.731l.936.3-1.864-4.358a.547.547,0,1,1,1.006-.431l2.334,5.46a.547.547,0,0,1-.669.737L43.1,45.914l-.8,1.525a.547.547,0,0,1-.485.293Z" transform="translate(-16.859 -17.1)" fill="#fff"/>
    <path id="Path_316" data-name="Path 316" d="M32.34,31.539a1.335,1.335,0,0,1-.821-.282l-.873-.679a.257.257,0,0,0-.181-.048l-1.095.152a1.331,1.331,0,0,1-1.423-.821l-.414-1.023A.246.246,0,0,0,27.4,28.7l-1.023-.414a1.333,1.333,0,0,1-.821-1.423l.152-1.095a.238.238,0,0,0-.049-.181l-.679-.876a1.334,1.334,0,0,1,0-1.642l.678-.876a.241.241,0,0,0,.049-.182l-.152-1.095a1.333,1.333,0,0,1,.821-1.423l1.024-.415a.239.239,0,0,0,.133-.133l.415-1.024A1.332,1.332,0,0,1,29.37,17.1l1.095.152a.24.24,0,0,0,.182-.049l.873-.679a1.336,1.336,0,0,1,1.642,0l.873.679a.24.24,0,0,0,.182.049l1.095-.152a1.333,1.333,0,0,1,1.423.821l.414,1.024a.243.243,0,0,0,.134.134l1.023.414a1.335,1.335,0,0,1,.821,1.423l-.152,1.095a.245.245,0,0,0,.049.181l.679.876a1.332,1.332,0,0,1,0,1.642l-.679.873a.246.246,0,0,0-.048.181l.152,1.095a1.335,1.335,0,0,1-.821,1.423L37.28,28.7a.245.245,0,0,0-.134.134l-.414,1.023a1.335,1.335,0,0,1-1.423.821l-1.095-.152a.247.247,0,0,0-.182.049l-.873.679a1.333,1.333,0,0,1-.82.286ZM30.5,29.432a1.348,1.348,0,0,1,.821.281l.876.68a.243.243,0,0,0,.3,0l.873-.679a1.344,1.344,0,0,1,1.005-.269l1.095.152a.234.234,0,0,0,.257-.148l.414-1.024a1.343,1.343,0,0,1,.738-.737l1.024-.414a.241.241,0,0,0,.148-.257l-.152-1.095a1.342,1.342,0,0,1,.268-1l.68-.876a.241.241,0,0,0,0-.3l-.679-.876a1.342,1.342,0,0,1-.27-1l.152-1.095a.241.241,0,0,0-.148-.257L36.87,20.1a1.342,1.342,0,0,1-.737-.737l-.415-1.024a.239.239,0,0,0-.257-.149l-1.095.152a1.341,1.341,0,0,1-1-.269l-.876-.679a.241.241,0,0,0-.3,0l-.876.679a1.353,1.353,0,0,1-1,.269l-1.095-.152a.242.242,0,0,0-.257.149l-.415,1.024a1.342,1.342,0,0,1-.737.737l-1.024.414a.243.243,0,0,0-.149.257l.152,1.095a1.341,1.341,0,0,1-.27,1l-.673.874a.241.241,0,0,0,0,.3l.679.876a1.343,1.343,0,0,1,.269,1l-.152,1.095a.241.241,0,0,0,.149.257l1.024.415a1.344,1.344,0,0,1,.737.737l.415,1.024a.243.243,0,0,0,.257.148l1.095-.152A1.353,1.353,0,0,1,30.5,29.432Z" transform="translate(-10.466 -6.394)" fill="#fff"/>
    <path id="Path_317" data-name="Path 317" d="M32.34,31.539a1.335,1.335,0,0,1-.821-.282l-.873-.679a.257.257,0,0,0-.181-.048l-1.095.152a1.331,1.331,0,0,1-1.423-.821l-.414-1.023A.246.246,0,0,0,27.4,28.7l-1.023-.414a1.333,1.333,0,0,1-.821-1.423l.152-1.095a.238.238,0,0,0-.049-.181l-.679-.876a1.334,1.334,0,0,1,0-1.642l.678-.876a.241.241,0,0,0,.049-.182l-.152-1.095a1.333,1.333,0,0,1,.821-1.423l1.024-.415a.239.239,0,0,0,.133-.133l.415-1.024A1.332,1.332,0,0,1,29.37,17.1l1.095.152a.24.24,0,0,0,.182-.049l.873-.679a1.336,1.336,0,0,1,1.642,0l.873.679a.24.24,0,0,0,.182.049l1.095-.152a1.333,1.333,0,0,1,1.423.821l.414,1.024a.243.243,0,0,0,.134.134l1.023.414a1.335,1.335,0,0,1,.821,1.423l-.152,1.095a.245.245,0,0,0,.049.181l.679.876a1.332,1.332,0,0,1,0,1.642l-.679.873a.246.246,0,0,0-.048.181l.152,1.095a1.335,1.335,0,0,1-.821,1.423L37.28,28.7a.245.245,0,0,0-.134.134l-.414,1.023a1.335,1.335,0,0,1-1.423.821l-1.095-.152a.247.247,0,0,0-.182.049l-.873.679a1.333,1.333,0,0,1-.82.286ZM30.5,29.432a1.348,1.348,0,0,1,.821.281l.876.68a.243.243,0,0,0,.3,0l.873-.679a1.344,1.344,0,0,1,1.005-.269l1.095.152a.234.234,0,0,0,.257-.148l.414-1.024a1.343,1.343,0,0,1,.738-.737l1.024-.414a.241.241,0,0,0,.148-.257l-.152-1.095a1.342,1.342,0,0,1,.268-1l.68-.876a.241.241,0,0,0,0-.3l-.679-.876a1.342,1.342,0,0,1-.27-1l.152-1.095a.241.241,0,0,0-.148-.257L36.87,20.1a1.342,1.342,0,0,1-.737-.737l-.415-1.024a.239.239,0,0,0-.257-.149l-1.095.152a1.341,1.341,0,0,1-1-.269l-.876-.679a.241.241,0,0,0-.3,0l-.876.679a1.353,1.353,0,0,1-1,.269l-1.095-.152a.242.242,0,0,0-.257.149l-.415,1.024a1.342,1.342,0,0,1-.737.737l-1.024.414a.243.243,0,0,0-.149.257l.152,1.095a1.341,1.341,0,0,1-.27,1l-.673.874a.241.241,0,0,0,0,.3l.679.876a1.343,1.343,0,0,1,.269,1l-.152,1.095a.241.241,0,0,0,.149.257l1.024.415a1.344,1.344,0,0,1,.737.737l.415,1.024a.243.243,0,0,0,.257.148l1.095-.152A1.353,1.353,0,0,1,30.5,29.432Z" transform="translate(-10.466 -6.394)" fill="#fff"/>
    <path id="Path_318" data-name="Path 318" d="M33.67,30.857a.547.547,0,0,1-.539-.64l.322-1.879-1.365-1.331a.547.547,0,0,1,.3-.931l1.886-.274.844-1.709a.57.57,0,0,1,.981,0l.845,1.706,1.886.274a.547.547,0,0,1,.3.934l-1.369,1.331.322,1.879a.547.547,0,0,1-.794.577l-1.688-.887-1.687.887A.547.547,0,0,1,33.67,30.857Zm1.942-2.116a.547.547,0,0,1,.255.063l.961.505-.183-1.069a.547.547,0,0,1,.157-.484L37.578,27,36.5,26.843a.547.547,0,0,1-.412-.3l-.481-.973-.48.973a.547.547,0,0,1-.412.3L33.646,27l.777.757a.547.547,0,0,1,.157.484l-.183,1.07.96-.505A.555.555,0,0,1,35.611,28.741Z" transform="translate(-13.738 -9.821)" fill="#fff"/>
    <path id="Path_319" data-name="Path 319" d="M8.073,9.552H2.117A.547.547,0,0,1,1.57,9V5.64a3.525,3.525,0,1,1,7.05,0V9a.547.547,0,0,1-.547.547ZM2.665,8.457h4.86V5.64a2.43,2.43,0,1,0-4.861,0Z" transform="translate(0 0)" fill="#fff"/>
  </g>
</svg>
