<svg xmlns="http://www.w3.org/2000/svg" width="800.765" height="590.58" viewBox="0 0 800.765 590.58">
  <g id="_1_2" data-name="1 2" transform="translate(0 -54.95)">
    <path id="Path_5" data-name="Path 5" d="M469.823,398.49H416.78v.4h53.043Z" transform="translate(250.706 206.65)" fill="#ebebeb"/>
    <path id="Path_6" data-name="Path 6" d="M336.447,401.21H322.53v.4h13.917Z" transform="translate(194.012 208.286)" fill="#ebebeb"/>
    <path id="Path_7" data-name="Path 7" d="M427.323,389.21H396.59v.4h30.733Z" transform="translate(238.561 201.068)" fill="#ebebeb"/>
    <path id="Path_8" data-name="Path 8" d="M121.63,390.89H52.46v.4h69.17Z" transform="translate(31.556 202.078)" fill="#ebebeb"/>
    <path id="Path_9" data-name="Path 9" d="M114.7,390.89H104.56v.4H114.7Z" transform="translate(62.896 202.078)" fill="#ebebeb"/>
    <path id="Path_10" data-name="Path 10" d="M281.5,395.11H131.47v.4H281.5Z" transform="translate(79.083 204.616)" fill="#ebebeb"/>
    <path id="Path_11" data-name="Path 11" d="M356.578,507.913H47.355a9.144,9.144,0,0,1-9.145-9.145V64.065A9.145,9.145,0,0,1,47.355,55H356.578a9.144,9.144,0,0,1,9.145,9.145V498.768a9.142,9.142,0,0,1-9.145,9.145ZM47.355,55.32a8.76,8.76,0,0,0-8.744,8.744v434.7a8.76,8.76,0,0,0,8.744,8.744H356.578a8.76,8.76,0,0,0,8.744-8.744V64.065a8.76,8.76,0,0,0-8.744-8.744Z" transform="translate(22.984 0.03)" fill="#ebebeb"/>
    <path id="Path_12" data-name="Path 12" d="M572.9,507.913H263.645a9.159,9.159,0,0,1-9.145-9.145V64.065A9.161,9.161,0,0,1,263.645,55H572.9a9.145,9.145,0,0,1,9.113,9.065v434.7a9.142,9.142,0,0,1-9.113,9.145ZM263.645,55.32a8.76,8.76,0,0,0-8.744,8.744v434.7a8.76,8.76,0,0,0,8.744,8.744H572.9a8.76,8.76,0,0,0,8.744-8.744V64.065A8.76,8.76,0,0,0,572.9,55.32Z" transform="translate(153.09 0.03)" fill="#ebebeb"/>
    <path id="Path_13" data-name="Path 13" d="M800.765,382.4H0v.4H800.765Z" transform="translate(0 196.971)" fill="#ebebeb"/>
    <path id="Path_14" data-name="Path 14" d="M213.636,330.66h5.733v82.479a1.9,1.9,0,0,1-1.906,1.906h-1.938a1.905,1.905,0,0,1-1.906-1.906V330.66Z" transform="translate(128.499 165.848)" fill="#f0f0f0"/>
    <path id="Path_15" data-name="Path 15" d="M343.2,325.98H293.47v7.5H343.2Z" transform="translate(176.531 163.033)" fill="#e6e6e6"/>
    <path id="Path_16" data-name="Path 16" d="M235.826,330.66h5.733v82.479a1.9,1.9,0,0,1-1.906,1.906h-1.938a1.905,1.905,0,0,1-1.906-1.906V330.66Z" transform="translate(141.847 165.848)" fill="#e6e6e6"/>
    <path id="Path_17" data-name="Path 17" d="M318.89,330.66h5.734v82.479a1.9,1.9,0,0,1-1.906,1.906h-2a1.906,1.906,0,0,1-1.906-1.906V330.66Z" transform="translate(191.774 165.848)" fill="#e6e6e6"/>
    <path id="Path_18" data-name="Path 18" d="M356.915,325.98H211.56v7.5H356.915Z" transform="translate(127.26 163.033)" fill="#f5f5f5"/>
    <path id="Path_19" data-name="Path 19" d="M296.676,330.66h5.733v82.479a1.906,1.906,0,0,1-1.906,1.906h-1.938a1.9,1.9,0,0,1-1.906-1.906V330.66Z" transform="translate(178.45 165.848)" fill="#f0f0f0"/>
    <path id="Path_20" data-name="Path 20" d="M322.747,327.945h-13.2v-1.169a4.005,4.005,0,0,1,4.228-4l5.173.272a4.006,4.006,0,0,1,3.8,4Z" transform="translate(186.204 161.099)" fill="#f0f0f0"/>
    <path id="Path_21" data-name="Path 21" d="M302.038,309.7a1.955,1.955,0,0,0-1.954-1.858H286.728a1.94,1.94,0,0,0-1.938,1.858l3.2,27.771h19.875Z" transform="translate(171.31 152.121)" fill="#e0e0e0"/>
    <path id="Path_22" data-name="Path 22" d="M322.124,282.29h-4.965l-5.589,52.466h4.965a1.695,1.695,0,0,0,1.6-1.489l5.269-49.487a1.314,1.314,0,0,0-.745-1.366A1.321,1.321,0,0,0,322.124,282.29Z" transform="translate(187.419 136.752)" fill="#e0e0e0"/>
    <path id="Path_23" data-name="Path 23" d="M341.817,334.756H267.394a1.317,1.317,0,0,1-1.284-.929,1.327,1.327,0,0,1-.045-.561l5.269-49.487a1.7,1.7,0,0,1,1.6-1.489h74.423a1.329,1.329,0,0,1,1.278.932,1.338,1.338,0,0,1,.051.557l-5.269,49.487a1.694,1.694,0,0,1-1.6,1.489Z" transform="translate(160.039 136.752)" fill="#ebebeb"/>
    <path id="Path_24" data-name="Path 24" d="M339.3,329.186h-70.2a1.123,1.123,0,0,1-.48-.093,1.138,1.138,0,0,1-.636-.716,1.116,1.116,0,0,1-.037-.488l4.58-43.161a1.473,1.473,0,0,1,1.441-1.3h70.2a1.145,1.145,0,0,1,.878.381,1.176,1.176,0,0,1,.239.428,1.122,1.122,0,0,1,.037.488l-4.6,43.161a1.454,1.454,0,0,1-1.425,1.3Z" transform="translate(161.176 137.438)" fill="#fafafa"/>
    <path id="Path_25" data-name="Path 25" d="M309.264,325H284.793a1.091,1.091,0,0,0-1.073,1.089h0a1.072,1.072,0,0,0,1.073,1.073h24.471a1.072,1.072,0,0,0,1.073-1.073h0A1.091,1.091,0,0,0,309.264,325Z" transform="translate(170.666 162.443)" fill="#e0e0e0"/>
    <path id="Path_26" data-name="Path 26" d="M310.636,324.05h-41.5v3.091h41.5Z" transform="translate(161.896 161.872)" fill="#ebebeb"/>
    <path id="Path_27" data-name="Path 27" d="M300.325,302.772l-11.438-11.438L277.45,302.772l11.436,11.438Z" transform="translate(166.895 142.192)" fill="#f0f0f0"/>
    <path id="Path_28" data-name="Path 28" d="M291.2,307.572l6.262-6.262,6.262,6.262Z" transform="translate(175.166 148.193)" fill="#ebebeb"/>
    <path id="Path_29" data-name="Path 29" d="M304.635,305.311a7.735,7.735,0,1,0-7.735-7.735A7.735,7.735,0,0,0,304.635,305.311Z" transform="translate(178.594 141.293)" fill="#e6e6e6"/>
    <path id="Path_30" data-name="Path 30" d="M280.122,332.79H219.04v81.278h61.082Z" transform="translate(131.759 167.129)" fill="#f5f5f5"/>
    <path id="Path_31" data-name="Path 31" d="M268.839,332.79H257.18v81.278h11.659Z" transform="translate(154.702 167.129)" fill="#e6e6e6"/>
    <path id="Path_32" data-name="Path 32" d="M274.544,336.56H221.71v19.731h52.834Z" transform="translate(133.365 169.397)" fill="#fafafa"/>
    <path id="Path_33" data-name="Path 33" d="M274.544,350.23H221.71v19.731h52.834Z" transform="translate(133.365 177.62)" fill="#fafafa"/>
    <path id="Path_34" data-name="Path 34" d="M274.544,363.9H221.71v19.747h52.834Z" transform="translate(133.365 185.843)" fill="#fafafa"/>
    <path id="Path_35" data-name="Path 35" d="M241.237,343.62a2.21,2.21,0,1,1-3.831-1.683,2.246,2.246,0,0,1,.74-.529,2.211,2.211,0,0,1,3.091,2.212Z" transform="translate(142.458 172.202)" fill="#ebebeb"/>
    <path id="Path_36" data-name="Path 36" d="M241.24,357.214a2.193,2.193,0,1,1-.642-1.552,2.216,2.216,0,0,1,.642,1.552Z" transform="translate(142.454 180.501)" fill="#ebebeb"/>
    <path id="Path_37" data-name="Path 37" d="M241.24,370.884a2.193,2.193,0,1,1-.642-1.552A2.216,2.216,0,0,1,241.24,370.884Z" transform="translate(142.454 188.724)" fill="#ebebeb"/>
    <path id="Path_38" data-name="Path 38" d="M209.664,320.96H109.28v95.451H209.664Z" transform="translate(65.735 160.013)" fill="#f0f0f0"/>
    <path id="Path_39" data-name="Path 39" d="M185.653,320.96H171.96v95.451h13.693Z" transform="translate(103.439 160.013)" fill="#e6e6e6"/>
    <path id="Path_40" data-name="Path 40" d="M203.115,325.39H112.42v23.174h90.695Z" transform="translate(67.624 162.678)" fill="#fafafa"/>
    <path id="Path_41" data-name="Path 41" d="M203.115,341.44H112.42v23.174h90.695Z" transform="translate(67.624 172.332)" fill="#fafafa"/>
    <path id="Path_42" data-name="Path 42" d="M203.115,357.5H112.42v23.174h90.695Z" transform="translate(67.624 181.993)" fill="#fafafa"/>
    <path id="Path_43" data-name="Path 43" d="M203.115,385.333H113.173l-.753-4.773h90.695Z" transform="translate(67.624 195.864)" fill="#e6e6e6"/>
    <path id="Path_44" data-name="Path 44" d="M181.878,385.333H169.05V380.56h13.581Z" transform="translate(101.689 195.864)" fill="#e0e0e0"/>
    <path id="Path_45" data-name="Path 45" d="M135.57,325.39l.272,3.091a1.968,1.968,0,0,0,1.97,1.794h11.707a1.984,1.984,0,0,0,1.97-1.794l.256-3.091Z" transform="translate(81.55 162.678)" fill="#ebebeb"/>
    <path id="Path_46" data-name="Path 46" d="M135.57,341.44l.272,3.091a1.968,1.968,0,0,0,2.018,1.81h11.707a1.982,1.982,0,0,0,1.97-1.81l.256-3.091Z" transform="translate(81.55 172.332)" fill="#ebebeb"/>
    <path id="Path_47" data-name="Path 47" d="M135.57,357.5l.272,3.091a1.971,1.971,0,0,0,1.97,1.794h11.707a1.984,1.984,0,0,0,1.97-1.794l.256-3.091Z" transform="translate(81.55 181.993)" fill="#ebebeb"/>
    <path id="Path_48" data-name="Path 48" d="M391.385,319.09,377.179,314.7a.929.929,0,0,1,.336-1.81l16.352.865c-3.86-6.71-6.15-10.906-8.744-16.159a.913.913,0,0,1,1.505-1.025c3.491,3.924,6.406,7.111,11.1,12.14,1.121-6.5,2.418-12.492,4.036-18.514a.929.929,0,0,1,1.81.32,130.937,130.937,0,0,0-.48,14.574l.448.144q5.91-6.71,12.364-12.908a.918.918,0,1,1,1.345,1.249A171.988,171.988,0,0,0,405.7,310.154q8.425-3.2,16.928-6.166a.928.928,0,0,1,1.187,1.16.922.922,0,0,1-.418.522c-5.894,3.331-11.691,6.742-17.5,10.266l14.958,4.8a.929.929,0,0,1-.336,1.81l-15.375-.929c3.043,3.555,5.157,5.99,7.607,8.76a.93.93,0,0,1-.027,1.19.929.929,0,0,1-1.174.187l-9.753-6.534c.4,3.2.753,5.605,1.169,8.008a.929.929,0,0,1-1.778.5c-1.025-2.627-1.954-5.237-3.2-8.712-4.468,21.38-3.3,42.088,1.009,63.34l-5.349-.977a166.229,166.229,0,0,1,2.514-62.7c-2.691,2.771-4.66,4.8-6.534,6.967a.916.916,0,1,1-1.473-1.089c1.249-2.1,2.626-4.228,4.452-6.983l-11.659,2.595a.929.929,0,0,1-.609-1.73C383.682,322.742,386.885,321.252,391.385,319.09Z" transform="translate(226.501 141.127)" fill="#ebebeb"/>
    <path id="Path_49" data-name="Path 49" d="M392.9,321.638l10.906-5.8a1.233,1.233,0,0,0-.881-2.29l-13.453,3.3c2.194-6.31,3.571-10.57,4.933-15.247a1.249,1.249,0,0,0-2.258-.977c-2.21,3.668-4.308,7.063-7.415,11.979-1.89-5.029-3.812-9.689-5.942-14.286a1.233,1.233,0,0,0-2.306.833c.929,3.635,1.7,7.3,2.29,10.906l-.4.224c-3.523-2.739-7.143-5.381-10.842-7.9a1.233,1.233,0,0,0-1.521,1.922q5.845,5.333,11.211,11.211c-4.8-.833-9.609-1.6-14.334-2.37a1.233,1.233,0,0,0-1.283,1.811,1.225,1.225,0,0,0,.69.575q7.928,2.739,15.823,5.7l-11.6,6.262a1.239,1.239,0,0,0-.594.658,1.233,1.233,0,0,0,1.475,1.632l12.492-3.2c-1.81,3.2-3.2,5.557-4.612,8.008a1.233,1.233,0,0,0,1.938,1.505l6.646-6.55c.128,1.89.208,3.507.272,5.029a1.233,1.233,0,0,0,2.45.16c.3-1.826.609-3.78.945-6.1,8.376,20.163,11.1,40.743,10.826,62.46l5.077-1.938a166.185,166.185,0,0,0-14.173-61.13c1.922,1.345,3.539,2.5,5.013,3.587a1.233,1.233,0,0,0,1.6-1.842c-.993-1.057-2.1-2.194-3.363-3.507l9.321.288a1.233,1.233,0,0,0,1.126-1.93,1.238,1.238,0,0,0-.758-.5C399.436,323.336,396.633,322.6,392.9,321.638Z" transform="translate(217.425 145.978)" fill="#f0f0f0"/>
    <path id="Path_50" data-name="Path 50" d="M396.353,326.539l-8.184-4.308a.868.868,0,0,1-.394-1.065.866.866,0,0,1,1-.537l10.01,2.45c-1.6-4.692-2.643-7.815-3.635-11.307a.872.872,0,0,1,1.6-.689c1.6,2.739,3.2,5.237,5.509,8.9,1.409-3.764,2.851-7.239,4.452-10.666a.874.874,0,0,1,.46-.34.877.877,0,0,1,1.014.375.874.874,0,0,1,.128.557c-.721,2.755-1.313,5.541-1.746,8.264l.256.16q4.019-3.2,8.232-6.006a.881.881,0,0,1,1.073,1.377,117.272,117.272,0,0,0-8.376,8.392q5.364-.93,10.73-1.762a.866.866,0,0,1,.416,1.682c-3.94,1.361-7.864,2.771-11.8,4.244l8.632,4.676a.887.887,0,0,1,.349.468.88.88,0,0,1-.974,1.134l-9.3-2.354c1.361,2.386,2.386,4.164,3.459,5.974a.884.884,0,0,1-.232,1.105.88.88,0,0,1-1.129-.032c-1.521-1.473-3.011-2.947-5-4.917-.1,1.473-.16,2.739-.208,3.924a.867.867,0,1,1-1.73.112c-.24-1.409-.464-2.9-.721-4.692-6.118,14.686-8.1,29.692-7.9,45.5l-3.7-1.425a121.156,121.156,0,0,1,10.33-44.571c-1.505,1.057-2.755,1.954-3.892,2.8a.881.881,0,0,1-1.153-1.313c.785-.833,1.6-1.73,2.643-2.755l-7.015.208a.88.88,0,0,1-.724-1.337.884.884,0,0,1,.468-.376C391.452,327.821,393.55,327.26,396.353,326.539Z" transform="translate(233.225 152.784)" fill="#f5f5f5"/>
    <path id="Path_51" data-name="Path 51" d="M407.323,404.233h-27.69a3.649,3.649,0,0,1-3.652-3.427L373,353.032a3.685,3.685,0,0,1,3.668-3.892h33.552a3.681,3.681,0,0,1,3.667,3.892l-2.931,47.774a3.683,3.683,0,0,1-3.636,3.427Z" transform="translate(224.369 176.964)" fill="#ebebeb"/>
    <path id="Path_52" data-name="Path 52" d="M414.92,346.34H374.385a3.636,3.636,0,0,0-3.635,3.635v.064a3.635,3.635,0,0,0,3.635,3.635H414.92a3.635,3.635,0,0,0,3.635-3.635v-.064A3.636,3.636,0,0,0,414.92,346.34Z" transform="translate(223.017 175.28)" fill="#f5f5f5"/>
    <path id="Path_53" data-name="Path 53" d="M255.132,54.95H252.97V99.825h2.162Z" transform="translate(152.169)" fill="#e6e6e6"/>
    <path id="Path_54" data-name="Path 54" d="M210.88,120.759l68.5-41.4,68.481,41.4Z" transform="translate(126.851 14.683)" fill="#f0f0f0"/>
    <path id="Path_55" data-name="Path 55" d="M258.375,120.759l-4.725-41.4,30.781,41.4Z" transform="translate(152.578 14.683)" fill="#fafafa"/>
    <path id="Path_56" data-name="Path 56" d="M150.462,54.95H148.3V99.825h2.162Z" transform="translate(89.207)" fill="#e6e6e6"/>
    <path id="Path_57" data-name="Path 57" d="M106.21,120.759l68.481-41.4,68.481,41.4Z" transform="translate(63.889 14.683)" fill="#f0f0f0"/>
    <path id="Path_58" data-name="Path 58" d="M153.695,120.759l-4.725-41.4,30.781,41.4Z" transform="translate(89.61 14.683)" fill="#fafafa"/>
    <path id="Path_59" data-name="Path 59" d="M359.812,54.95H357.65V99.825h2.162Z" transform="translate(215.137)" fill="#e6e6e6"/>
    <path id="Path_60" data-name="Path 60" d="M315.56,120.759l68.481-41.4,68.481,41.4Z" transform="translate(189.819 14.683)" fill="#f0f0f0"/>
    <path id="Path_61" data-name="Path 61" d="M363.045,120.759l-4.725-41.4,30.781,41.4Z" transform="translate(215.54 14.683)" fill="#fafafa"/>
    <path id="Path_62" data-name="Path 62" d="M361.811,437.329c171.5,0,310.521-8.117,310.521-18.129S533.307,401.07,361.811,401.07,51.29,409.187,51.29,419.2,190.316,437.329,361.811,437.329Z" transform="translate(30.853 208.202)" fill="#f5f5f5"/>
    <path id="Path_63" data-name="Path 63" d="M569,158.17l-352.032.08-2.659,2.4-1.393,44.619-.609,6.855-1.489,16.24L209.7,241.321l-.641,7.271H119.1l-2.675,2.4L104.015,421.366a7.254,7.254,0,0,0,7.335,8.008H193.7l.657-7.607h-.432l1.6-18.418,1.121-12.972.9-10.17,1.137-12.972.913-10.378,1.105-12.812.448-5.109h90.39l-1.6,17.873v.208l-5.653,64.7-.24,2.723v.913l-.352,3.972,87.716,2.434,2.659-2.066,2.21-26.313,1.137-12.972,2.931-33.52,1.121-12.812.448-5.109h90.454l2.466-28.2.9-10.346,1.121-12.812,1.137-12.972,2.274-26.057h82.783l4.949,2.4,2.659-2.4,6.919-81.069A9,9,0,0,0,569,158.17Z" transform="translate(62.544 62.09)" fill="#0a0f1b"/>
    <path id="Path_64" data-name="Path 64" d="M329.61,363.738h82.3a8.955,8.955,0,0,0,8.744-8.008l6.983-84.16-91.015-.32-2.739,2.13Z" transform="translate(198.27 130.111)" fill="#0a0f1b"/>
    <path id="Path_65" data-name="Path 65" d="M564.543,245.467l6.822-78.027H212.751l-6.823,78.027h-85.7L104.76,422.259h85.714l7.559-86.419h90.374l-7.559,86.419h90.39l7.559-86.419h90.39l-7.559,86.419h87.444l7.559-86.419H469.188l7.912-90.374Z" transform="translate(63.016 67.666)" fill="#0a0f1b"/>
    <path id="Path_66" data-name="Path 66" d="M564.543,245.467l6.822-78.027H212.751l-6.823,78.027h-85.7L104.76,422.259h85.714l7.559-86.419h90.374l-7.559,86.419h90.39l7.559-86.419h90.39l-7.559,86.419h87.444l7.559-86.419H469.188l7.912-90.374Z" transform="translate(63.016 67.666)" fill="#fff" opacity="0.8"/>
    <path id="Path_67" data-name="Path 67" d="M313.7,230.892H131.8a2.947,2.947,0,0,1-2.979-3.2l.577-6.406a3.635,3.635,0,0,1,3.539-3.2H314.89a2.931,2.931,0,0,1,2.963,3.2l-.561,6.406a3.636,3.636,0,0,1-3.587,3.2Z" transform="translate(77.485 98.127)" fill="#0a0f1b"/>
    <path id="Path_68" data-name="Path 68" d="M313.7,230.892H131.8a2.947,2.947,0,0,1-2.979-3.2l.577-6.406a3.635,3.635,0,0,1,3.539-3.2H314.89a2.931,2.931,0,0,1,2.963,3.2l-.561,6.406a3.636,3.636,0,0,1-3.587,3.2Z" transform="translate(77.485 98.127)" fill="#fff" opacity="0.5"/>
    <path id="Path_69" data-name="Path 69" d="M340.667,230.892H252.984a2.928,2.928,0,0,1-2.979-3.2l.561-6.406a3.633,3.633,0,0,1,3.555-3.2H341.8a2.932,2.932,0,0,1,2.979,3.2l-.561,6.406a3.636,3.636,0,0,1-3.555,3.2Z" transform="translate(150.378 98.127)" fill="#0a0f1b"/>
    <path id="Path_70" data-name="Path 70" d="M340.667,230.892H252.984a2.928,2.928,0,0,1-2.979-3.2l.561-6.406a3.633,3.633,0,0,1,3.555-3.2H341.8a2.932,2.932,0,0,1,2.979,3.2l-.561,6.406a3.636,3.636,0,0,1-3.555,3.2Z" transform="translate(150.378 98.127)" fill="#fff" opacity="0.5"/>
    <path id="Path_71" data-name="Path 71" d="M312.445,245.343h-181.9a2.932,2.932,0,0,1-2.979-3.2l.561-6.406a3.635,3.635,0,0,1,3.539-3.2h181.9a2.932,2.932,0,0,1,2.979,3.2l-.561,6.406a3.638,3.638,0,0,1-3.539,3.2Z" transform="translate(76.726 106.819)" fill="#0a0f1b"/>
    <path id="Path_72" data-name="Path 72" d="M312.445,245.343h-181.9a2.932,2.932,0,0,1-2.979-3.2l.561-6.406a3.635,3.635,0,0,1,3.539-3.2h181.9a2.932,2.932,0,0,1,2.979,3.2l-.561,6.406a3.638,3.638,0,0,1-3.539,3.2Z" transform="translate(76.726 106.819)" fill="#fff" opacity="0.5"/>
    <path id="Path_73" data-name="Path 73" d="M272.952,274.242H128.014a2.927,2.927,0,0,1-2.835-1.986,2.907,2.907,0,0,1-.144-1.217l.561-6.406a3.633,3.633,0,0,1,3.555-3.2H274.073a2.932,2.932,0,0,1,2.979,3.2l-.561,6.406a3.635,3.635,0,0,1-3.539,3.2Z" transform="translate(75.205 124.204)" fill="#0a0f1b"/>
    <path id="Path_74" data-name="Path 74" d="M177.963,203.53h-8.536l-1.137,12.956h8.472a3.638,3.638,0,0,0,3.539-3.2l.561-6.406a2.937,2.937,0,0,0-.09-1.243,2.9,2.9,0,0,0-.6-1.092,2.932,2.932,0,0,0-2.213-1.012Z" transform="translate(101.232 89.375)" fill="#0a0f1b"/>
    <path id="Path_75" data-name="Path 75" d="M274.09,189.08H170.727l-1.137,12.956H272.953a3.635,3.635,0,0,0,3.539-3.2l.561-6.406a2.931,2.931,0,0,0-2.963-3.347Z" transform="translate(102.014 80.683)" fill="#0a0f1b"/>
    <path id="Path_76" data-name="Path 76" d="M274.09,189.08H170.727l-1.137,12.956H272.953a3.635,3.635,0,0,0,3.539-3.2l.561-6.406a2.931,2.931,0,0,0-2.963-3.347Z" transform="translate(102.014 80.683)" fill="#fff" opacity="0.5"/>
    <path id="Path_77" data-name="Path 77" d="M459.84,246.88H130.4a3.635,3.635,0,0,0-3.539,3.2l-.561,6.406a2.933,2.933,0,0,0,2.963,3.2H458.7Z" transform="translate(75.968 115.452)" fill="#0a0f1b"/>
    <path id="Path_78" data-name="Path 78" d="M459.84,246.88H130.4a3.635,3.635,0,0,0-3.539,3.2l-.561,6.406a2.933,2.933,0,0,0,2.963,3.2H458.7Z" transform="translate(75.968 115.452)" fill="#fff" opacity="0.5"/>
    <path id="Path_79" data-name="Path 79" d="M388.206,232.43H252.845a3.635,3.635,0,0,0-3.539,3.2l-.561,6.406a2.933,2.933,0,0,0,2.963,3.2H387.069Z" transform="translate(149.62 106.76)" fill="#0a0f1b"/>
    <path id="Path_80" data-name="Path 80" d="M260.634,275.78H219.571l-1.121,12.972H259.5a3.638,3.638,0,0,0,3.539-3.2l.561-6.406a2.929,2.929,0,0,0-2.963-3.363Z" transform="translate(131.404 132.836)" fill="#0a0f1b"/>
    <path id="Path_81" data-name="Path 81" d="M186.154,275.78h-58.28a3.634,3.634,0,0,0-3.539,3.2l-.561,6.406a2.933,2.933,0,0,0,2.963,3.2H185Z" transform="translate(74.447 132.836)" fill="#0a0f1b"/>
    <g id="Group_64" data-name="Group 64" transform="translate(198.209 408.615)" opacity="0.5">
      <path id="Path_82" data-name="Path 82" d="M260.634,275.78H219.571l-1.121,12.972H259.5a3.638,3.638,0,0,0,3.539-3.2l.561-6.406a2.929,2.929,0,0,0-2.963-3.363Z" transform="translate(-66.804 -275.78)" fill="#fff"/>
      <path id="Path_83" data-name="Path 83" d="M186.154,275.78h-58.28a3.634,3.634,0,0,0-3.539,3.2l-.561,6.406a2.933,2.933,0,0,0,2.963,3.2H185Z" transform="translate(-123.762 -275.779)" fill="#fff"/>
    </g>
    <path id="Path_84" data-name="Path 84" d="M184.884,290.23H126.62a3.6,3.6,0,0,0-3.539,3.2l-.577,6.406a2.948,2.948,0,0,0,2.979,3.2h58.264Z" transform="translate(73.683 141.528)" fill="#0a0f1b"/>
    <path id="Path_85" data-name="Path 85" d="M184.884,290.23H126.62a3.6,3.6,0,0,0-3.539,3.2l-.577,6.406a2.948,2.948,0,0,0,2.979,3.2h58.264Z" transform="translate(73.683 141.528)" fill="#fff" opacity="0.5"/>
    <path id="Path_86" data-name="Path 86" d="M183.624,304.68h-58.28a3.635,3.635,0,0,0-3.539,3.2l-.561,6.406a2.933,2.933,0,0,0,2.963,3.2h58.28Z" transform="translate(72.925 150.22)" fill="#0a0f1b"/>
    <path id="Path_87" data-name="Path 87" d="M230.013,304.68H217.057l-1.137,12.972h12.94a3.6,3.6,0,0,0,3.539-3.2l.577-6.406a2.932,2.932,0,0,0-2.963-3.363Z" transform="translate(129.882 150.22)" fill="#0a0f1b"/>
    <g id="Group_65" data-name="Group 65" transform="translate(194.157 454.899)" opacity="0.5">
      <path id="Path_88" data-name="Path 88" d="M183.624,304.68h-58.28a3.638,3.638,0,0,0-3.539,3.2l-.561,6.406a2.929,2.929,0,0,0,2.963,3.2h58.28Z" transform="translate(-121.232 -304.679)" fill="#fff"/>
      <path id="Path_89" data-name="Path 89" d="M230.013,304.68H217.057l-1.137,12.972h12.94a3.6,3.6,0,0,0,3.539-3.2l.577-6.406a2.932,2.932,0,0,0-2.963-3.363Z" transform="translate(-64.274 -304.68)" fill="#fff"/>
    </g>
    <path id="Path_90" data-name="Path 90" d="M534.451,167.748a7.239,7.239,0,0,0-7.335-8.008H173.61l-1.97,22.6H520.245a4.807,4.807,0,0,1,4.8,5.317l-5.477,62.46h7.607Z" transform="translate(103.247 63.034)" fill="#0a0f1b"/>
    <path id="Path_91" data-name="Path 91" d="M534.451,167.748a7.239,7.239,0,0,0-7.335-8.008H173.61l-1.97,22.6H520.245a4.807,4.807,0,0,1,4.8,5.317l-5.477,62.46h7.607Z" transform="translate(103.247 63.034)" fill="#fff" opacity="0.3"/>
    <path id="Path_92" data-name="Path 92" d="M418.065,272.59l-6.774,77.53a5.928,5.928,0,0,1-5.8,5.317h-77.45l-.673,7.607h82.351a8.955,8.955,0,0,0,8.744-8.008l7.207-82.351Z" transform="translate(196.923 130.917)" fill="#0a0f1b"/>
    <path id="Path_93" data-name="Path 93" d="M418.065,272.59l-6.774,77.53a5.928,5.928,0,0,1-5.8,5.317h-77.45l-.673,7.607h82.351a8.955,8.955,0,0,0,8.744-8.008l7.207-82.351Z" transform="translate(196.923 130.917)" fill="#fff" opacity="0.3"/>
    <path id="Path_94" data-name="Path 94" d="M125.071,216.16l-14.686,167.9a4.8,4.8,0,0,0,2.84,4.909,4.772,4.772,0,0,0,1.965.408h77.45l-.673,7.607H109.7a7.253,7.253,0,0,1-7.351-8.008l15.086-172.725Z" transform="translate(61.54 96.973)" fill="#0a0f1b"/>
    <path id="Path_95" data-name="Path 95" d="M125.071,216.16l-14.686,167.9a4.8,4.8,0,0,0,2.84,4.909,4.772,4.772,0,0,0,1.965.408h77.45l-.673,7.607H109.7a7.253,7.253,0,0,1-7.351-8.008l15.086-172.725Z" transform="translate(61.54 96.973)" fill="#fff" opacity="0.3"/>
    <path id="Path_96" data-name="Path 96" d="M305.547,324.28h-90.39l-.657,7.607h90.374Z" transform="translate(129.028 162.01)" fill="#0a0f1b"/>
    <path id="Path_97" data-name="Path 97" d="M305.547,324.28h-90.39l-.657,7.607h90.374Z" transform="translate(129.028 162.01)" fill="#fff" opacity="0.3"/>
    <path id="Path_98" data-name="Path 98" d="M299.111,304.68H233.865a3.635,3.635,0,0,0-3.539,3.2l-.561,6.406a2.933,2.933,0,0,0,2.963,3.2H297.99Z" transform="translate(138.203 150.22)" fill="#0a0f1b"/>
    <path id="Path_99" data-name="Path 99" d="M335.917,304.68h-5.99l-1.137,12.972h5.99a3.634,3.634,0,0,0,3.539-3.2l.561-6.406a2.932,2.932,0,0,0-2.963-3.363Z" transform="translate(197.777 150.22)" fill="#0a0f1b"/>
    <path id="Path_100" data-name="Path 100" d="M291.1,275.78H253.925a3.634,3.634,0,0,0-3.539,3.2l-.56,6.406a2.934,2.934,0,0,0,2.979,3.2h37.156Z" transform="translate(150.27 132.836)" fill="#0a0f1b"/>
    <path id="Path_101" data-name="Path 101" d="M415.5,198.824a.785.785,0,0,1-.3-.085.761.761,0,0,1-.243-.2.775.775,0,0,1-.149-.274.786.786,0,0,1-.029-.311l2.931-33.632a8.17,8.17,0,0,0-8.264-9.065H382.221a.8.8,0,0,1-.8-.8.815.815,0,0,1,.8-.8h27.226a9.754,9.754,0,0,1,9.865,10.794l-2.947,33.632a.8.8,0,0,1-.279.548.815.815,0,0,1-.274.154A.794.794,0,0,1,415.5,198.824Z" transform="translate(229.436 59.376)" fill="#0a0f1b"/>
    <path id="Path_102" data-name="Path 102" d="M380.971,155.282H374.1a.8.8,0,0,1-.8-.8.815.815,0,0,1,.8-.8h6.871a.8.8,0,0,1,.8.8.808.808,0,0,1-.061.306.815.815,0,0,1-.434.434A.808.808,0,0,1,380.971,155.282Z" transform="translate(224.551 59.389)" fill="#0a0f1b"/>
    <path id="Path_103" data-name="Path 103" d="M276.033,338.9H265.751a.815.815,0,0,1-.8-.8.8.8,0,0,1,.8-.8h10.282a.793.793,0,0,1,.565.234.8.8,0,0,1,.235.567.815.815,0,0,1-.8.8Z" transform="translate(159.375 169.842)" fill="#0a0f1b"/>
    <path id="Path_104" data-name="Path 104" d="M288.211,338.9H214.3a.815.815,0,0,1-.8-.8.8.8,0,0,1,.8-.8h73.879a.8.8,0,0,1,.032,1.6Z" transform="translate(128.427 169.842)" fill="#0a0f1b"/>
    <path id="Path_105" data-name="Path 105" d="M232.619,172.044a3.705,3.705,0,0,1-1.457-1.521,4.1,4.1,0,0,1-.384-2.178,4.4,4.4,0,0,1,.769-2.178,4.611,4.611,0,0,1,1.714-1.521,4.9,4.9,0,0,1,2.322-.544,4.289,4.289,0,0,1,2.194.544,3.609,3.609,0,0,1,1.457,1.521,3.931,3.931,0,0,1,.368,2.178,4.5,4.5,0,0,1-.753,2.178,4.625,4.625,0,0,1-1.714,1.521,4.91,4.91,0,0,1-2.306.545A4.367,4.367,0,0,1,232.619,172.044Zm3.988-.929a3.452,3.452,0,0,0,1.81-2.771,2.892,2.892,0,0,0-.272-1.6,2.683,2.683,0,0,0-1.057-1.137,2.936,2.936,0,0,0-1.6-.416,3.448,3.448,0,0,0-1.7.416,3.594,3.594,0,0,0-1.265,1.137,3.378,3.378,0,0,0-.561,1.6,3.07,3.07,0,0,0,.288,1.6,2.6,2.6,0,0,0,1.057,1.137,3.021,3.021,0,0,0,1.6.416,3.381,3.381,0,0,0,1.7-.384Z" transform="translate(138.808 65.657)" fill="#fff"/>
    <path id="Path_106" data-name="Path 106" d="M242.637,165.829a2.579,2.579,0,0,1,1.025,1.121,3.2,3.2,0,0,1,.272,1.6,3.746,3.746,0,0,1-.561,1.682,3.364,3.364,0,0,1-1.233,1.137,3.668,3.668,0,0,1-1.6.4,2.669,2.669,0,0,1-1.217-.272,2.052,2.052,0,0,1-.9-.753l-.288,3.2H237l.753-8.584h1.089l-.08.993a2.6,2.6,0,0,1,1.025-.785,2.949,2.949,0,0,1,1.313-.272,3.08,3.08,0,0,1,1.537.529Zm-1.073,4.8a2.178,2.178,0,0,0,.833-.785,2.736,2.736,0,0,0,.384-1.153,2.445,2.445,0,0,0-.176-1.153,1.827,1.827,0,0,0-.689-.785,2.3,2.3,0,0,0-2.995.785,2.735,2.735,0,0,0-.384,1.153,2.261,2.261,0,0,0,.176,1.153,1.606,1.606,0,0,0,.689.785,1.936,1.936,0,0,0,1.057.288,2.188,2.188,0,0,0,1.105-.352Z" transform="translate(142.563 66.378)" fill="#fff"/>
    <path id="Path_107" data-name="Path 107" d="M248.169,168.926H243.06a1.766,1.766,0,0,0,.609,1.329,2.221,2.221,0,0,0,1.505.513,2.57,2.57,0,0,0,1.89-.769l.561.737a2.894,2.894,0,0,1-1.137.753,3.748,3.748,0,0,1-1.425.272,3.56,3.56,0,0,1-1.746-.416,2.665,2.665,0,0,1-1.089-1.137,3.2,3.2,0,0,1-.272-1.6,3.665,3.665,0,0,1,.545-1.6,3.394,3.394,0,0,1,1.233-1.153,3.445,3.445,0,0,1,1.6-.4,2.971,2.971,0,0,1,1.6.4,2.5,2.5,0,0,1,.993,1.153,3.4,3.4,0,0,1,.256,1.682C248.2,168.67,248.185,168.782,248.169,168.926Zm-4.276-2.13a2.235,2.235,0,0,0-.769,1.313h4.036a1.841,1.841,0,0,0-.529-1.313,1.8,1.8,0,0,0-1.393-.464A2.116,2.116,0,0,0,243.892,166.8Z" transform="translate(145.536 66.468)" fill="#fff"/>
    <path id="Path_108" data-name="Path 108" d="M252.43,166.063a2.531,2.531,0,0,1,.529,2.034l-.32,3.619H251.5l.3-3.491a1.69,1.69,0,0,0-.32-1.361,1.467,1.467,0,0,0-1.217-.464,2.16,2.16,0,0,0-1.505.529,2.361,2.361,0,0,0-.673,1.6l-.272,3.2H246.68l.545-6.278h1.089v.945a2.583,2.583,0,0,1,.993-.753,3.451,3.451,0,0,1,1.361-.256,2.392,2.392,0,0,1,1.762.673Z" transform="translate(148.386 66.432)" fill="#fff"/>
    <path id="Path_109" data-name="Path 109" d="M254.7,172.3a3.359,3.359,0,0,1-1.3-.753l.512-.929a3.381,3.381,0,0,0,1.153.7,4.307,4.307,0,0,0,1.505.256,2.82,2.82,0,0,0,1.6-.352,1.167,1.167,0,0,0,.593-.929.842.842,0,0,0-.026-.368.853.853,0,0,0-.183-.32,1.827,1.827,0,0,0-.657-.416c-.272-.1-.641-.192-1.137-.32a9.256,9.256,0,0,1-1.473-.448,2.167,2.167,0,0,1-.913-.689,1.692,1.692,0,0,1-.3-1.265,2.284,2.284,0,0,1,.448-1.2,2.824,2.824,0,0,1,1.137-.849,4.371,4.371,0,0,1,1.81-.32,5.355,5.355,0,0,1,1.425.192,3.178,3.178,0,0,1,1.169.544l-.464.945a4.378,4.378,0,0,0-1.073-.512,4.074,4.074,0,0,0-1.153-.16,2.591,2.591,0,0,0-1.6.368,1.211,1.211,0,0,0-.593.945.8.8,0,0,0,.224.689,1.78,1.78,0,0,0,.673.416,11.462,11.462,0,0,0,1.105.32,10.284,10.284,0,0,1,1.473.448,2.155,2.155,0,0,1,.913.689,1.6,1.6,0,0,1,.3,1.249,2.181,2.181,0,0,1-.464,1.185,2.5,2.5,0,0,1-1.153.865,4.7,4.7,0,0,1-1.794.3A5.532,5.532,0,0,1,254.7,172.3Z" transform="translate(152.428 65.656)" fill="#fff"/>
    <path id="Path_110" data-name="Path 110" d="M259.506,171.35a2.638,2.638,0,0,1-1.057-1.153,2.954,2.954,0,0,1-.272-1.6,3.378,3.378,0,0,1,.56-1.6A3.2,3.2,0,0,1,260,165.841a3.647,3.647,0,0,1,1.73-.4,3.2,3.2,0,0,1,1.6.4,2.578,2.578,0,0,1,1.073,1.153,3.2,3.2,0,0,1,.272,1.6,3.47,3.47,0,0,1-.577,1.6,3.312,3.312,0,0,1-1.249,1.153,3.754,3.754,0,0,1-1.73.416,3.214,3.214,0,0,1-1.618-.416Zm2.851-.865a2.3,2.3,0,0,0,.833-.785,2.522,2.522,0,0,0,.368-1.153,2.258,2.258,0,0,0-.176-1.153,1.726,1.726,0,0,0-.689-.785,2.073,2.073,0,0,0-1.057-.272,2.355,2.355,0,0,0-1.105.272,2.412,2.412,0,0,0-.833.785,2.735,2.735,0,0,0-.384,1.153,2.431,2.431,0,0,0,.176,1.153,1.779,1.779,0,0,0,.7.785,1.936,1.936,0,0,0,1.057.288,2.2,2.2,0,0,0,1.041-.288Z" transform="translate(155.29 66.463)" fill="#fff"/>
    <path id="Path_111" data-name="Path 111" d="M269.349,165.426l-.561,6.278h-1.041l.08-.945a2.547,2.547,0,0,1-.977.753,2.955,2.955,0,0,1-1.249.272,2.546,2.546,0,0,1-1.922-.7,2.472,2.472,0,0,1-.544-2.034l.32-3.619h1.089l-.3,3.475a1.858,1.858,0,0,0,.32,1.393,1.6,1.6,0,0,0,1.217.464,2.042,2.042,0,0,0,1.473-.545,2.436,2.436,0,0,0,.657-1.6l.272-3.2Z" transform="translate(158.26 66.445)" fill="#fff"/>
    <path id="Path_112" data-name="Path 112" d="M270.562,165.669A3.308,3.308,0,0,1,272,165.38l-.1,1.105h-.272a2.069,2.069,0,0,0-1.489.561,2.336,2.336,0,0,0-.673,1.6l-.272,3.2H268l.545-6.278h1.089l-.08,1.057a2.189,2.189,0,0,1,1.009-.961Z" transform="translate(161.21 66.426)" fill="#fff"/>
    <path id="Path_113" data-name="Path 113" d="M272.168,171.368a2.605,2.605,0,0,1-1.089-1.153,2.952,2.952,0,0,1-.272-1.6,3.426,3.426,0,0,1,1.842-2.8,3.793,3.793,0,0,1,1.762-.4,3.206,3.206,0,0,1,1.489.336,2.147,2.147,0,0,1,.945,1.009l-.913.545a1.932,1.932,0,0,0-.673-.673,2.087,2.087,0,0,0-.961-.224,2.415,2.415,0,0,0-1.121.272,2.349,2.349,0,0,0-.849.785,2.735,2.735,0,0,0-.384,1.153,2.292,2.292,0,0,0,.192,1.169,1.593,1.593,0,0,0,.689.769,2.082,2.082,0,0,0,1.089.288,2.254,2.254,0,0,0,1.794-.913l.817.545a2.956,2.956,0,0,1-1.121,1.009,3.618,3.618,0,0,1-1.6.352,3.371,3.371,0,0,1-1.634-.464Z" transform="translate(162.888 66.445)" fill="#fff"/>
    <path id="Path_114" data-name="Path 114" d="M281.19,168.944h-5.109a1.766,1.766,0,0,0,.609,1.329,2.221,2.221,0,0,0,1.505.513,2.553,2.553,0,0,0,1.89-.769l.561.737a2.894,2.894,0,0,1-1.137.753,3.8,3.8,0,0,1-1.441.272,3.538,3.538,0,0,1-1.73-.416,2.665,2.665,0,0,1-1.089-1.137,3.046,3.046,0,0,1-.272-1.6,3.664,3.664,0,0,1,.544-1.6,3.337,3.337,0,0,1,2.883-1.6,3,3,0,0,1,1.6.4,2.593,2.593,0,0,1,.993,1.153,3.382,3.382,0,0,1,.256,1.682A.682.682,0,0,0,281.19,168.944Zm-4.276-2.13a2.243,2.243,0,0,0-.769,1.313h4.036a1.826,1.826,0,0,0-.133-.709,1.855,1.855,0,0,0-.4-.6,1.786,1.786,0,0,0-1.329-.5,2.118,2.118,0,0,0-1.409.5Z" transform="translate(165.397 66.45)" fill="#fff"/>
    <path id="Path_115" data-name="Path 115" d="M174.531,155.042H184.8a.8.8,0,1,0,0-1.6H174.531a.8.8,0,0,0,0,1.6Z" transform="translate(104.504 59.245)" fill="#0a0f1b"/>
    <path id="Path_116" data-name="Path 116" d="M186.241,155.042h73.879a.8.8,0,0,0,0-1.6H186.241a.8.8,0,0,0,0,1.6Z" transform="translate(111.548 59.245)" fill="#0a0f1b"/>
    <path id="Path_117" data-name="Path 117" d="M397.61,207.68l28.924,330.684H431.1l-1.217-13.917h63.757l1.217,13.917h4.564L470.48,207.68h-4.564l1.217,13.9H403.392l-1.217-13.9Zm6.182,18.466h63.741l3.956,45.163H407.732Zm4.34,49.647h63.773l3.94,45.147H412.1Zm4.356,49.647h63.741l3.956,45.147H416.444Zm4.356,49.647h63.741l3.956,45.163H420.784Zm4.34,49.728h63.757l3.94,45.147H425.14Zm72.069,94.859H429.48l-3.94-45.147h63.741Z" transform="translate(239.175 91.872)" fill="#263238"/>
    <path id="Path_118" data-name="Path 118" d="M397.61,207.68l28.924,330.684H431.1l-1.217-13.917h63.757l1.217,13.917h4.564L470.48,207.68h-4.564l1.217,13.9H403.392l-1.217-13.9Zm6.182,18.466h63.741l3.956,45.163H407.732Zm4.34,49.647h63.773l3.94,45.147H412.1Zm4.356,49.647h63.741l3.956,45.147H416.444Zm4.356,49.647h63.741l3.956,45.163H420.784Zm4.34,49.728h63.757l3.94,45.147H425.14Zm72.069,94.859H429.48l-3.94-45.147h63.741Z" transform="translate(239.175 91.872)" fill="#fff" opacity="0.3"/>
    <path id="Path_119" data-name="Path 119" d="M435.215,220.5l-8.12,7.655-15.583-3.6v-3.075a1.3,1.3,0,0,0-1.842-1.169s-.753.528-1.041.48c-1.3-.176-3.988-3.4-3.988-3.4a1.341,1.341,0,0,0-1.313-.224l-1.105.432a1.282,1.282,0,0,0-.8,1.489l1.762,7.8a1.3,1.3,0,0,0,1.041.993l4.917.865s14.045,8.648,19.138,7.463,12.684-8.312,12.684-8.312Z" transform="translate(241.448 97.532)" fill="#7f3e3b"/>
    <path id="Path_120" data-name="Path 120" d="M351.133,210.15l-3.539,2.146-5.573,88.485,87.139,2.739,3.171-1.906,8.728-90.727Z" transform="translate(205.735 93.357)" fill="#e9204f"/>
    <path id="Path_121" data-name="Path 121" d="M436.164,212.307l-87.379-.817-8.744,90.39,87.379.8Z" transform="translate(204.544 94.163)" fill="#e9204f"/>
    <path id="Path_122" data-name="Path 122" d="M436.164,212.307l-87.379-.817-8.744,90.39,87.379.8Z" transform="translate(204.544 94.163)" fill="#fff" opacity="0.8"/>
    <path id="Path_123" data-name="Path 123" d="M390.92,228.162l-46.444-.432L343.21,240.7l46.444.432a3.635,3.635,0,0,0,3.571-3.2l.625-6.406a2.944,2.944,0,0,0-2.931-3.363Z" transform="translate(206.451 103.932)" fill="#e9204f"/>
    <path id="Path_124" data-name="Path 124" d="M344.873,242.22H343l-1.249,12.972h1.858a3.618,3.618,0,0,0,3.571-3.2l.625-6.406a2.93,2.93,0,0,0-2.931-3.363Z" transform="translate(205.573 112.648)" fill="#e9204f"/>
    <path id="Path_125" data-name="Path 125" d="M344.873,242.22H343l-1.249,12.972h1.858a3.618,3.618,0,0,0,3.571-3.2l.625-6.406a2.93,2.93,0,0,0-2.931-3.363Z" transform="translate(205.573 112.648)" fill="#fff" opacity="0.5"/>
    <path id="Path_126" data-name="Path 126" d="M391.69,302.344l7.591.08,8.744-90.39-7.591-.064Z" transform="translate(235.613 94.452)" fill="#e9204f"/>
    <path id="Path_127" data-name="Path 127" d="M391.69,302.344l7.591.08,8.744-90.39-7.591-.064Z" transform="translate(235.613 94.452)" fill="#fff" opacity="0.3"/>
    <path id="Path_128" data-name="Path 128" d="M416.722,197.72s-5.878.464-5.862,4.532c0,2.578,2.034-1.682,4.917-2.995S416.722,197.72,416.722,197.72Z" transform="translate(247.145 85.88)" fill="#263238"/>
    <path id="Path_129" data-name="Path 129" d="M428.6,285.674s2.883,9.769,4.2,12.892c6.839,16.464,20.676,40.295,29.42,64.99l7.031-2.723a315.539,315.539,0,0,0-10.554-37.059c-3.507-10.026-9.609-20.2-13.293-31.182a102.66,102.66,0,0,1-2-12.812Z" transform="translate(257.816 135.242)" fill="#7f3e3b"/>
    <path id="Path_130" data-name="Path 130" d="M440.521,244.7s7.751,7.783,9.113,17.777-1.6,26.762,3.043,44.843l-17.953,4.917s-14.542-50.8-15.9-63.084Z" transform="translate(251.933 114.14)" fill="#263238"/>
    <path id="Path_131" data-name="Path 131" d="M425.1,283.21l4.644-16.127,5.605-9.033a92.232,92.232,0,0,1-1.6,27.1c-1.521,6.742-2.787,12.284-3.668,16.175C429.088,297.672,427.2,290.961,425.1,283.21Z" transform="translate(255.711 122.171)" opacity="0.4"/>
    <path id="Path_132" data-name="Path 132" d="M419.24,337.3a3.421,3.421,0,0,1-2.322-.673.722.722,0,0,1,0-.817.958.958,0,0,1,.609-.416c1.329-.336,4.068,1.313,4.18,1.393a.162.162,0,0,1,.085.078.155.155,0,0,1,.011.114.187.187,0,0,1-.16.144,13.566,13.566,0,0,1-2.4.176Zm-1.217-1.6a1.42,1.42,0,0,0-.368,0,.463.463,0,0,0-.368.24c-.16.24-.112.352,0,.416.352.529,2.354.593,3.828.448a8.677,8.677,0,0,0-3.091-1.089Z" transform="translate(250.713 168.67)" fill="#e9204f"/>
    <path id="Path_133" data-name="Path 133" d="M420.836,337.821h-.08c-.929-.448-2.8-2.226-2.61-3.107,0-.224.192-.48.721-.512a1.4,1.4,0,0,1,.546.066,1.38,1.38,0,0,1,.479.271,5.509,5.509,0,0,1,1.169,3.107.179.179,0,0,1-.1.176A.177.177,0,0,1,420.836,337.821Zm-1.858-3.2h-.112c-.336,0-.368.144-.384.192,0,.545,1.169,1.922,2.13,2.53a4.356,4.356,0,0,0-.993-2.466.942.942,0,0,0-.641-.256Z" transform="translate(251.519 167.976)" fill="#e9204f"/>
    <path id="Path_134" data-name="Path 134" d="M424.915,335.786l8.68.224a.688.688,0,0,1,.657.561l1.393,7.079a1.156,1.156,0,0,1-.16.878,1.149,1.149,0,0,1-.737.5h-.24c-3.2-.128-5.91-.368-9.8-.448-4.58-.112-3.443.465-8.841.4-3.2,0-3.747-3.748-2.37-3.892,6.326-.641,7.031-2.53,9.529-4.8A2.732,2.732,0,0,1,424.915,335.786Z" transform="translate(248.304 168.922)" fill="#263238"/>
    <path id="Path_135" data-name="Path 135" d="M448.64,333.8a3.429,3.429,0,0,1-2.4.192.724.724,0,0,1-.251-.352.713.713,0,0,1,0-.432.918.918,0,0,1,.416-.608c1.137-.785,4.26-.192,4.4-.16a.165.165,0,0,1,.094.05.175.175,0,0,1,.05.094.2.2,0,0,1-.01.115.212.212,0,0,1-.07.093,14.723,14.723,0,0,1-2.226,1.009Zm-1.7-1.057-.336.16a.6.6,0,0,0-.256.368c0,.272,0,.368.1.4.529.368,2.418-.272,3.748-.929A8.537,8.537,0,0,0,446.943,332.746Z" transform="translate(268.253 166.773)" fill="#e9204f"/>
    <path id="Path_136" data-name="Path 136" d="M450.359,333.629h-.08c-1.041-.08-3.4-1.089-3.539-1.986a.673.673,0,0,1,.5-.721,1.36,1.36,0,0,1,1.089,0c1.233.448,2.13,2.418,2.178,2.5a.2.2,0,0,1,0,.192.158.158,0,0,1-.071.027.148.148,0,0,1-.074-.011Zm-2.9-2.4h-.1c-.3.128-.288.272-.288.32.128.529,1.762,1.393,2.883,1.6a4.422,4.422,0,0,0-1.794-1.954.973.973,0,0,0-.7,0Z" transform="translate(268.728 165.938)" fill="#e9204f"/>
    <path id="Path_137" data-name="Path 137" d="M452.737,332.818l8.184-2.835a.742.742,0,0,1,.464.006.731.731,0,0,1,.368.282l3.78,6.166a1.164,1.164,0,0,1,.163.424,1.117,1.117,0,0,1-.013.455,1.141,1.141,0,0,1-.519.722l-.208.1c-2.979.977-5.653,1.73-9.337,3.011-4.34,1.505-3.059,1.6-8.136,3.475-3.059,1.105-4.8-2.194-3.587-2.819,5.7-2.819,5.7-4.8,7.255-7.767A2.939,2.939,0,0,1,452.737,332.818Z" transform="translate(266.782 165.42)" fill="#263238"/>
    <path id="Path_138" data-name="Path 138" d="M415.645,283.6s-.272,10.17,0,13.549c1.425,17.777,7.223,44.7,7.912,70.9H431a317.571,317.571,0,0,0,1.265-43.706c-.368-9.177-2.8-18.85-2.851-28.555a102.434,102.434,0,0,1,2.034-12.812Z" transform="translate(249.951 137.167)" fill="#7f3e3b"/>
    <path id="Path_139" data-name="Path 139" d="M436.344,245.86a41.272,41.272,0,0,1,4.052,34.881c-7,20.9-5.237,31.166-5.237,31.166H415.668s0-27.338-.833-36.4c-.609-6.406-2.21-13.389-1.7-25.624Z" transform="translate(248.455 114.838)" fill="#263238"/>
    <path id="Path_140" data-name="Path 140" d="M434.674,284.67l.593,4.644H414.19V284.67Z" transform="translate(249.148 138.183)" fill="#263238"/>
    <path id="Path_141" data-name="Path 141" d="M434.674,284.67l.593,4.644H414.19V284.67Z" transform="translate(249.148 138.183)" fill="#fff" opacity="0.4"/>
    <path id="Path_142" data-name="Path 142" d="M447.323,281.18l-19.6,5.83,1.409,4.4,19.507-5.669Z" transform="translate(257.287 136.084)" fill="#263238"/>
    <path id="Path_143" data-name="Path 143" d="M447.323,281.18l-19.6,5.83,1.409,4.4,19.507-5.669Z" transform="translate(257.287 136.084)" fill="#fff" opacity="0.4"/>
    <path id="Path_144" data-name="Path 144" d="M427.863,219.456s-4.388-.464-4.308-8.52c0,0-4.052-1.842-6.678.529s2.37,8.008-.9,10.3C416.012,221.73,418.847,223.652,427.863,219.456Z" transform="translate(250.225 93.42)" fill="#7f3e3b"/>
    <path id="Path_145" data-name="Path 145" d="M411.9,203.955c0-.545-.368-.961-.721-.945s-.593.5-.561,1.025.352.961.7.945S411.934,204.484,411.9,203.955Z" transform="translate(246.999 89.062)" fill="#263238"/>
    <path id="Path_146" data-name="Path 146" d="M412.261,204.21l-2.851,3.764a3.544,3.544,0,0,0,3.2.561Z" transform="translate(246.273 89.784)" fill="#a02724"/>
    <path id="Path_147" data-name="Path 147" d="M430.423,206.786c-.336,6.823-.32,9.721-3.716,13.277-5.221,3.635-13.453,3.443-15.167-3.347-1.6-6.118-.753-16.24,5.894-19.074a9.338,9.338,0,0,1,12.988,9.145Z" transform="translate(247.136 85.382)" fill="#7f3e3b"/>
    <path id="Path_148" data-name="Path 148" d="M413.138,203.089a.375.375,0,0,1-.288,0,2.553,2.553,0,0,0-2.21-.625.314.314,0,0,1-.234-.029.32.32,0,0,1-.151-.179.315.315,0,0,1,.022-.243.322.322,0,0,1,.186-.157,3.211,3.211,0,0,1,2.8.753.3.3,0,0,1,0,.432h0a.222.222,0,0,1-.128.048Z" transform="translate(246.772 88.327)" fill="#263238"/>
    <path id="Path_149" data-name="Path 149" d="M411.619,203.078l-1.489-.208S411.011,203.927,411.619,203.078Z" transform="translate(246.706 88.978)" fill="#263238"/>
    <path id="Path_150" data-name="Path 150" d="M420.344,212.37a9.058,9.058,0,0,1-3.652,3.347,25.4,25.4,0,0,1-.593-2.627,12.283,12.283,0,0,0,4.244-.721Z" transform="translate(250.297 94.693)" opacity="0.2"/>
    <path id="Path_151" data-name="Path 151" d="M432.087,218.371s0-5.413-6.406-4.4-11.067,4.068-11.211,7.223Z" transform="translate(249.316 95.578)" fill="#e9204f"/>
    <path id="Path_152" data-name="Path 152" d="M432.087,218.371s0-5.413-6.406-4.4-11.067,4.068-11.211,7.223Z" transform="translate(249.316 95.578)" opacity="0.1"/>
    <path id="Path_153" data-name="Path 153" d="M427.87,216.3s8.472.256,8.472,7.031a11.2,11.2,0,0,1-4.8,9.609Z" transform="translate(257.377 97.057)" fill="#e9204f"/>
    <path id="Path_154" data-name="Path 154" d="M427.87,216.3s8.472.256,8.472,7.031a11.2,11.2,0,0,1-4.8,9.609Z" transform="translate(257.377 97.057)" opacity="0.1"/>
    <path id="Path_155" data-name="Path 155" d="M448.5,262.664a55.394,55.394,0,0,1-5.077-18.289c-.849-9.994,5.253-27.771-5.589-28.107s-16.768,1.185-23.206,3.716-5.077,19.987-4.068,26.6,4.068,23.366,4.068,23.366S433.1,272.321,448.5,262.664Z" transform="translate(246.45 97.009)" fill="#e9204f"/>
    <path id="Path_156" data-name="Path 156" d="M410.046,237.22a69.188,69.188,0,0,1-.16-11.707l7.351-.913a44.09,44.09,0,0,1-7.191,12.62Z" transform="translate(246.454 102.05)" opacity="0.1"/>
    <path id="Path_157" data-name="Path 157" d="M419.567,225.13l-8.2,7.7-15.583-3.587V225.93a1.135,1.135,0,0,0-.517-.956,1.145,1.145,0,0,0-1.084-.085,6.325,6.325,0,0,1-1.393.224c-1.329-.176-3.908-3.091-3.908-3.091a1.123,1.123,0,0,0-1.153-.192l-3.3,3.075a1.332,1.332,0,0,0-.641,1.409l3.539,5.093a2.017,2.017,0,0,0,1.3,1.089l4.8.929s14.061,8.648,19.138,7.463,12.7-8.3,12.7-8.3Z" transform="translate(230.846 100.335)" fill="#7f3e3b"/>
    <path id="Path_158" data-name="Path 158" d="M417.442,218.57s-5.077,1.473-12.412,7.912c0,0,.272,5.077,6.726,10.666,0,0,6.935-4.34,9.081-10.778S417.442,218.57,417.442,218.57Z" transform="translate(243.638 98.422)" fill="#e9204f"/>
    <path id="Path_159" data-name="Path 159" d="M415.819,197.328s-4.8,2.21-3.539,5.669,2,6.406,1.057,7.543,2.29,1.409,2.13-2.418c0,0,.416,4.8,2.867,5.4s4.132,7.751,2.082,11.211-2.53,11.371-.5,13.149,5.91,3.539,5.445,6.678,4.66,1.025,3.651-2.787c0,0,2.787,4.308,6.182.416s-2.034-7.447-2.034-7.447,4.116,1.265,4.212,3.475,1.457,3.3,3.059.849a5.588,5.588,0,0,0-1.009-6.951s2.723-.448,3.059,1.457,3.459-1.281.753-3.78-7.447-3.78-7.367-13.421-1.778-17.873-9.145-19.571S415.819,197.328,415.819,197.328Z" transform="translate(247.871 84.943)" fill="#263238"/>
    <path id="Path_160" data-name="Path 160" d="M416.14,204.791a5.208,5.208,0,0,0-1.73,3.635c0,1.858,1.7,2.37,3.2,1.505s3.075-2.659,2.418-4.356a2.356,2.356,0,0,0-3.892-.785Z" transform="translate(249.28 89.7)" fill="#7f3e3b"/>
    <path id="Path_161" data-name="Path 161" d="M379.876,277.564l-90.951-.384-2.675,2.114-.641,51.345-1.2,12.972-1.714,18.418-.336,3.652-.368,3.956,86.242.464,3.956-4Z" transform="translate(169.626 133.678)" fill="#e9204f"/>
    <path id="Path_162" data-name="Path 162" d="M279.66,364.855l90.342.48,8.024-86.419-90.374-.416Z" transform="translate(168.224 134.472)" fill="#e9204f"/>
    <path id="Path_163" data-name="Path 163" d="M279.66,364.855l90.342.48,8.024-86.419-90.374-.416Z" transform="translate(168.224 134.472)" fill="#fff" opacity="0.8"/>
    <path id="Path_164" data-name="Path 164" d="M327.806,281.874l-42.985-.224-1.2,12.972,42.985.224a3.636,3.636,0,0,0,3.555-3.2l.593-6.406a2.945,2.945,0,0,0-2.947-3.363Z" transform="translate(170.606 136.367)" fill="#e9204f"/>
    <path id="Path_165" data-name="Path 165" d="M280.94,323.522l90.342.48,1.2-12.972-90.342-.48Z" transform="translate(168.994 153.751)" fill="#e9204f"/>
    <path id="Path_166" data-name="Path 166" d="M280.135,330.15l-.7,7.607,90.342.48.7-7.607Z" transform="translate(168.086 165.541)" fill="#e9204f"/>
    <path id="Path_167" data-name="Path 167" d="M280.135,330.15l-.7,7.607,90.342.48.7-7.607Z" transform="translate(168.086 165.541)" fill="#fff" opacity="0.3"/>
    <path id="Path_168" data-name="Path 168" d="M319.76,343.244s1.025,21.092,1.489,28.107c1.3,19.138,6.278,76.473,6.278,76.473h8.52s3.2-26.329,2.322-48.943c-.384-9.337-3.2-17.617-3.828-24.023s2.995-16.576.5-25.849C332.668,340.265,319.76,343.244,319.76,343.244Z" transform="translate(192.345 173.123)" fill="#ffc3bd"/>
    <path id="Path_169" data-name="Path 169" d="M332.41,343.651s1.81,22.149,2.851,29.468c2.691,18.754,14.19,74.423,14.19,74.423l8.52-.384s-.192-28.828-4.052-51.585c-1.3-7.607-3.363-14.174-4.18-19.587-1.025-6.742,1.137-18.129-1.794-27.226C345.19,340.1,332.41,343.651,332.41,343.651Z" transform="translate(199.955 173.228)" fill="#ffc3bd"/>
    <path id="Path_170" data-name="Path 170" d="M350.3,316.09s15.038,13.981,14.51,59.609a73.843,73.843,0,0,1-45.74,2.37s-4.052-33.488,0-58.152Z" transform="translate(190.845 157.084)" fill="#263238"/>
    <path id="Path_171" data-name="Path 171" d="M319.161,276.093c0-.528-.352-.929-.7-.913s-.593.48-.544,1.009.352.929.689.913S319.193,276.622,319.161,276.093Z" transform="translate(191.23 132.475)" fill="#263238"/>
    <path id="Path_172" data-name="Path 172" d="M318.877,275.284l-1.457-.224S318.349,276.069,318.877,275.284Z" transform="translate(190.938 132.403)" fill="#263238"/>
    <path id="Path_173" data-name="Path 173" d="M334.841,290.49s-4.292-.432-4.212-8.328c0,0-3.972-1.81-6.534.513s2.322,7.783-.865,10.074C323.23,292.748,326.065,294.638,334.841,290.49Z" transform="translate(194.433 136.271)" fill="#ffc3bd"/>
    <path id="Path_174" data-name="Path 174" d="M319.707,276.22,316.92,279.9a3.458,3.458,0,0,0,3.075.544Z" transform="translate(190.637 133.101)" fill="#ed893e"/>
    <path id="Path_175" data-name="Path 175" d="M337.347,278.091c-.32,6.678-.3,9.529-3.635,12.988-5.109,3.571-13.165,3.379-14.846-3.2-1.505-5.99-.737-15.887,5.782-18.674a9.145,9.145,0,0,1,12.7,8.953Z" transform="translate(191.414 128.443)" fill="#ffc3bd"/>
    <path id="Path_176" data-name="Path 176" d="M320.5,275.244a.271.271,0,0,1-.288,0,2.471,2.471,0,0,0-2.162-.593.3.3,0,0,1-.226-.029.311.311,0,0,1-.143-.179.337.337,0,0,1,.208-.4,3.21,3.21,0,0,1,2.739.737.306.306,0,0,1,0,.416.211.211,0,0,1-.128.048Z" transform="translate(191.09 131.754)" fill="#263238"/>
    <path id="Path_177" data-name="Path 177" d="M327.488,283.59a8.763,8.763,0,0,1-3.571,3.2c-.208-.865-.464-1.746-.577-2.562A12.539,12.539,0,0,0,327.488,283.59Z" transform="translate(194.499 137.534)" opacity="0.2"/>
    <path id="Path_178" data-name="Path 178" d="M339.893,289.372s-2.482-5.974-10.154-3.507-9.369,6.758-9.369,6.758Z" transform="translate(192.712 138.543)" fill="#e9204f"/>
    <path id="Path_179" data-name="Path 179" d="M339.893,289.372s-2.482-5.974-10.154-3.507-9.369,6.758-9.369,6.758Z" transform="translate(192.712 138.543)" opacity="0.2"/>
    <path id="Path_180" data-name="Path 180" d="M338.406,288.63s9.913,9.161,5.637,18.129-11.483-3.684-11.483-3.684Z" transform="translate(200.045 140.566)" fill="#e9204f"/>
    <path id="Path_181" data-name="Path 181" d="M338.406,288.63s9.913,9.161,5.637,18.129-11.483-3.684-11.483-3.684Z" transform="translate(200.045 140.566)" opacity="0.2"/>
    <path id="Path_182" data-name="Path 182" d="M329.478,407.791l9.609.24a.735.735,0,0,1,.737.609l1.6,7.815a1.282,1.282,0,0,1-.993,1.505h-.272c-3.443-.144-6.5-.416-10.794-.513-5.045-.128-3.78.513-9.737.448-3.571,0-4.132-4.132-2.61-4.292,6.983-.7,7.751-2.787,10.49-5.2a3.087,3.087,0,0,1,1.97-.609Z" transform="translate(190.219 212.243)" fill="#263238"/>
    <path id="Path_183" data-name="Path 183" d="M348.049,407.733h9.609a.754.754,0,0,1,.737.609l1.6,7.783a1.3,1.3,0,0,1-.146,1.009,1.3,1.3,0,0,1-.831.593h-.272c-3.443-.1-6.5-.3-10.778-.336-5.061,0-3.78.577-9.737.609-3.587,0-4.212-4.068-2.691-4.244,6.967-.817,7.7-2.915,10.41-5.381A3,3,0,0,1,348.049,407.733Z" transform="translate(201.372 212.204)" fill="#263238"/>
    <path id="Path_184" data-name="Path 184" d="M354.387,333.958s-13.757,10.106-35.234,4.8c0,0-6.758-31.886-2.226-41.5,4.036-8.584,12.108-9.721,18.53-10.138S351.937,285.9,351.6,298.8,351.168,319.224,354.387,333.958Z" transform="translate(189.701 139.552)" fill="#e9204f"/>
    <path id="Path_185" data-name="Path 185" d="M316.219,313.745a113.887,113.887,0,0,1-.849-12.812l8.008-2.883Z" transform="translate(189.705 146.232)" opacity="0.2"/>
    <path id="Path_186" data-name="Path 186" d="M317.923,306.991l-18.386-3.2-.785-1.6a2.9,2.9,0,0,0-3.2-1.505l-.833.176-2.146-1.6a2.88,2.88,0,0,0-3.523.112h0a2.85,2.85,0,0,0-1.057,2.226v1.874a2.886,2.886,0,0,0,.529,1.6l1.457,2.082a2.888,2.888,0,0,0,2.162,1.233l6.246.4,19.475,4.949Z" transform="translate(173.235 146.628)" fill="#ffc3bd"/>
    <path id="Path_187" data-name="Path 187" d="M333.638,290.862s-5.349-3.539-10.874,1.794-14.91,18.129-14.91,18.129l-3.331-.384-.432,9.5a12.808,12.808,0,0,0,9.609-.544c4.8-2.418,20.275-20.58,20.275-20.58S335.976,293.377,333.638,290.862Z" transform="translate(182.919 141.216)" fill="#e9204f"/>
    <path id="Path_188" data-name="Path 188" d="M307.648,301.72v5.253l-1.473.689,1.473.993v5.733l-4.548-1.009V301.72Z" transform="translate(182.324 148.44)" fill="#e9204f"/>
    <path id="Path_189" data-name="Path 189" d="M307.648,301.72v5.253l-1.473.689,1.473.993v5.733l-4.548-1.009V301.72Z" transform="translate(182.324 148.44)" fill="#fff" opacity="0.5"/>
    <path id="Path_190" data-name="Path 190" d="M335.378,367.519q-1.874.144-3.892.192c-.8-22.1,5.605-30.221,5.605-30.221a101.737,101.737,0,0,0-1.714,30.029Z" transform="translate(199.357 169.956)" opacity="0.3"/>
    <path id="Path_191" data-name="Path 191" d="M329.206,267.571s10.746-3.732,12.684,7.191,11.675,13.709,6.278,21-20.948,1.826-21.22-4.308-.192-16.4-2.466-17.745c0,0,1.361,4.228,0,4.228s-2.29-1.6-2.114-3.748c0,0,0,2.691-3.2,1.73s1.842-4.5,1.842-4.5a11.7,11.7,0,0,0-3.2,1.906c-.881.961-1.121-.48,0-2.29C318.572,269.6,322.447,266.322,329.206,267.571Z" transform="translate(190.715 127.528)" fill="#263238"/>
    <path id="Path_192" data-name="Path 192" d="M323.373,276.168a5.188,5.188,0,0,0-1.682,3.571c-.08,1.81,1.6,2.322,3.2,1.473s2.995-2.61,2.354-4.276a2.322,2.322,0,0,0-3.876-.769Z" transform="translate(193.505 132.624)" fill="#ffc3bd"/>
    <path id="Path_193" data-name="Path 193" d="M161.65,304.235l8.824-1.217.673-2.162a1.73,1.73,0,0,1,2.1-1.137l1.009.272,3.812-2a1.7,1.7,0,0,1,.929-.176h0a1.729,1.729,0,0,1,1.6,1.762l-.1,3.475a1.047,1.047,0,0,1,0,.224l-.4,2.627a1.746,1.746,0,0,1-1.441,1.441l-5.525.865L163,310.369Z" transform="translate(97.237 146.085)" fill="#ffb573"/>
    <path id="Path_194" data-name="Path 194" d="M175.928,301.962a93.5,93.5,0,0,1-13.693,0c-2.418-.192-4.532-1.97-6.406-4.452l-7.639,11.211a17.128,17.128,0,0,0,6.182,4.324c9.609,3.043,23.11-2.466,23.11-2.466a8.618,8.618,0,0,0-1.553-8.616Z" transform="translate(89.141 145.907)" fill="#263238"/>
    <path id="Path_195" data-name="Path 195" d="M175.928,301.962a93.5,93.5,0,0,1-13.693,0c-2.418-.192-4.532-1.97-6.406-4.452l-7.639,11.211a17.128,17.128,0,0,0,6.182,4.324c9.609,3.043,23.11-2.466,23.11-2.466a8.618,8.618,0,0,0-1.553-8.616Z" transform="translate(89.141 145.907)" opacity="0.3"/>
    <path id="Path_196" data-name="Path 196" d="M158.9,277l-8.5,92.488,87.668.352,2.723-2.226,8.568-90.2Z" transform="translate(90.47 133.57)" fill="#e9204f"/>
    <path id="Path_197" data-name="Path 197" d="M148.95,364.729l90.358.336,7.88-86.419-90.358-.336Z" transform="translate(89.598 134.358)" fill="#e9204f"/>
    <path id="Path_198" data-name="Path 198" d="M148.95,364.729l90.358.336,7.88-86.419-90.358-.336Z" transform="translate(89.598 134.358)" fill="#fff" opacity="0.8"/>
    <path id="Path_199" data-name="Path 199" d="M150.21,323.372l90.342.336,1.185-12.972-90.358-.336Z" transform="translate(90.356 153.661)" fill="#e9204f"/>
    <path id="Path_200" data-name="Path 200" d="M150.21,323.372l90.342.336,1.185-12.972-90.358-.336Z" transform="translate(90.356 153.661)" fill="#fff" opacity="0.5"/>
    <path id="Path_201" data-name="Path 201" d="M219.3,296.16,152.705,296l-1.185,12.972,66.592.24a3.619,3.619,0,0,0,3.555-3.2l.593-6.406a2.961,2.961,0,0,0-2.963-3.443Z" transform="translate(91.144 144.999)" fill="#e9204f"/>
    <path id="Path_202" data-name="Path 202" d="M219.3,296.16,152.705,296l-1.185,12.972,66.592.24a3.619,3.619,0,0,0,3.555-3.2l.593-6.406a2.961,2.961,0,0,0-2.963-3.443Z" transform="translate(91.144 144.999)" fill="#fff" opacity="0.5"/>
    <path id="Path_203" data-name="Path 203" d="M152.84,294.472l90.358.336,1.185-12.972-90.358-.336Z" transform="translate(91.938 136.277)" fill="#e9204f"/>
    <path id="Path_204" data-name="Path 204" d="M152.84,294.472l90.358.336,1.185-12.972-90.358-.336Z" transform="translate(91.938 136.277)" fill="#fff" opacity="0.5"/>
    <path id="Path_205" data-name="Path 205" d="M149.425,330l-.7,7.607,90.358.336.689-7.607Z" transform="translate(89.46 165.451)" fill="#e9204f"/>
    <path id="Path_206" data-name="Path 206" d="M149.425,330l-.7,7.607,90.358.336.689-7.607Z" transform="translate(89.46 165.451)" fill="#fff" opacity="0.3"/>
    <path id="Path_207" data-name="Path 207" d="M145.39,287.813s4.8-.5,4.8-9.4c0,0,4.468-2.034,7.351.593s-2.594,8.776.993,11.355C158.491,290.279,155.336,292.393,145.39,287.813Z" transform="translate(87.457 133.967)" fill="#ffb573"/>
    <path id="Path_208" data-name="Path 208" d="M158.612,270.676c0-.593.384-1.057.785-1.025s.657.529.625,1.137-.4,1.041-.785,1.025S158.564,271.268,158.612,270.676Z" transform="translate(95.407 129.148)" fill="#263238"/>
    <path id="Path_209" data-name="Path 209" d="M158.956,271l3.2,4.164a3.93,3.93,0,0,1-3.459.625Z" transform="translate(95.463 129.961)" fill="#ed893e"/>
    <path id="Path_210" data-name="Path 210" d="M145.757,273.809c.368,7.527.352,10.73,4.1,14.654,5.766,4,14.83,3.8,16.736-3.7,1.7-6.742.833-17.905-6.5-21.044a10.313,10.313,0,0,0-14.334,10.09Z" transform="translate(87.666 125.086)" fill="#ffb573"/>
    <path id="Path_211" data-name="Path 211" d="M158,269.732a.367.367,0,0,0,.32,0,2.781,2.781,0,0,1,2.434-.689.358.358,0,0,0,.266-.032.354.354,0,0,0,.167-.208.368.368,0,0,0-.24-.432,3.47,3.47,0,0,0-3.075.817.33.33,0,0,0-.075.111.353.353,0,0,0-.026.13.36.36,0,0,0,.026.13.347.347,0,0,0,.075.111h0a.322.322,0,0,0,.128.064Z" transform="translate(94.902 128.33)" fill="#263238"/>
    <path id="Path_212" data-name="Path 212" d="M150.52,280a10.015,10.015,0,0,0,4.02,3.668c.24-.977.529-1.97.673-2.883A14.1,14.1,0,0,1,150.52,280Z" transform="translate(90.542 135.374)" opacity="0.2"/>
    <path id="Path_213" data-name="Path 213" d="M143.31,286.951s.9-5.669,7.767-5.7c9.705,0,12.556,4.548,12.556,4.548Z" transform="translate(86.205 136.126)" fill="#263238"/>
    <path id="Path_214" data-name="Path 214" d="M143.31,286.951s.9-5.669,7.767-5.7c9.705,0,12.556,4.548,12.556,4.548Z" transform="translate(86.205 136.126)" opacity="0.3"/>
    <path id="Path_215" data-name="Path 215" d="M141.97,403.03l.865,14.35,8.04-.288.464-13.773Z" transform="translate(85.399 209.381)" fill="#ffb573"/>
    <path id="Path_216" data-name="Path 216" d="M148.431,411.917a.214.214,0,0,1-.1-.056.221.221,0,0,1-.056-.1.224.224,0,0,1,.1-.208c.128-.08,3.059-1.762,4.452-1.377a1,1,0,0,1,.625.448.755.755,0,0,1,0,.865,3.585,3.585,0,0,1-2.466.657,15.593,15.593,0,0,1-2.546-.224Zm.641-.272c1.6.192,3.684.16,4.068-.384a.489.489,0,0,0,0-.432.509.509,0,0,0-.4-.272,1.286,1.286,0,0,0-.368,0,9.436,9.436,0,0,0-3.3,1.089Z" transform="translate(89.188 213.642)" fill="#e9204f"/>
    <path id="Path_217" data-name="Path 217" d="M148.346,412.633a.179.179,0,0,1-.1-.176,5.714,5.714,0,0,1,1.3-3.2,1.6,1.6,0,0,1,1.105-.352c.545,0,.721.336.737.56.176.945-1.826,2.771-2.835,3.2h-.08a.143.143,0,0,1-.069,0,.136.136,0,0,1-.059-.034Zm2.162-3.4a1.043,1.043,0,0,0-.673.256,4.628,4.628,0,0,0-1.105,2.578c1.041-.625,2.354-2.05,2.29-2.627,0,0,0-.192-.4-.224Z" transform="translate(89.177 212.91)" fill="#e9204f"/>
    <path id="Path_218" data-name="Path 218" d="M152.165,410.514H143a.719.719,0,0,0-.721.576l-1.6,7.463a1.205,1.205,0,0,0-.016.479,1.2,1.2,0,0,0,.945.979h.256c3.3-.08,6.23-.272,10.346-.288,4.8,0,3.619.576,9.321.625,3.443,0,4.052-3.876,2.594-4.068-6.678-.8-7.383-2.819-9.962-5.189a2.9,2.9,0,0,0-2-.576Z" transform="translate(84.605 213.876)" fill="#263238"/>
    <path id="Path_219" data-name="Path 219" d="M142.418,410.445h8.68l.24-7.127-9.369-.288Z" transform="translate(85.399 209.381)" opacity="0.2"/>
    <path id="Path_220" data-name="Path 220" d="M138.4,324.87s-1.714,12.044,2.53,32.207c1.794,8.52,4.644,25.785,4.564,34.481,0,5.766-1.265,8.376-3.3,22.822s1.009,40.583,1.009,40.583l11.659.128s7.271-48.286,8.632-65.054c.689-8.52,1.009-34.225,1.009-34.225l-4.116-30.942Z" transform="translate(83.045 162.365)" fill="#e9204f"/>
    <path id="Path_221" data-name="Path 221" d="M147.23,337.63s2.611,18.4,11.211,33.472c.336-10.458.48-22.966.48-22.966l-.1-.8-5.958-8.3Z" transform="translate(88.563 170.041)" opacity="0.1"/>
    <path id="Path_222" data-name="Path 222" d="M163.55,403.256l1.457,14.318,8.024-.625-.112-13.789Z" transform="translate(98.38 209.459)" fill="#ffb573"/>
    <path id="Path_223" data-name="Path 223" d="M170.354,411.911a.18.18,0,0,1-.1-.048.193.193,0,0,1-.058-.1.2.2,0,0,1,0-.127.189.189,0,0,1,.078-.1c.128-.08,2.963-1.874,4.388-1.6a1.075,1.075,0,0,1,.641.448.755.755,0,0,1,0,.865,3.571,3.571,0,0,1-2.434.753,15.347,15.347,0,0,1-2.514-.1Zm.625-.288c1.6.112,3.684,0,4.052-.561a.561.561,0,0,0,0-.432.512.512,0,0,0-.167-.179.506.506,0,0,0-.234-.077,1.036,1.036,0,0,0-.384,0,9.292,9.292,0,0,0-3.267,1.281Z" transform="translate(102.371 213.521)" fill="#e9204f"/>
    <path id="Path_224" data-name="Path 224" d="M170.256,412.616a.238.238,0,0,1-.1-.176,5.73,5.73,0,0,1,1.153-3.3,1.475,1.475,0,0,1,.5-.312,1.493,1.493,0,0,1,.586-.088c.561,0,.737.3.769.529.224.929-1.714,2.851-2.691,3.331h-.224Zm2.034-3.491a1.021,1.021,0,0,0-.673.288,4.612,4.612,0,0,0-.993,2.611c1.009-.657,2.258-2.146,2.178-2.707,0,0,0-.192-.4-.208Z" transform="translate(102.356 212.815)" fill="#e9204f"/>
    <path id="Path_225" data-name="Path 225" d="M173.914,410.455l-9.145.432a.724.724,0,0,0-.689.609l-1.313,7.527a1.234,1.234,0,0,0,.993,1.425h.256c3.3-.208,6.214-.529,10.33-.721,4.8-.224,3.635.416,9.337.24,3.443-.128,3.876-4.052,2.418-4.18-6.694-.528-7.479-2.5-10.17-4.8a3.024,3.024,0,0,0-2.018-.528Z" transform="translate(97.898 213.839)" fill="#263238"/>
    <path id="Path_226" data-name="Path 226" d="M172.919,403.16l-9.369.1.721,7.063,8.712-.512Z" transform="translate(98.38 209.459)" opacity="0.2"/>
    <path id="Path_227" data-name="Path 227" d="M146.04,324.87a67.764,67.764,0,0,0,7.639,35.234c9.353,16.992,10.282,21.989,10.954,29.917.641,7.591.689,10.154,1.7,25.865s6.726,39.189,6.726,39.189l12.044-.769s0-49.728-2.034-67.264c-1.794-15.727-11.4-62.171-11.4-62.171Z" transform="translate(87.784 162.365)" fill="#e9204f"/>
    <path id="Path_228" data-name="Path 228" d="M149.913,283.58s-15.247,1.97-17.136,10.73,2.482,25.48,8.568,27.578S149.913,283.58,149.913,283.58Z" transform="translate(79.602 137.528)" fill="#263238"/>
    <path id="Path_229" data-name="Path 229" d="M142.792,289.292l-2.675-1.6s-3.764,4.8-6.118,23.206c1.6,4.276,3.828,7.671,6.406,8.536s4.308-5.253,5.669-12.812Z" transform="translate(80.605 140)" opacity="0.4"/>
    <path id="Path_230" data-name="Path 230" d="M137.432,352.11s15.775,4.372,42.216,0a250.23,250.23,0,0,1,.945-44.314c2.851-21.877-2.466-23.4-17.3-24.151s-25.384-1.6-25.865,11.979C136.279,327,137.432,352.11,137.432,352.11Z" transform="translate(82.362 137.351)" fill="#263238"/>
    <path id="Path_231" data-name="Path 231" d="M159.9,294.616s1.137,12.364,5.974,20.452c.224-2.963.512-5.958.9-8.9a59.587,59.587,0,0,0,.625-12.444L162.206,286Z" transform="translate(96.185 138.984)" opacity="0.4"/>
    <path id="Path_232" data-name="Path 232" d="M183.49,305.115l8.824-1.153L193,301.8a1.73,1.73,0,0,1,2.1-1.153l.993.272,3.812-1.986a1.867,1.867,0,0,1,.929-.192h0a1.729,1.729,0,0,1,1.6,1.762v3.716l-.416,2.626a1.727,1.727,0,0,1-1.441,1.441l-5.509.865L184.931,311.3Z" transform="translate(110.375 146.646)" fill="#ffb573"/>
    <path id="Path_233" data-name="Path 233" d="M159.4,284.09s11.035,0,16.159,7.431c4.292,6.214,8.744,19.411,15.6,19.971a93.5,93.5,0,0,0,13.693,0,8.569,8.569,0,0,1,1.6,8.568s-13.5,5.509-23.11,2.466-25-31.374-25-31.374Z" transform="translate(95.246 137.835)" fill="#263238"/>
    <path id="Path_234" data-name="Path 234" d="M160.785,280.874a18.769,18.769,0,0,0,1.329-8.376s7.095,2.659,8.152-.657a3.2,3.2,0,0,0-2.338-4.2s3.507-.464,1.505-2.851-5.605-1.521-5.605-1.521,3.6-2.274.849-3.6-6.839,2.755-6.839,2.755,2.354-3.812-.384-4.468-6.086,6.406-6.086,6.406-7.239.721-7.415,3.283a2.3,2.3,0,0,0,.593,1.834,2.287,2.287,0,0,0,.807.567,2.318,2.318,0,0,0,.971.178s-4.8.753-3.988,3.2a1.744,1.744,0,0,0,1.129,1.339,1.75,1.75,0,0,0,1.722-.314s-3.027,2.643-1.986,5.061c.753,1.746,2.082.865,2.082.865s-.849,3.443.577,5.093,1.986-1.3,1.986-1.3a7.087,7.087,0,0,0,2.5,5.269s2.274-2.226,6.839-.7Z" transform="translate(85.563 122.088)" fill="#263238"/>
    <path id="Path_235" data-name="Path 235" d="M155.808,271.6a5.775,5.775,0,0,1,1.89,4.02c0,2.05-1.858,2.61-3.539,1.6s-3.4-2.931-2.675-4.8a2.626,2.626,0,0,1,4.324-.817Z" transform="translate(91.02 129.837)" fill="#ffb573"/>
    <path id="Path_236" data-name="Path 236" d="M141.689,205.49l-1.217,13.917H76.731l1.217-13.917H73.384L44.46,536.222h4.564l1.217-13.9h63.741l-1.217,13.9h4.628L146.221,205.49Zm-5.557,63.629H72.391l3.94-45.2h63.757Zm-4.356,49.647H68.035l3.956-45.147h63.741Zm-4.34,49.727H63.678l3.956-45.163h63.741Zm-4.356,49.647H59.338l3.94-45.147H127Zm-4.356,49.647H54.934l4-44.955h63.741Zm-64.061,4.564h63.677l-3.956,45.163H50.642Z" transform="translate(26.744 90.554)" fill="#263238"/>
    <path id="Path_237" data-name="Path 237" d="M141.689,205.49l-1.217,13.917H76.731l1.217-13.917H73.384L44.46,536.222h4.564l1.217-13.9h63.741l-1.217,13.9h4.628L146.221,205.49Zm-5.557,63.629H72.391l3.94-45.2h63.757Zm-4.356,49.647H68.035l3.956-45.147h63.741Zm-4.34,49.727H63.678l3.956-45.163h63.741Zm-4.356,49.647H59.338l3.94-45.147H127Zm-4.356,49.647H54.934l4-44.955h63.741Zm-64.061,4.564h63.677l-3.956,45.163H50.642Z" transform="translate(26.744 90.554)" fill="#fff" opacity="0.3"/>
    <path id="Path_238" data-name="Path 238" d="M78.5,208.226l10.33,6.006,17.921-7.912.208-4.388a2.065,2.065,0,0,1,2.066-1.97h1.826l1.794-1.746a2.082,2.082,0,0,1,2.558-.25,2.055,2.055,0,0,1,.645.65l1.057,1.6a2.021,2.021,0,0,1,.336,1.345l-.561,5.317a2.084,2.084,0,0,1-1.345,1.746l-4.8,1.762s-14.878,10.6-20.323,11.8-16.24-4.484-16.24-4.484Z" transform="translate(44.495 85.832)" fill="#ff8b7b"/>
    <path id="Path_239" data-name="Path 239" d="M197.9,149.71l-82.495.464c-4.436,0-9.081,2.995-9.481,7.431l-5.7,82.495,86.483,3.059,2.931-2.194Z" transform="translate(60.285 57.001)" fill="#e9204f"/>
    <path id="Path_240" data-name="Path 240" d="M186.354,237.369l6.935-78.091-85.618-.128-6.951,78.091Z" transform="translate(60.586 62.679)" fill="#e9204f"/>
    <path id="Path_241" data-name="Path 241" d="M186.354,237.369l6.935-78.091-85.618-.128-6.951,78.091Z" transform="translate(60.586 62.679)" fill="#fff" opacity="0.8"/>
    <path id="Path_242" data-name="Path 242" d="M178.7,195.386l-58.152-.1a3.638,3.638,0,0,0-3.539,3.2l-.577,6.406a2.949,2.949,0,0,0,2.963,3.2h58.216Z" transform="translate(70.032 84.419)" fill="#e9204f"/>
    <path id="Path_243" data-name="Path 243" d="M180.017,180.88H121.8a3.654,3.654,0,0,0-3.555,3.2l-.561,6.406a2.906,2.906,0,0,0,.761,2.268,2.91,2.91,0,0,0,2.2.935l58.216.1Z" transform="translate(70.783 75.751)" fill="#e9204f"/>
    <path id="Path_244" data-name="Path 244" d="M180.017,180.88H121.8a3.654,3.654,0,0,0-3.555,3.2l-.561,6.406a2.906,2.906,0,0,0,.761,2.268,2.91,2.91,0,0,0,2.2.935l58.216.1Z" transform="translate(70.783 75.751)" fill="#fff" opacity="0.5"/>
    <path id="Path_245" data-name="Path 245" d="M110.933,179.367a5.908,5.908,0,0,1,5.8-5.317l77.37.112,2.018-22.614-82.271-.128a8.969,8.969,0,0,0-8.744,8.008l-7.3,82.447h7.607Z" transform="translate(58.83 58.03)" fill="#e9204f"/>
    <path id="Path_246" data-name="Path 246" d="M110.933,179.367a5.908,5.908,0,0,1,5.8-5.317l77.37.112,2.018-22.614-82.271-.128a8.969,8.969,0,0,0-8.744,8.008l-7.3,82.447h7.607Z" transform="translate(58.83 58.03)" fill="#fff" opacity="0.3"/>
    <path id="Path_247" data-name="Path 247" d="M142.811,160.218a5.828,5.828,0,0,1-5.685,5.221,4.71,4.71,0,0,1-4.8-5.237,5.8,5.8,0,0,1,5.685-5.221,4.71,4.71,0,0,1,4.8,5.237Z" transform="translate(79.577 60.17)" fill="#e9204f"/>
    <path id="Path_248" data-name="Path 248" d="M142.811,160.218a5.828,5.828,0,0,1-5.685,5.221,4.71,4.71,0,0,1-4.8-5.237,5.8,5.8,0,0,1,5.685-5.221,4.71,4.71,0,0,1,4.8,5.237Z" transform="translate(79.577 60.17)" fill="#fff" opacity="0.5"/>
    <path id="Path_249" data-name="Path 249" d="M130.7,160.2a5.828,5.828,0,0,1-5.685,5.221,4.71,4.71,0,0,1-4.8-5.237,5.828,5.828,0,0,1,5.685-5.221,4.71,4.71,0,0,1,4.8,5.237Z" transform="translate(72.293 60.158)" fill="#e9204f"/>
    <path id="Path_250" data-name="Path 250" d="M118.581,160.178A5.8,5.8,0,0,1,112.9,165.4a4.71,4.71,0,0,1-4.8-5.237,5.828,5.828,0,0,1,5.685-5.221,4.71,4.71,0,0,1,4.8,5.237Z" transform="translate(65.002 60.146)" fill="#e9204f"/>
    <path id="Path_251" data-name="Path 251" d="M118.581,160.178A5.8,5.8,0,0,1,112.9,165.4a4.71,4.71,0,0,1-4.8-5.237,5.828,5.828,0,0,1,5.685-5.221,4.71,4.71,0,0,1,4.8,5.237Z" transform="translate(65.002 60.146)" opacity="0.2"/>
    <path id="Path_252" data-name="Path 252" d="M115.13,160.9l-1.6-1.6,1.6-1.6a.753.753,0,0,0-1.057-1.057l-1.6,1.6-1.6-1.6a.753.753,0,0,0-1.057,1.057l1.6,1.6c-.561.545-1.121,1.089-1.6,1.6a.77.77,0,0,0-.163.24.747.747,0,0,0-.058.283.72.72,0,0,0,.054.283.736.736,0,0,0,.159.242.763.763,0,0,0,.239.163.753.753,0,0,0,.283.058.723.723,0,0,0,.285-.054.712.712,0,0,0,.242-.159l1.6-1.6,1.6,1.6a.757.757,0,0,0,.82.17.759.759,0,0,0,.245-.162.757.757,0,0,0,.17-.82.76.76,0,0,0-.162-.245Z" transform="translate(65.923 61.073)" fill="#fff"/>
    <path id="Path_253" data-name="Path 253" d="M127.984,157.77H121.8a.739.739,0,0,0-.46.253.748.748,0,0,0,0,.983.739.739,0,0,0,.46.253h6.182a.739.739,0,0,0,.46-.253.748.748,0,0,0,0-.983.739.739,0,0,0-.46-.253Z" transform="translate(72.88 61.849)" fill="#fff"/>
    <path id="Path_254" data-name="Path 254" d="M133.96,161.077h3.171l-3.155-3.187Z" transform="translate(80.581 61.921)" fill="#fff"/>
    <path id="Path_255" data-name="Path 255" d="M135.28,156.59l3.171,3.187.016-3.187Z" transform="translate(81.375 61.139)" fill="#fff"/>
    <path id="Path_256" data-name="Path 256" d="M58.3,323.3,57.08,337.634l8.008.865,2.434-13.565Z" transform="translate(34.335 161.421)" fill="#ff8b7b"/>
    <path id="Path_257" data-name="Path 257" d="M63.048,333.26a.19.19,0,0,1-.128-.176.188.188,0,0,1,.032-.117.193.193,0,0,1,.1-.075c.128,0,3.2-1.313,4.6-.737a1.087,1.087,0,0,1,.561.545.784.784,0,0,1-.112.865,3.54,3.54,0,0,1-2.53.288A15.059,15.059,0,0,1,63.048,333.26Zm.673-.176c1.521.416,3.619.689,4.084.208a.425.425,0,0,0,0-.432.523.523,0,0,0-.127-.21.535.535,0,0,0-.209-.127,1.63,1.63,0,0,0-.368-.1,9.17,9.17,0,0,0-3.459.657Z" transform="translate(37.848 166.659)" fill="#e9204f"/>
    <path id="Path_258" data-name="Path 258" d="M62.9,334.062a.175.175,0,0,1,0-.176,5.7,5.7,0,0,1,1.746-3.043,1.45,1.45,0,0,1,.551-.2,1.478,1.478,0,0,1,.586.026c.545.128.673.416.657.657,0,.961-2.21,2.482-3.2,2.771h-.16a.13.13,0,0,1-.176-.032Zm2.643-3.043a1.1,1.1,0,0,0-.721.144,4.692,4.692,0,0,0-1.457,2.4c1.105-.464,2.627-1.7,2.643-2.258,0,0,0-.208-.352-.288Z" transform="translate(37.821 165.825)" fill="#e9204f"/>
    <path id="Path_259" data-name="Path 259" d="M67.274,332.478l-9.081-1.265a.722.722,0,0,0-.785.464l-2.675,7.207a1.224,1.224,0,0,0-.09.477,1.215,1.215,0,0,0,.795,1.124.673.673,0,0,0,.24,0c3.283.4,6.214.641,10.282,1.217,4.8.673,3.507,1.073,9.145,1.954,3.4.512,4.564-3.2,3.2-3.651-6.406-1.762-6.9-3.86-9.113-6.582A2.965,2.965,0,0,0,67.274,332.478Z" transform="translate(32.87 166.176)" fill="#263238"/>
    <path id="Path_260" data-name="Path 260" d="M67.305,324.934,58.081,323.3l-.641,7.479,8.584,1.265Z" transform="translate(34.552 161.421)" fill="#263238" opacity="0.2"/>
    <path id="Path_261" data-name="Path 261" d="M86.723,182.336s6.486-3.043,5.862-.48-5.365,3.716-6.71,2.771S86.723,182.336,86.723,182.336Z" transform="translate(51.393 75.72)" fill="#263238"/>
    <path id="Path_262" data-name="Path 262" d="M75.8,204.463s4.8-.5,4.8-9.4c0,0,4.468-2.034,7.367.593s-2.611,8.776.977,11.355C88.933,207.01,85.729,209.124,75.8,204.463Z" transform="translate(45.596 83.83)" fill="#ff8b7b"/>
    <path id="Path_263" data-name="Path 263" d="M89,187.386c0-.593.384-1.057.785-1.025s.657.529.625,1.137-.4,1.041-.785,1.025S89,187.962,89,187.386Z" transform="translate(53.536 79.046)" fill="#263238"/>
    <path id="Path_264" data-name="Path 264" d="M89.366,187.66l3.2,4.164a3.916,3.916,0,0,1-3.459.625Z" transform="translate(53.602 79.829)" fill="#ff5652"/>
    <path id="Path_265" data-name="Path 265" d="M76.2,190.522c.368,7.527.352,10.73,4.116,14.654,5.75,4,14.814,3.8,16.72-3.7,1.7-6.742.833-17.905-6.5-21.044a10.314,10.314,0,0,0-14.414,10.09Z" transform="translate(45.775 74.965)" fill="#ff8b7b"/>
    <path id="Path_266" data-name="Path 266" d="M88.406,186.432a.367.367,0,0,0,.32,0,2.792,2.792,0,0,1,2.434-.689.342.342,0,0,0,.266-.032.348.348,0,0,0,.167-.208.368.368,0,0,0-.24-.432,3.47,3.47,0,0,0-3.075.817.343.343,0,0,0-.075.11.337.337,0,0,0,.075.37h0A.3.3,0,0,0,88.406,186.432Z" transform="translate(53.041 78.223)" fill="#263238"/>
    <path id="Path_267" data-name="Path 267" d="M80.93,196.68a10,10,0,0,0,4.02,3.716c.256-.977.528-1.97.673-2.883a14.039,14.039,0,0,1-4.692-.833Z" transform="translate(48.682 85.255)" opacity="0.2"/>
    <path id="Path_268" data-name="Path 268" d="M80.934,208.415s.529-.641,2.643.288c0,0,4.933-5.541,5.814-9.529a6.021,6.021,0,0,0,2.771-4.8c.192-3.315.288-5.493,1.6-6.262s4.965-4.084,2.29-7.511-2.482.577-2.482.577-7.864-9.033-6.742-3.043c0,0-8.921-2.05-4.388,2.851,0,0-10.074,2.562-6.742,12.076a13.276,13.276,0,0,0,5.237,15.359Z" transform="translate(45.106 72.863)" fill="#263238"/>
    <path id="Path_269" data-name="Path 269" d="M86.218,188.3a5.78,5.78,0,0,1,1.89,4.02c.08,2.05-1.858,2.61-3.539,1.6s-3.4-2.931-2.675-4.8a2.642,2.642,0,0,1,4.324-.817Z" transform="translate(49.16 79.734)" fill="#ff8b7b"/>
    <path id="Path_270" data-name="Path 270" d="M83.583,200.4a29.616,29.616,0,0,1,6.406,1.281,8.924,8.924,0,0,0-6.63-4.324,6.4,6.4,0,0,0-7.079,3.2,32.662,32.662,0,0,1,7.3-.16Z" transform="translate(45.885 85.566)" fill="#e9204f"/>
    <path id="Path_271" data-name="Path 271" d="M83.583,200.4a29.616,29.616,0,0,1,6.406,1.281,8.924,8.924,0,0,0-6.63-4.324,6.4,6.4,0,0,0-7.079,3.2,32.662,32.662,0,0,1,7.3-.16Z" transform="translate(45.885 85.566)" fill="#fff" opacity="0.5"/>
    <path id="Path_272" data-name="Path 272" d="M69.976,234.71s-4.116,9.449-2.354,35.057c0,0,3.331,30.253,1.281,40.038-3.7,17.617-9.9,20.82-12.044,71.124l11.019,1.6s14.558-50.9,17.889-68.081c2.05-10.666,4.8-42.985,4.8-42.985L91.6,237.224Z" transform="translate(34.203 108.131)" fill="#263238"/>
    <path id="Path_273" data-name="Path 273" d="M75.15,324.97l.016,14.382,8.056.176L84.471,325.8Z" transform="translate(45.205 162.425)" fill="#ff8b7b"/>
    <path id="Path_274" data-name="Path 274" d="M81.115,334.133a.177.177,0,0,1-.144-.16.208.208,0,0,1,.017-.119.2.2,0,0,1,.079-.09c.144,0,3.2-1.6,4.532-1.121a1.017,1.017,0,0,1,.346.189,1,1,0,0,1,.247.308.753.753,0,0,1,0,.865,3.606,3.606,0,0,1-2.5.513,13.742,13.742,0,0,1-2.578-.384Zm.657-.224c1.6.272,3.668.368,4.084-.144a.518.518,0,0,0,0-.448.555.555,0,0,0-.153-.184.57.57,0,0,0-.216-.1,1.576,1.576,0,0,0-.384-.08,9.292,9.292,0,0,0-3.331.961Z" transform="translate(48.705 166.987)" fill="#e9204f"/>
    <path id="Path_275" data-name="Path 275" d="M81.01,334.914a.156.156,0,0,1-.026-.088.16.16,0,0,1,.026-.088,5.6,5.6,0,0,1,1.473-3.2,1.468,1.468,0,0,1,.531-.259,1.5,1.5,0,0,1,.59-.029c.545.08.7.368.7.609.128.945-1.986,2.659-3.011,3.043a.145.145,0,0,1-.037.1.141.141,0,0,1-.1.048.147.147,0,0,1-.1-.037A.144.144,0,0,1,81.01,334.914Zm2.354-3.2a1,1,0,0,0-.689.224,4.533,4.533,0,0,0-1.249,2.5c1.073-.561,2.466-1.906,2.434-2.482,0,0,0-.192-.384-.24Z" transform="translate(48.714 166.19)" fill="#e9204f"/>
    <path id="Path_276" data-name="Path 276" d="M85.075,332.961l-9.145-.48a.747.747,0,0,0-.467.136.755.755,0,0,0-.286.392l-2.05,7.367a1.216,1.216,0,0,0,.833,1.505.69.69,0,0,0,.256,0c3.3.112,6.246.1,10.346.32,4.8.256,3.587.769,9.273,1.153,3.427.24,4.276-3.635,2.819-3.908-6.614-1.185-7.191-3.2-9.609-5.765a3.058,3.058,0,0,0-1.97-.721Z" transform="translate(43.96 166.942)" fill="#263238"/>
    <path id="Path_277" data-name="Path 277" d="M75.166,333.234l8.616.144.689-7.575-9.321-.833Z" transform="translate(45.205 162.425)" fill="#263238" opacity="0.2"/>
    <path id="Path_278" data-name="Path 278" d="M80.827,264.321l-2.242-4.228-5.958-5.573s-1.89,24.151,4.548,43.337C78.585,288.232,80.106,272.265,80.827,264.321Z" transform="translate(43.532 120.047)" opacity="0.4"/>
    <path id="Path_279" data-name="Path 279" d="M74.094,236.25s-1.906,9.129-1.6,29.292,7.7,35.506,7.607,47.549c-.176,17.537-7.655,27-4.564,69.987H87.323s9.337-53.251,10.65-71.124c1.361-18.5-.1-74.183-.1-74.183Z" transform="translate(43.587 109.057)" fill="#263238"/>
    <path id="Path_280" data-name="Path 280" d="M78.153,199.79s-8.552.673-10.458,6.566a11.5,11.5,0,0,0,1.377,10.106l4.612,1.313Z" transform="translate(40.361 87.126)" fill="#e9204f"/>
    <path id="Path_281" data-name="Path 281" d="M78.153,199.79s-8.552.673-10.458,6.566a11.5,11.5,0,0,0,1.377,10.106l4.612,1.313Z" transform="translate(40.361 87.126)" opacity="0.1"/>
    <path id="Path_282" data-name="Path 282" d="M91.126,199.258c5.493.5,16.736,3.043,17.889,14.414s-4.2,51.729-4.2,51.729-21.3.753-41.079-4.949a221.266,221.266,0,0,0,7.607-48.3C71.7,203.454,78.2,198.105,91.126,199.258Z" transform="translate(38.342 86.712)" fill="#e9204f"/>
    <path id="Path_283" data-name="Path 283" d="M85.44,207s3.812,11.323,10.074,18.546c.432-5.685.689-10.89.577-14.494Z" transform="translate(51.395 91.463)" opacity="0.1"/>
    <path id="Path_284" data-name="Path 284" d="M98.316,209.756l9.129,7.719,19.026-4.692.961-4.292a2.068,2.068,0,0,1,2.37-1.6l1.746.3,2.114-1.361a2.087,2.087,0,0,1,2.5.2,2.106,2.106,0,0,1,.522.724l.769,1.778a2.086,2.086,0,0,1,.1,1.393l-1.473,5.141a2.094,2.094,0,0,1-1.6,1.473l-5.061.913s-16.48,7.864-22.069,8.1-15.2-7.223-15.2-7.223Z" transform="translate(55.431 90.565)" fill="#ff8b7b"/>
    <path id="Path_285" data-name="Path 285" d="M87.358,200.56s9.161,2.306,19.731,12.38A20.978,20.978,0,0,1,96.166,224.9S77.509,205.685,87.358,200.56Z" transform="translate(50.822 87.589)" fill="#e9204f"/>
    <path id="Path_286" data-name="Path 286" d="M56.7,324.09l-.32,4.052,11.979,1.714,1.153-3.6Z" transform="translate(33.914 161.896)" fill="#263238"/>
    <path id="Path_287" data-name="Path 287" d="M56.7,324.09l-.32,4.052,11.979,1.714,1.153-3.6Z" transform="translate(33.914 161.896)" fill="#fff" opacity="0.3"/>
    <path id="Path_288" data-name="Path 288" d="M74.06,326.23l.384,4.052,12.188-.016.7-3.956Z" transform="translate(44.549 163.183)" fill="#263238"/>
    <path id="Path_289" data-name="Path 289" d="M74.06,326.23l.384,4.052,12.188-.016.7-3.956Z" transform="translate(44.549 163.183)" fill="#fff" opacity="0.3"/>
  </g>
</svg>
