<svg xmlns="http://www.w3.org/2000/svg" width="38" height="36.219" viewBox="0 0 38 36.219">
  <g id="lines_of_code" data-name="lines of code" transform="translate(0 -11.996)">
    <path id="Path_303" data-name="Path 303" d="M62.244,55.271a2.51,2.51,0,1,0,2.513,2.51A2.513,2.513,0,0,0,62.244,55.271Zm0,3.523a1.013,1.013,0,1,1,1.016-1.013A1.015,1.015,0,0,1,62.244,58.794Z" transform="translate(-55.3 -40.063)" fill="#fff"/>
    <path id="Path_304" data-name="Path 304" d="M275.253,55.271h-6.637a2.51,2.51,0,1,0,0,5.02h6.637a2.51,2.51,0,1,0,0-5.02Zm0,3.523h-6.637a1.013,1.013,0,1,1,0-2.026h6.637a1.013,1.013,0,1,1,0,2.026Z" transform="translate(-246.355 -40.063)" fill="#fff"/>
    <path id="Path_305" data-name="Path 305" d="M149.916,55.271a2.51,2.51,0,1,0,2.513,2.51A2.513,2.513,0,0,0,149.916,55.271Zm0,3.523a1.013,1.013,0,1,1,1.016-1.013A1.015,1.015,0,0,1,149.916,58.794Z" transform="translate(-136.465 -40.063)" fill="#fff"/>
    <path id="Path_306" data-name="Path 306" d="M134.763,222.185a.748.748,0,0,0-.9.554l-1.485,6.213a.748.748,0,1,0,1.456.348l1.485-6.213A.748.748,0,0,0,134.763,222.185Z" transform="translate(-122.532 -194.57)" fill="#fff"/>
    <path id="Path_307" data-name="Path 307" d="M198.688,236.127a.749.749,0,0,0,1.057-.061l2.1-2.356a1.039,1.039,0,0,0,0-1.372l-2.1-2.358a.748.748,0,0,0-1.118,1l1.824,2.048-1.824,2.048A.749.749,0,0,0,198.688,236.127Z" transform="translate(-183.709 -201.573)" fill="#fff"/>
    <path id="Path_308" data-name="Path 308" d="M60.471,229.92a.749.749,0,0,0-1.057.061l-2.1,2.356a1.038,1.038,0,0,0,0,1.372l2.1,2.358a.748.748,0,0,0,1.118-1l-1.824-2.048,1.824-2.048a.749.749,0,0,0-.061-1.057Z" transform="translate(-52.82 -201.574)" fill="#fff"/>
    <path id="Path_309" data-name="Path 309" d="M36.322,36.305h-.278a7.881,7.881,0,0,0-.564-1.361l.2-.2a1.677,1.677,0,0,0,0-2.372l-.386-.386V16.045A3.813,3.813,0,0,0,31.782,12H3.512A3.813,3.813,0,0,0,0,16.045V36.963a3.813,3.813,0,0,0,3.512,4.049H7.9a.748.748,0,1,0,0-1.5H3.512A2.364,2.364,0,0,1,1.5,36.964V23.385H33.8v7.563a1.7,1.7,0,0,0-.26-.022h0a1.659,1.659,0,0,0-1.181.489l-.2.2a7.9,7.9,0,0,0-1.383-.571v-.267A1.68,1.68,0,0,0,29.09,29.1H27.735a1.679,1.679,0,0,0-1.676,1.678v.285a7.945,7.945,0,0,0-1.351.566l-.194-.193a1.662,1.662,0,0,0-1.184-.492h0a1.666,1.666,0,0,0-1.186.49l-.957.956a1.677,1.677,0,0,0,0,2.369l.207.207a7.9,7.9,0,0,0-.551,1.337h-.284a1.678,1.678,0,0,0-1.676,1.675v1.356a1.687,1.687,0,0,0,.01.178H14.534a.748.748,0,1,0,0,1.5h6.308a7.857,7.857,0,0,0,.56,1.347l-.2.2a1.68,1.68,0,0,0,0,2.369l.957.957a1.662,1.662,0,0,0,1.184.492h0a1.666,1.666,0,0,0,1.186-.49l.2-.2a7.908,7.908,0,0,0,1.353.561v.29a1.679,1.679,0,0,0,1.676,1.678h1.357a1.679,1.679,0,0,0,1.676-1.678V46.25a7.888,7.888,0,0,0,1.358-.562l.2.2a1.661,1.661,0,0,0,1.183.492h0a1.667,1.667,0,0,0,1.187-.491l.955-.956a1.677,1.677,0,0,0,0-2.372l-.2-.2a7.9,7.9,0,0,0,.559-1.348h.283A1.679,1.679,0,0,0,38,39.336V37.981A1.678,1.678,0,0,0,36.322,36.305ZM1.5,21.888V16.045a2.364,2.364,0,0,1,2.015-2.552h28.27A2.364,2.364,0,0,1,33.8,16.045v5.843H1.5ZM36.5,39.337a.184.184,0,0,1-.181.178h-.856a.748.748,0,0,0-.73.581,6.425,6.425,0,0,1-.825,1.989.748.748,0,0,0,.1.928l.606.605a.179.179,0,0,1,.052.128.174.174,0,0,1-.053.126l-.956.958a.18.18,0,0,1-.128.052h0a.174.174,0,0,1-.127-.053l-.608-.605a.749.749,0,0,0-.927-.1,6.413,6.413,0,0,1-2,.827.749.749,0,0,0-.582.73v.862a.185.185,0,0,1-.179.181H27.76a.185.185,0,0,1-.179-.181v-.864a.748.748,0,0,0-.583-.73A6.422,6.422,0,0,1,25,44.119a.748.748,0,0,0-.926.105l-.606.605a.18.18,0,0,1-.128.052h0a.174.174,0,0,1-.126-.052l-.959-.959a.184.184,0,0,1,0-.252l.608-.605a.748.748,0,0,0,.1-.93,6.379,6.379,0,0,1-.826-1.987.749.749,0,0,0-.73-.581h-.86a.181.181,0,0,1-.179-.178V37.981a.181.181,0,0,1,.179-.178h.858a.749.749,0,0,0,.73-.582,6.421,6.421,0,0,1,.816-1.979.748.748,0,0,0-.105-.925l-.612-.614a.172.172,0,0,1-.05-.124.179.179,0,0,1,.052-.127l.957-.956a.18.18,0,0,1,.128-.052h0a.175.175,0,0,1,.127.053l.6.6a.748.748,0,0,0,.929.1,6.457,6.457,0,0,1,1.991-.835.748.748,0,0,0,.578-.729V30.78a.182.182,0,0,1,.179-.181H29.09a.183.183,0,0,1,.181.181v.843a.748.748,0,0,0,.586.731,6.417,6.417,0,0,1,2.019.833.749.749,0,0,0,.926-.1l.61-.608a.172.172,0,0,1,.124-.05h0a.18.18,0,0,1,.128.052l.957.956a.179.179,0,0,1,.052.128.174.174,0,0,1-.053.126l-.606.607a.748.748,0,0,0-.1.928,6.406,6.406,0,0,1,.829,2,.748.748,0,0,0,.73.582h.852a.185.185,0,0,1,.181.178Z" transform="translate(0)" fill="#fff"/>
    <path id="Path_310" data-name="Path 310" d="M326.133,309.652a4.571,4.571,0,1,0,4.572,4.572A4.578,4.578,0,0,0,326.133,309.652Zm0,7.645a3.074,3.074,0,1,1,3.075-3.073A3.078,3.078,0,0,1,326.133,317.3Z" transform="translate(-297.693 -275.564)" fill="#fff"/>
    <path id="Path_311" data-name="Path 311" d="M141.935,382.778h-.015a.748.748,0,1,0,0,1.5h.015a.748.748,0,1,0,0-1.5Z" transform="translate(-130.694 -343.263)" fill="#fff"/>
  </g>
</svg>
