<svg xmlns="http://www.w3.org/2000/svg" width="40.336" height="48" viewBox="0 0 40.336 48">
  <path id="Icon_awesome-apple" data-name="Icon awesome-apple" d="M34.005,27.615c-.021-3.933,1.757-6.9,5.358-9.087-2.015-2.883-5.058-4.469-9.077-4.779-3.8-.3-7.962,2.218-9.484,2.218-1.607,0-5.294-2.111-8.187-2.111C6.636,13.952.281,18.624.281,28.13a26.709,26.709,0,0,0,1.543,8.7C3.2,40.764,8.147,50.409,13.312,50.248c2.7-.064,4.608-1.918,8.123-1.918,3.408,0,5.176,1.918,8.187,1.918,5.208-.075,9.687-8.841,10.995-12.784-6.987-3.29-6.612-9.645-6.612-9.848Zm-6.065-17.6A10.093,10.093,0,0,0,30.512,2.25a11.363,11.363,0,0,0-7.276,3.74,10.251,10.251,0,0,0-2.743,7.7c2.8.214,5.347-1.222,7.448-3.676Z" transform="translate(-0.281 -2.25)"/>
</svg>
