<?xml version="1.0" encoding="UTF-8" standalone="no"?>
<svg
   width="12.011597"
   height="12.00989"
   viewBox="0 0 12.011597 12.00989"
   version="1.1"
   id="svg33"
   sodipodi:docname="close_navbar.svg"
   inkscape:version="1.2.1 (ef4d3fba62, 2022-07-19, custom)"
   xmlns:inkscape="http://www.inkscape.org/namespaces/inkscape"
   xmlns:sodipodi="http://sodipodi.sourceforge.net/DTD/sodipodi-0.dtd"
   xmlns="http://www.w3.org/2000/svg"
   xmlns:svg="http://www.w3.org/2000/svg">
  <defs
     id="defs37" />
  <sodipodi:namedview
     id="namedview35"
     pagecolor="#505050"
     bordercolor="#eeeeee"
     borderopacity="1"
     inkscape:showpageshadow="0"
     inkscape:pageopacity="0"
     inkscape:pagecheckerboard="0"
     inkscape:deskcolor="#505050"
     showgrid="false"
     inkscape:zoom="33.875"
     inkscape:cx="1.0627306"
     inkscape:cy="6.0073801"
     inkscape:window-width="1848"
     inkscape:window-height="1016"
     inkscape:window-x="72"
     inkscape:window-y="27"
     inkscape:window-maximized="1"
     inkscape:current-layer="g29" />
  <g
     data-name="Layer 2"
     id="g31"
     transform="translate(-5.9942017,-5.9959084)">
    <g
       data-name="close"
       id="g29">
      <rect
         width="24"
         height="24"
         transform="rotate(180,12,12)"
         opacity="0"
         id="rect25"
         x="0"
         y="0" />
      <path
         d="m 13.41,12 4.3,-4.29 A 1.0040916,1.0040916 0 1 0 16.29,6.29 L 12,10.59 7.71,6.29 A 1.0040916,1.0040916 0 0 0 6.29,7.71 l 4.3,4.29 -4.3,4.29 a 1,1 0 0 0 0,1.42 1,1 0 0 0 1.42,0 l 4.29,-4.3 4.29,4.3 a 1,1 0 0 0 1.42,0 1,1 0 0 0 0,-1.42 z"
         id="path27" />
    </g>
  </g>
</svg>
