<?xml version="1.0" encoding="UTF-8" standalone="no"?>
<svg
   version="1.1"
   id="Layer_1"
   x="0px"
   y="0px"
   viewBox="0 0 1269.75 1269.45"
   xml:space="preserve"
   sodipodi:docname="close-svgrepo-com (2).svg"
   width="1269.75"
   height="1269.45"
   inkscape:version="1.2.1 (ef4d3fba62, 2022-07-19, custom)"
   xmlns:inkscape="http://www.inkscape.org/namespaces/inkscape"
   xmlns:sodipodi="http://sodipodi.sourceforge.net/DTD/sodipodi-0.dtd"
   xmlns="http://www.w3.org/2000/svg"
   xmlns:svg="http://www.w3.org/2000/svg"><defs
   id="defs30" /><sodipodi:namedview
   id="namedview28"
   pagecolor="#505050"
   bordercolor="#eeeeee"
   borderopacity="1"
   inkscape:showpageshadow="0"
   inkscape:pageopacity="0"
   inkscape:pagecheckerboard="0"
   inkscape:deskcolor="#505050"
   showgrid="false"
   inkscape:zoom="0.45368304"
   inkscape:cx="632.60025"
   inkscape:cy="633.70234"
   inkscape:window-width="1848"
   inkscape:window-height="1016"
   inkscape:window-x="72"
   inkscape:window-y="27"
   inkscape:window-maximized="1"
   inkscape:current-layer="Layer_1" />
<path
   d="m 820.925,634.825 410.2,-410 c 51.5,-51.5 51.5,-134.6 0,-186.1 -51.5,-51.5 -134.6,-51.5 -186.1,0 l -410.2,410 -410.1,-410.1 c -51.5,-51.5 -134.6,-51.5 -186.1,0 -51.5,51.5 -51.5,134.6 0,186.1 l 410.2,410 -410.2,410 c -51.5,51.5 -51.5,134.6 0,186.1 51.6,51.5 135,51.5 186.1,0 l 410.2,-410 410.2,410 c 51.5,51.5 134.6,51.5 186.1,0 51.1,-51.5 51.1,-134.6 -0.5,-186.2 z"
   id="path25" />
</svg>
