<svg width="33" height="28" viewBox="0 0 33 28" fill="none" xmlns="http://www.w3.org/2000/svg">
<g clip-path="url(#clip0_56_398)">
<path fill-rule="evenodd" clip-rule="evenodd" d="M27.5202 12.8645C26.8546 12.2457 26.0817 11.4979 25.2686 10.6535C22.9122 8.2066 20.1287 4.85694 18.7154 1.43233L20.6846 0.603959C21.9381 3.6411 24.4878 6.75289 26.798 9.15212C27.9419 10.34 29.005 11.3307 29.7815 12.0239C30.1695 12.3702 30.4851 12.6416 30.7025 12.8253C30.811 12.9171 30.8951 12.987 30.9514 13.0334L31.0143 13.0851L31.0293 13.0974L31.0327 13.1L32.0742 13.9413L31.0331 14.7821L31.0293 14.7852L31.0143 14.7975L30.9514 14.8492C30.8951 14.8955 30.811 14.9654 30.7025 15.0573C30.4851 15.241 30.1695 15.5123 29.7815 15.8586C29.005 16.5518 27.9419 17.5426 26.798 18.7304C24.4878 21.1297 21.9381 24.2415 20.6846 27.2786L18.7154 26.4502C20.1287 23.0257 22.9122 19.676 25.2686 17.229C26.0817 16.3847 26.8546 15.637 27.5199 15.0183L0.499999 15.0183L0.499999 12.8645L27.5202 12.8645Z" fill="#E9204F" stroke="#E9204F"/>
</g>
<defs>
<clipPath id="clip0_56_398">
<rect width="28" height="32" fill="white" transform="translate(0.5 28) rotate(-90)"/>
</clipPath>
</defs>
</svg>
