<svg width="43" height="28" viewBox="0 0 43 28" fill="none" xmlns="http://www.w3.org/2000/svg">
<path fill-rule="evenodd" clip-rule="evenodd" d="M0.940921 14.0257C0.940921 14.4157 1.09584 14.7897 1.37158 15.0654C1.64733 15.3412 2.02133 15.4961 2.4113 15.4961L37.0917 15.4961L27.8372 24.7477C27.7004 24.8844 27.592 25.0467 27.518 25.2253C27.444 25.404 27.4059 25.5954 27.4059 25.7887C27.4059 25.9821 27.444 26.1735 27.518 26.3521C27.592 26.5308 27.7004 26.6931 27.8372 26.8298C27.9739 26.9665 28.1362 27.0749 28.3148 27.1489C28.4934 27.2229 28.6849 27.261 28.8782 27.261C29.0715 27.261 29.263 27.2229 29.4416 27.1489C29.6202 27.0749 29.7825 26.9665 29.9192 26.8298L41.6823 15.0667C41.8192 14.9301 41.9278 14.7679 42.002 14.5892C42.0761 14.4106 42.1143 14.2191 42.1143 14.0257C42.1143 13.8323 42.0761 13.6408 42.002 13.4621C41.9278 13.2835 41.8192 13.1212 41.6823 12.9847L29.9192 1.2216C29.7825 1.08489 29.6202 0.976445 29.4416 0.902459C29.263 0.828471 29.0715 0.790393 28.8782 0.790393C28.6848 0.790393 28.4934 0.828471 28.3148 0.902459C28.1362 0.976445 27.9739 1.08489 27.8372 1.2216C27.7004 1.35831 27.592 1.52061 27.518 1.69923C27.444 1.87785 27.4059 2.06929 27.4059 2.26263C27.4059 2.45597 27.444 2.64741 27.518 2.82603C27.592 3.00465 27.7004 3.16695 27.8372 3.30366L37.0917 12.5553L2.4113 12.5553C2.02133 12.5553 1.64733 12.7102 1.37158 12.986C1.09584 13.2617 0.940921 13.6357 0.940921 14.0257Z" fill="#F53855"/>
</svg>
