<svg width="33" height="28" viewBox="0 0 33 28" fill="none" xmlns="http://www.w3.org/2000/svg">
<path fill-rule="evenodd" clip-rule="evenodd" d="M32.0593 14.0268C32.0593 13.6368 31.9044 13.2628 31.6287 12.9871C31.3529 12.7113 30.9789 12.5564 30.5889 12.5564L5.9085 12.5564L15.1631 3.30477C15.2998 3.16806 15.4082 3.00577 15.4822 2.82715C15.5562 2.64853 15.5943 2.45708 15.5943 2.26374C15.5943 2.07041 15.5562 1.87896 15.4822 1.70034C15.4082 1.52172 15.2998 1.35942 15.1631 1.22271C15.0264 1.086 14.8641 0.977559 14.6855 0.903572C14.5068 0.829585 14.3154 0.791504 14.1221 0.791504C13.9287 0.791504 13.7373 0.829585 13.5587 0.903572C13.38 0.977559 13.2177 1.086 13.081 1.22271L1.31797 12.9858C1.18103 13.1224 1.07239 13.2846 0.998268 13.4633C0.924142 13.6419 0.885986 13.8334 0.885986 14.0268C0.885986 14.2202 0.924142 14.4117 0.998268 14.5904C1.07239 14.769 1.18103 14.9312 1.31797 15.0678L13.081 26.8309C13.2177 26.9676 13.38 27.076 13.5587 27.15C13.7373 27.224 13.9287 27.2621 14.1221 27.2621C14.3154 27.2621 14.5068 27.224 14.6855 27.15C14.8641 27.076 15.0264 26.9676 15.1631 26.8309C15.2998 26.6942 15.4082 26.5319 15.4822 26.3533C15.5562 26.1746 15.5943 25.9832 15.5943 25.7899C15.5943 25.5965 15.5562 25.4051 15.4822 25.2265C15.4082 25.0478 15.2998 24.8855 15.1631 24.7488L5.9085 15.4972L30.5889 15.4972C30.9789 15.4972 31.3529 15.3423 31.6287 15.0665C31.9044 14.7908 32.0593 14.4168 32.0593 14.0268Z" fill="#F53855" fill-opacity="0.25"/>
</svg>
