<?xml version="1.0" encoding="iso-8859-1"?>
<!-- Generator: Adobe Illustrator 19.0.0, SVG Export Plug-In . SVG Version: 6.00 Build 0)  -->
<svg version="1.1" id="Layer_1" xmlns="http://www.w3.org/2000/svg" xmlns:xlink="http://www.w3.org/1999/xlink" x="0px" y="0px"
	 viewBox="0 0 512 512" style="enable-background:new 0 0 512 512;" xml:space="preserve">
<g>
	<g>
		<path d="M256,0C114.51,0,0,114.497,0,256c0,141.49,114.497,256,256,256c141.491,0,256-114.498,256-256
			C512,114.509,397.502,0,256,0z M256,478.609c-122.746,0-222.609-99.862-222.609-222.609S133.254,33.391,256,33.391
			S478.609,133.254,478.609,256S378.746,478.609,256,478.609z"/>
	</g>
</g>
<g>
	<g>
		<path d="M310.223,340.458V236.578c0-23.17-14.613-42.984-35.103-50.732c21.02-7.792,36.041-28.044,36.041-51.741
			c0-30.417-24.745-55.162-55.162-55.162c-30.417,0-55.162,24.745-55.162,55.162c0,20.736,11.506,38.827,28.464,48.249h-5.426
			c-29.9,0-54.224,24.324-54.224,54.224c0,21.681,13.089,40.933,32.124,49.503v54.377c-19.612,6.597-33.775,25.158-33.775,46.964
			c0,27.313,22.22,49.533,49.533,49.533h76.934c27.313,0,49.533-22.22,49.533-49.533
			C343.999,365.616,329.835,347.056,310.223,340.458z M256,112.335c12.004,0,21.771,9.766,21.771,21.771
			c0,12.004-9.766,21.771-21.771,21.771c-12.005,0-21.771-9.766-21.771-21.771C234.229,122.101,243.995,112.335,256,112.335z
			 M294.467,403.563h-76.934c-8.901,0-16.141-7.24-16.141-16.141c0-8.901,7.24-16.141,16.141-16.141h0.938
			c9.22,0,16.696-7.475,16.696-16.696v-80.864c0-8.3-6.097-15.34-14.313-16.524c-10.154-1.465-17.811-10.328-17.811-20.617
			c0-11.487,9.345-20.833,20.833-20.833H256c11.487,0,20.833,9.345,20.833,20.833v118.006c0,8.566,6.509,16.696,17.634,16.696
			c8.901,0,16.141,7.24,16.141,16.141C310.608,396.324,303.367,403.563,294.467,403.563z"/>
	</g>
</g>
<g>
</g>
<g>
</g>
<g>
</g>
<g>
</g>
<g>
</g>
<g>
</g>
<g>
</g>
<g>
</g>
<g>
</g>
<g>
</g>
<g>
</g>
<g>
</g>
<g>
</g>
<g>
</g>
<g>
</g>
</svg>
