<?xml version="1.0" encoding="utf-8"?>
<!-- Generator: Adobe Illustrator 23.0.3, SVG Export Plug-In . SVG Version: 6.00 Build 0)  -->
<svg version="1.1" id="Calque_1" xmlns="http://www.w3.org/2000/svg" xmlns:xlink="http://www.w3.org/1999/xlink" x="0px" y="0px"
	 viewBox="0 0 393.93 99.46" style="enable-background:new 0 0 393.93 99.46;" xml:space="preserve">
<style type="text/css">
	.st0{fill:#E63312;}
	.st1{font-family:'HelveticaNeue-LightItalic';}
	.st2{font-size:11.316px;}
</style>
<g>
	<g>
		<path d="M53.59,68.32c-0.1-4.79-1.25-5.75-3.54-4.79c-4.31,1.82-9,7.86-20.31,7.86c-15.52,0-29.03-15.14-29.03-35.54
			c0-18.97,13.51-34.2,29.03-34.2c11.21,0,15.33,6.8,18.68,6.8c2.59,0,3.45-0.67,3.35-3.45c0-1.05,1.53-0.96,1.53,0
			c-0.48,6.32-0.57,12.17,0,19.35c0.1,1.34-1.44,1.34-1.44,0c0-10.63-8.91-21.17-22.13-21.17c-16.38,0-18.58,20.5-18.58,32.67
			c0,13.51,2.2,34.01,18.49,34.01c13.51,0,22.42-9.48,23.95-22.13c0.19-1.25,1.53-1.15,1.44,0c-0.38,6.9-0.38,13.22,0,20.6
			C55.12,69.38,53.69,69.38,53.59,68.32z"/>
		<path d="M87.6,70.53c-1.44,0-1.44-1.72,0-1.44c1.92,0.19,3.45,0.1,5.08-0.1c1.15-0.1,1.15-0.38,1.15-0.86V40.54
			c0-5.27-1.92-6.9-4.89-6.9c-7.66,0.1-10.63,6.71-13.89,10.92v23.37c0,0.57,0.29,0.96,1.05,1.05c1.82,0.19,3.16,0.19,4.69,0
			c1.53-0.19,1.44,1.53,0,1.53c-6.61-0.19-12.64-0.19-19.45,0c-1.44,0-1.44-1.72,0-1.53c1.82,0.19,3.26,0.19,4.89,0
			c1.05-0.1,1.05-0.38,1.05-0.86V6.54c0-0.96-0.29-1.63-1.53-1.72c-1.25-0.1-2.3-0.1-3.54,0c-1.82,0.1-1.82-1.63,0-1.53
			c1.92,0.1,3.74,0.19,5.46,0.1c1.63-0.1,4.12-0.77,5.84-2.2c1.34-1.15,1.53-1.34,1.53,0.1v40.43c0,0.57,0.1,0.19,0.38-0.19
			c3.26-4.69,7.66-9.48,15.14-9.39c9.87,0.1,10.92,5.08,10.92,10.73v25.1c0,0.57,0.29,0.96,1.05,1.05c1.82,0.19,3.64,0.19,5.27,0
			c1.44-0.19,1.34,1.53,0,1.53C101.2,70.34,94.5,70.34,87.6,70.53z"/>
		<path d="M142.57,71.49c-4.41,0-7.38-2.3-8.05-5.65c0-0.19-0.19-0.19-0.29,0c-1.82,3.16-5.56,5.65-10.54,5.65
			c-7.18,0-11.5-3.45-11.5-9.68c0-9.1,12.84-12.17,20.4-12.36c1.44,0,1.72-0.19,1.72-0.57V38.05c0-3.35-1.72-4.98-4.6-4.98
			c-4.12,0-8.91,0.96-8.91,3.83c0,2.11,3.07,0.1,3.07,4.22c0,2.11-1.92,3.54-4.31,3.83c-2.3,0.29-4.21-2.11-4.02-5.08
			c0.29-4.12,6.61-8.05,14.66-8.24c6.61-0.1,11.88,3.93,11.88,10.25v23.57c0,1.82,0.29,3.93,2.78,3.93c1.25,0,2.3-0.29,2.87-1.15
			c0.86-1.15,1.92-0.19,0.96,0.86C147.17,70.34,145.35,71.49,142.57,71.49z M134.34,51.37c0-0.48-0.29-0.67-1.53-0.57
			c-4.5,0.29-12.36,1.44-12.36,9.58c0,5.08,0.86,8.81,6.71,8.81c3.45,0,6.51-4.31,7.18-5.27V51.37z"/>
		<path d="M150.63,70.62c-1.53,0-1.53-1.72,0-1.53c1.82,0.19,3.16,0.19,4.89,0c1.05-0.1,1.05-0.38,1.05-0.86V6.34
			c0-0.96-0.38-1.63-1.63-1.72c-1.34-0.1-2.3-0.1-3.64,0c-1.72,0.1-1.72-1.63,0-1.53c2.01,0.1,3.83,0.19,5.46,0.1
			c1.63-0.1,4.12-0.77,5.84-2.2c1.44-1.15,1.63-1.34,1.63-0.29v67.34c0,0.57,0.38,0.96,1.05,1.05c1.82,0.19,3.26,0.19,4.79,0
			c1.53-0.19,1.44,1.53,0,1.53C163.46,70.43,157.43,70.43,150.63,70.62z"/>
		<path d="M173.9,70.62c-1.53,0-1.53-1.72,0-1.53c1.82,0.19,3.16,0.19,4.89,0c1.05-0.1,1.05-0.38,1.05-0.86V6.34
			c0-0.96-0.38-1.63-1.63-1.72c-1.34-0.1-2.3-0.1-3.64,0c-1.72,0.1-1.72-1.63,0-1.53c2.01,0.1,3.83,0.19,5.46,0.1
			c1.63-0.1,4.12-0.77,5.84-2.2c1.44-1.15,1.63-1.34,1.63-0.29v67.34c0,0.57,0.38,0.96,1.05,1.05c1.82,0.19,3.26,0.19,4.79,0
			c1.53-0.19,1.44,1.53,0,1.53C186.74,70.43,180.71,70.43,173.9,70.62z"/>
		<path d="M216.34,71.49c-10.82,0-18.39-8.14-18.39-20.02c0-8.72,7.18-19.73,17.24-19.93c14.94-0.38,16.48,13.03,16.48,16.76
			c0,0.57-0.77,1.05-1.72,1.05h-22.61c-0.29,0-0.48,0.19-0.48,0.48v6.61c0,6.42,0.77,13.6,9.48,13.6c7.66,0,13.79-4.98,15.52-11.78
			c0.1-0.96,1.63-1.05,1.44,0C231,65.93,224.77,71.49,216.34,71.49z M222.86,45.33c0-5.75-0.77-12.55-7.66-12.36
			c-6.42,0.19-8.33,6.61-8.33,12.36v1.82c0,0.38,0.1,0.77,0.57,0.77h14.27c0.86,0,1.15-0.96,1.15-1.25V45.33z"/>
		<path d="M261.75,70.62c-1.53,0-1.53-1.72,0-1.53c1.82,0.19,3.16,0.19,4.89,0c1.05-0.1,1.05-0.38,1.05-0.86V40.64
			c0-4.69-1.44-7.09-4.41-7.09c-6.51,0-11.69,5.75-13.32,9v25.48c0,0.57,0.19,0.96,0.96,1.05c1.82,0.19,3.16,0.19,4.69,0
			c1.53-0.19,1.44,1.53,0,1.53c-6.61-0.19-12.64-0.19-19.45,0c-1.44,0-1.44-1.72,0-1.53c1.82,0.19,3.26,0.19,4.89,0
			c1.05-0.1,1.05-0.38,1.05-0.86V37.48c0-1.05-0.38-1.72-1.63-1.82c-1.25-0.1-2.3-0.1-3.54,0c-1.82,0.1-1.82-1.63,0-1.53
			c1.92,0.1,3.26,0.1,4.89,0c1.72-0.1,4.12-0.86,5.94-2.11c1.25-0.86,1.44-0.96,1.63,0.29c0.48,2.87,0.57,5.65,0.48,8.72l0.29-0.96
			c2.39-3.74,7.66-8.05,13.51-8.05c9.87,0,11.78,5.27,11.78,10.92v25.19c0,0.57,0.29,0.86,0.96,0.96c1.92,0.19,3.26,0.19,4.79,0
			c1.53-0.19,1.44,1.53,0,1.53C274.58,70.43,268.55,70.43,261.75,70.62z"/>
		<path d="M324.01,40.16c-1.82,0-3.16-1.44-3.16-2.97c0-2.11,0.57-2.68,1.15-3.26c-1.92,0.1-4.22,1.72-5.56,3.64
			c2.11,2.3,3.83,6.13,3.83,9.87c0,8.14-8.43,14.47-15.9,14.47c-4.12,0-6.13-1.34-7.18-1.82c-4.6-0.19-8.43,0.96-8.62,4.6
			c-0.1,2.39,1.92,3.74,4.12,3.83c7.57,0.38,14.27,0.29,21.46,0c6.42-0.29,10.54,3.83,10.73,12.26
			c0.19,11.02-10.63,18.68-21.75,18.68c-8.43,0-17.72-3.16-17.72-12.26c0-5.27,4.69-10.06,9.2-11.02v-0.19
			c-5.08,0-7.66-3.64-7.47-8.81c0.19-5.75,2.97-8.33,8.53-8.05v-0.19c-4.31-2.78-7.18-5.94-7.18-11.21c0-8.72,7.38-15.42,15.9-15.42
			c4.5,0,8.53,1.44,11.21,4.31c1.72-2.01,4.12-4.31,7.28-4.31c2.78,0,4.89,1.63,4.89,4.5C327.74,39.2,325.92,40.16,324.01,40.16z
			 M313.57,75.89c-5.27-0.29-9.96-0.48-15.42,0c-4.98,0.48-8.33,4.5-8.33,10.82c0,8.05,6.61,11.11,13.79,11.11
			c9.39,0,19.25-7.28,19.83-15.9C323.82,77.04,318.26,76.18,313.57,75.89z M303.89,33.84c-7.86,0.29-7.57,8.24-7.38,13.51
			c0.19,6.32,0.48,13.12,8.33,12.84c7.86-0.29,7.57-6.42,7.38-13.41C311.94,38.91,311.65,33.55,303.89,33.84z"/>
		<path d="M347.57,71.49c-10.82,0-18.39-8.14-18.39-20.02c0-8.72,7.18-19.73,17.24-19.93c14.94-0.38,16.48,13.03,16.48,16.76
			c0,0.57-0.77,1.05-1.72,1.05h-22.61c-0.29,0-0.48,0.19-0.48,0.48v6.61c0,6.42,0.77,13.6,9.48,13.6c7.66,0,13.79-4.98,15.52-11.78
			c0.1-0.96,1.63-1.05,1.44,0C362.23,65.93,356,71.49,347.57,71.49z M354.09,45.33c0-5.75-0.77-12.55-7.66-12.36
			c-6.42,0.19-8.33,6.61-8.33,12.36v1.82c0,0.38,0.1,0.77,0.57,0.77h14.27c0.86,0,1.15-0.96,1.15-1.25V45.33z"/>
	</g>
	<g>
		<path class="st0" d="M391.37,29.66c-2.13,0.79-3.62-0.55-4.17-2.2c-0.71-2.05,0.16-3.38,0.79-4.48c-0.16-0.79-0.71-1.34-2.83-1.34
			c-2.68,0-5.27,1.34-5.27,6.29c0,6.53,9.83,6.61,9.83,16.6c0,4.8-5.19,10.23-11.64,10.39c-5.82,0.16-8.81-3.3-9.75-6.14
			c-0.86-2.28-0.08-5.03,2.12-5.9c2.04-0.79,3.85,0.71,4.4,2.2c1.18,3.62-2.28,3.86-1.57,5.98c0.32,0.94,3.07,2.28,5.51,1.65
			c2.44-0.55,5.66-1.57,5.66-5.59c0-6.53-8.97-8.1-8.97-16.28c0-4.17,3.3-11.25,9.99-11.25c4.88,0,6.92,1.57,8.18,5.11
			C394.52,27.06,393.26,28.95,391.37,29.66z"/>
	</g>
	<text transform="matrix(1 0 0 1 60.2733 86.4919)" class="st1 st2">L’économie de demain est l’affaire de tous</text>
</g>
</svg>
