<svg width="33" height="32" viewBox="0 0 33 32" fill="none" xmlns="http://www.w3.org/2000/svg">
<path d="M29.2996 28.7989V19.4229C29.2996 14.8149 28.3076 11.2949 22.9316 11.2949C20.3396 11.2949 18.6116 12.7029 17.9076 14.0469H17.8436V11.7109H12.7556V28.7989H18.0676V20.3189C18.0676 18.0789 18.4836 15.9349 21.2356 15.9349C23.9556 15.9349 23.9876 18.4629 23.9876 20.4469V28.7669H29.2996V28.7989Z" fill="white"/>
<path d="M4.11621 11.7109H9.42821V28.7989H4.11621V11.7109Z" fill="white"/>
<path d="M6.77171 3.19922C5.07571 3.19922 3.69971 4.57522 3.69971 6.27122C3.69971 7.96722 5.07571 9.37522 6.77171 9.37522C8.46771 9.37522 9.84371 7.96722 9.84371 6.27122C9.84371 4.57522 8.46771 3.19922 6.77171 3.19922Z" fill="white"/>
</svg>
