<svg width="33" height="32" viewBox="0 0 33 32" fill="none" xmlns="http://www.w3.org/2000/svg">
<path d="M29.267 8.06361C28.307 8.47961 27.315 8.76761 26.259 8.89561C27.347 8.25561 28.179 7.23161 28.563 5.98361C27.539 6.59161 26.419 7.00761 25.235 7.26361C24.275 6.23961 22.899 5.59961 21.395 5.59961C18.483 5.59961 16.147 7.96761 16.147 10.8476C16.147 11.2636 16.179 11.6476 16.275 12.0316C11.923 11.8396 8.08299 9.72761 5.49099 6.55961C3.63499 9.88761 5.71499 12.6396 7.09099 13.5676C6.25899 13.5676 5.42699 13.3116 4.72299 12.9276C4.72299 15.5196 6.54699 17.6636 8.91499 18.1436C8.40299 18.3036 7.25099 18.3996 6.54699 18.2396C7.21899 20.3196 9.17099 21.8556 11.443 21.8876C9.65099 23.2956 7.02699 24.4156 3.66699 24.0636C6.00299 25.5676 8.75499 26.4316 11.731 26.4316C21.395 26.4316 26.643 18.4316 26.643 11.5196C26.643 11.2956 26.643 11.0716 26.611 10.8476C27.699 10.0476 28.595 9.11961 29.267 8.06361Z" fill="white"/>
</svg>
