<svg version="1.0" xmlns="http://www.w3.org/2000/svg"
 width="752.000000pt" height="752.000000pt" viewBox="0 0 752.000000 752.000000"
 preserveAspectRatio="xMidYMid meet">

<g transform="translate(0.000000,752.000000) scale(0.100000,-0.100000)"
fill="#fff" stroke="none">
<path d="M2664 4591 c-31 -14 -45 -28 -57 -60 -21 -52 -21 -70 -1 -120 12 -30
26 -45 58 -61 43 -20 50 -20 1072 -18 992 3 1030 4 1057 22 86 59 72 210 -23
243 -26 9 -290 12 -1050 12 -968 1 -1017 0 -1056 -18z"/>
<path d="M3785 3746 c-48 -21 -68 -51 -73 -110 -5 -64 15 -108 61 -133 29 -17
72 -18 507 -18 435 0 478 1 507 18 90 49 82 203 -12 243 -49 20 -944 20 -990
0z"/>
<path d="M2633 2890 c-58 -35 -76 -103 -45 -172 37 -84 -45 -78 1117 -78 1127
0 1071 -3 1108 59 21 36 22 112 2 151 -33 63 28 60 -1112 60 -1010 0 -1039 -1
-1070 -20z"/>
</g>
</svg>
