<svg id="logo-fonce-KR" xmlns="http://www.w3.org/2000/svg" xmlns:xlink="http://www.w3.org/1999/xlink" width="224.462" height="74.559" viewBox="0 0 224.462 74.559">
  <defs>
    <clipPath id="clip-path">
      <rect id="Rectangle_1378" data-name="Rectangle 1378" width="224.462" height="74.559" transform="translate(0 0)" fill="none"/>
    </clipPath>
  </defs>
  <g id="Groupe_2889" data-name="Groupe 2889" transform="translate(0 0)" clip-path="url(#clip-path)">
    <path id="Tracé_3204" data-name="Tracé 3204" d="M143.8,44.427l-3.186.333V56.886a60.669,60.669,0,0,1-8.321,0V24.5a60.853,60.853,0,0,1,8.321,0V37.342l3.614-.38L152.5,24.5a70.985,70.985,0,0,1,8.987,0L150.744,40.386l11.507,16.5a81.624,81.624,0,0,1-9.653,0Z" transform="translate(-55.266 -9.342)" fill="#001370"/>
    <path id="Tracé_3205" data-name="Tracé 3205" d="M218.857,50.941H207.065l-2.045,5.944a63.684,63.684,0,0,1-8.512,0L209.014,24.5a56.6,56.6,0,0,1,8.036,0l12.506,32.383a65.837,65.837,0,0,1-8.655,0Zm-5.9-17.071L209.3,44.379h7.322Z" transform="translate(-82.201 -9.342)" fill="#001370"/>
    <path id="Tracé_3206" data-name="Tracé 3206" d="M298.152,38.206c0,6.229-5.278,8.369-13.694,8.369h-5.421V56.989a53.942,53.942,0,0,1-8.321,0V24.606h13.743c8.416,0,13.694,2.187,13.694,8.512Zm-8.321-3.281c0-2.9-2.473-3.376-5.468-3.376h-5.326v8.274h5.326c3,0,5.468-.475,5.468-3.329Z" transform="translate(-113.328 -9.445)" fill="#001370"/>
    <path id="Tracé_3207" data-name="Tracé 3207" d="M365.233,38.206c0,6.229-5.278,8.369-13.694,8.369h-5.421V56.989a53.941,53.941,0,0,1-8.321,0V24.606h13.743c8.416,0,13.694,2.187,13.694,8.512Zm-8.321-3.281c0-2.9-2.473-3.376-5.468-3.376h-5.326v8.274h5.326c3,0,5.468-.475,5.468-3.329Z" transform="translate(-141.465 -9.445)" fill="#001370"/>
    <path id="Tracé_3208" data-name="Tracé 3208" d="M145.906,112.627a35.651,35.651,0,0,0-3.573-6.076,4.252,4.252,0,0,0,3.439-4.4v-1.306c0-3.3-2.3-4.977-6.825-4.977h-6.363a.29.29,0,0,0-.29.29v17.013a.29.29,0,0,0,.244.286l.273.045a6.977,6.977,0,0,0,1.084.082,6.906,6.906,0,0,0,1.083-.082l.273-.044a.29.29,0,0,0,.243-.286V106.93h3.38a33.89,33.89,0,0,1,3.832,6.236l.07.142a.292.292,0,0,0,.2.156l.157.034a8.006,8.006,0,0,0,2.355,0l.4-.089a.291.291,0,0,0,.2-.41Zm-3.336-11.462v.715c0,1.6-.974,2.17-3.722,2.17h-3.353V98.824h2.984c3.174,0,4.092.525,4.092,2.341" transform="translate(-55.266 -39.337)" fill="#fd1b37"/>
    <path id="Tracé_3209" data-name="Tracé 3209" d="M191.541,98.813a.289.289,0,0,0,.28-.217l.064-.243a4.3,4.3,0,0,0,0-1.963l-.064-.242a.289.289,0,0,0-.28-.217H180.616a.29.29,0,0,0-.29.29v17.061a.29.29,0,0,0,.29.29h10.921a.291.291,0,0,0,.28-.212l.066-.238a4.425,4.425,0,0,0,0-2l-.065-.238a.29.29,0,0,0-.28-.214h-8.011v-4.609h7.766a.29.29,0,0,0,.281-.216l.064-.242a4.273,4.273,0,0,0,0-1.965l-.064-.242a.291.291,0,0,0-.281-.216h-7.766V98.813Z" transform="translate(-75.413 -39.363)" fill="#fd1b37"/>
    <path id="Tracé_3210" data-name="Tracé 3210" d="M238.417,96.163a.29.29,0,0,0-.284-.23H224.594a.29.29,0,0,0-.284.23l-.055.257a5.228,5.228,0,0,0,0,1.912l.057.255a.291.291,0,0,0,.283.226h5.19v14.421a.29.29,0,0,0,.242.286l.271.046a7.153,7.153,0,0,0,2.173,0l.271-.046a.29.29,0,0,0,.243-.286V98.814h5.142a.291.291,0,0,0,.283-.227l.057-.255a5.231,5.231,0,0,0,0-1.911Z" transform="translate(-93.803 -39.364)" fill="#fd1b37"/>
    <path id="Tracé_3211" data-name="Tracé 3211" d="M278.347,96.1a.291.291,0,0,0-.224-.181l-.183-.03h0a7.285,7.285,0,0,0-2.167,0l-.182.03a.289.289,0,0,0-.223.181l-6.67,16.955a.286.286,0,0,0,.017.248.29.29,0,0,0,.2.144l.392.068a7.365,7.365,0,0,0,2.207,0l.182-.032a.289.289,0,0,0,.221-.182l1.738-4.533h6.324l1.739,4.533a.289.289,0,0,0,.221.182l.181.032a7.664,7.664,0,0,0,2.258,0l.391-.068a.291.291,0,0,0,.221-.392Zm-3.606,9.812,2.069-5.446,2.086,5.446Z" transform="translate(-112.473 -39.31)" fill="#fd1b37"/>
    <path id="Tracé_3212" data-name="Tracé 3212" d="M329.129,95.932l-.271-.045a7.223,7.223,0,0,0-2.169,0h0l-.273.044a.29.29,0,0,0-.244.286v16.966a.29.29,0,0,0,.244.286l.274.045a7.07,7.07,0,0,0,1.093.082,6.632,6.632,0,0,0,1.076-.083l.272-.045a.29.29,0,0,0,.243-.286V96.218a.29.29,0,0,0-.243-.286" transform="translate(-136.589 -39.31)" fill="#fd1b37"/>
    <path id="Tracé_3213" data-name="Tracé 3213" d="M376.6,111.193l-.064-.237a.29.29,0,0,0-.28-.213h-7.888v-14.4a.29.29,0,0,0-.246-.287l-.276-.042a7.151,7.151,0,0,0-2.158,0l-.276.042a.29.29,0,0,0-.246.287v17.015a.29.29,0,0,0,.29.29h10.8a.291.291,0,0,0,.28-.213l.066-.237a4.418,4.418,0,0,0,0-2" transform="translate(-152.946 -39.363)" fill="#fd1b37"/>
    <path id="Tracé_3214" data-name="Tracé 3214" d="M49.51,0l19.33,14.016v59.1L49.51,59.465Z" transform="translate(-20.541 0.876)" fill="#fd1b37"/>
    <path id="Tracé_3215" data-name="Tracé 3215" d="M68.839,102.43v13.654L49.51,102.43Z" transform="translate(-20.541 -42.089)" fill="#d21951"/>
    <path id="Tracé_3216" data-name="Tracé 3216" d="M28.742,44.324,0,24.143V43.221L14.915,53.694,0,64.167V83.246L28.742,63.065Z" transform="translate(0.226 -9.251)" fill="#001370"/>
    <path id="Tracé_3217" data-name="Tracé 3217" d="M56.811,64.032l-7.3-5.126v18.74l7.3-5.126a4.992,4.992,0,0,0,0-8.488" transform="translate(-20.541 -23.833)" fill="#00012e"/>
  </g>
</svg>
