<?xml version="1.0" encoding="UTF-8"?>
<svg xmlns="http://www.w3.org/2000/svg" xmlns:xlink="http://www.w3.org/1999/xlink" width="250" height="150" viewBox="0 0 400 400" version="1.1">
    <g id="surface1">
        <rect fill="none"/>
        <path style=" stroke:none;fill-rule:nonzero;fill:rgb(0, 0, 0);fill-opacity:1;" d="M 157.300781 191.109375 L 155.648438 191.109375 C 156.246094 189.929688 157.75 188.453125 158.5 188.15625 Z M 155.046875 183.578125 L 156.847656 179 C 154.746094 179 154.597656 180.921875 153.398438 183.578125 Z M 153.097656 184.613281 L 151.445313 189.191406 C 153.097656 188.007813 154.449219 186.53125 153.996094 185.792969 Z M 150.695313 192.882813 L 150.546875 192.882813 C 148.445313 195.835938 145.59375 199.675781 145.59375 204.253906 C 145.59375 205.140625 145.742188 205.878906 145.894531 206.761719 L 146.042969 206.761719 Z M 143.191406 209.273438 C 143.191406 210.011719 143.34375 210.75 143.34375 211.046875 C 144.542969 210.160156 145.292969 207.355469 143.941406 206.761719 C 143.492188 207.207031 143.34375 208.238281 143.191406 209.273438 M 55.554688 217.246094 L 56.457031 217.988281 C 57.207031 216.511719 57.957031 215.917969 56.90625 215.179688 Z M 54.804688 218.871094 L 53.15625 221.679688 L 54.054688 222.5625 L 55.707031 219.464844 Z M 160 183.578125 C 156.699219 182.546875 155.199219 189.484375 154.449219 191.109375 L 152.046875 191.109375 C 152.046875 192.882813 154.148438 193.175781 155.496094 193.621094 C 154.746094 195.246094 153.097656 195.6875 151.296875 195.539063 L 147.09375 208.535156 L 148.894531 207.648438 L 152.046875 198.199219 L 152.945313 200.5625 L 150.847656 207.945313 C 150.097656 210.601563 148.746094 212.671875 147.246094 212.671875 C 145.144531 212.671875 145.59375 215.328125 144.992188 217.246094 L 143.941406 215.917969 L 143.042969 216.804688 C 143.792969 218.28125 145.292969 220.203125 145.292969 221.972656 C 145.292969 225.371094 141.542969 231.71875 138.992188 237.480469 L 136.441406 235.265625 C 135.691406 235.855469 134.9375 236.003906 133.738281 236.003906 C 128.035156 236.003906 121.433594 226.550781 121.433594 221.234375 C 121.433594 215.179688 133.738281 193.472656 139.140625 181.804688 L 138.691406 180.625 C 134.339844 183.28125 123.683594 186.679688 123.234375 191.257813 L 96.671875 213.554688 C 94.121094 210.160156 92.320313 212.671875 89.167969 212.671875 C 85.269531 212.671875 83.015625 205.433594 81.515625 200.5625 C 83.769531 193.324219 87.519531 184.316406 91.121094 176.046875 L 89.621094 173.09375 C 83.617188 177.96875 78.066406 185.496094 73.863281 191.996094 C 67.5625 202.039063 59.007813 217.542969 52.554688 229.0625 C 51.054688 228.472656 52.253906 225.960938 53.304688 223.894531 C 51.652344 223.449219 50.453125 225.960938 49.402344 228.765625 C 48.351563 231.71875 48.652344 234.96875 49.550781 237.035156 C 48.800781 237.628906 48.050781 237.921875 47.152344 237.921875 C 41 237.921875 32.445313 227.140625 32.445313 223.894531 C 32.445313 220.347656 45.050781 200.710938 51.953125 190.074219 C 59.757813 177.820313 67.410156 166.449219 77.613281 158.917969 C 80.464844 154.636719 86.617188 146.070313 92.019531 146.070313 C 100.425781 146.070313 103.425781 156.40625 106.878906 164.675781 C 106.128906 168.515625 106.578125 174.128906 108.078125 177.523438 C 112.878906 174.273438 118.882813 169.253906 123.683594 166.597656 C 124.734375 166.007813 126.085938 166.890625 126.835938 168.074219 C 128.035156 167.1875 128.9375 165.5625 128.1875 163.9375 C 136.140625 159.066406 146.195313 154.042969 149.496094 154.042969 C 152.347656 154.042969 155.949219 156.554688 159.101563 158.917969 C 161.652344 164.824219 164.503906 169.695313 164.503906 174.570313 C 164.503906 178.851563 162.699219 184.464844 160 183.578125 "/>
        <path style=" stroke:none;fill-rule:nonzero;fill:rgb(0, 0, 0);fill-opacity:1;" d="M 233.078125 216.066406 L 230.679688 218.578125 L 231.277344 220.203125 L 234.28125 218.429688 C 233.828125 217.988281 233.53125 216.363281 233.078125 216.066406 M 228.878906 219.609375 C 226.175781 220.941406 225.128906 221.679688 225.277344 223.304688 L 229.628906 221.089844 Z M 220.773438 223.894531 C 220.773438 224.335938 220.175781 225.371094 220.476563 225.664063 C 221.074219 226.109375 222.273438 225.664063 223.027344 225.371094 C 223.027344 224.335938 222.273438 223.894531 220.773438 223.894531 M 201.117188 234.230469 C 200.515625 233.34375 199.464844 232.605469 198.414063 232.605469 C 197.816406 232.753906 197.214844 232.902344 196.613281 233.492188 Z M 200.515625 193.179688 C 198.265625 191.847656 195.5625 193.914063 195.265625 195.539063 C 195.265625 196.425781 195.714844 197.164063 197.066406 197.3125 Z M 237.730469 176.636719 C 237.28125 175.308594 236.980469 174.421875 236.382813 175.015625 C 235.78125 175.605469 235.179688 175.898438 234.730469 175.898438 C 233.679688 175.898438 233.078125 174.71875 232.929688 174.71875 C 224.976563 174.71875 211.171875 183.726563 204.867188 193.472656 C 197.664063 196.871094 192.714844 205.285156 189.410156 215.476563 C 192.863281 215.179688 197.363281 214.886719 200.066406 213.851563 L 227.078125 202.777344 C 230.078125 201.59375 236.53125 198.492188 239.382813 194.949219 L 246.136719 186.238281 Z M 253.9375 206.910156 C 254.6875 208.386719 253.640625 210.011719 251.988281 210.011719 L 250.9375 208.09375 C 249.738281 208.386719 248.835938 208.980469 249.738281 210.601563 C 248.085938 210.601563 245.386719 211.933594 245.386719 213.558594 C 245.386719 215.773438 242.835938 215.03125 241.03125 215.476563 C 239.382813 217.101563 238.03125 219.019531 236.230469 221.382813 L 234.582031 219.90625 C 230.679688 222.269531 232.78125 223.894531 228.726563 225.8125 C 226.328125 226.996094 223.476563 226.847656 220.773438 227.4375 C 220.324219 227.882813 222.125 228.472656 221.976563 229.0625 L 219.273438 229.949219 L 215.070313 227.4375 C 212.671875 228.914063 214.472656 232.3125 211.472656 233.34375 C 207.867188 234.527344 205.019531 235.558594 200.816406 236.890625 C 198.265625 234.378906 195.265625 235.265625 193.164063 236.890625 C 187.910156 233.640625 181.457031 228.765625 177.554688 225.519531 C 173.953125 222.710938 172.753906 215.476563 172.753906 208.386719 C 172.753906 172.503906 218.222656 149.320313 229.476563 149.320313 C 233.828125 149.320313 235.929688 151.976563 240.582031 155.519531 C 240.582031 162.3125 247.9375 167.777344 254.089844 171.914063 C 259.941406 175.753906 261.890625 183.136719 261.890625 191.109375 C 261.890625 195.984375 259.339844 202.628906 253.9375 206.910156 "/>
        <path style=" stroke:none;fill-rule:nonzero;fill:rgb(0, 0, 0);fill-opacity:1;" d="M 330.320313 171.617188 L 328.96875 171.617188 L 330.171875 167.628906 L 331.519531 167.039063 Z M 325.96875 189.78125 L 325.367188 189.632813 L 324.769531 191.257813 L 326.117188 191.257813 Z M 324.617188 192.144531 C 324.015625 193.914063 325.066406 193.914063 326.117188 193.769531 L 326.269531 192.144531 Z M 319.964844 227.734375 L 319.363281 229.652344 L 320.265625 229.652344 L 320.867188 227.289063 Z M 306.761719 212.816406 L 306.761719 212.671875 C 303.460938 212.816406 302.105469 213.113281 301.507813 215.476563 C 302.855469 214.738281 305.109375 213.851563 306.761719 212.816406 M 333.019531 162.902344 C 330.171875 163.050781 323.265625 171.320313 316.8125 179.738281 L 316.0625 179 C 316.515625 177.820313 316.964844 176.933594 316.363281 176.34375 C 313.964844 179 312.914063 180.328125 314.261719 183.136719 C 312.011719 186.089844 309.910156 188.746094 307.960938 191.109375 C 305.257813 194.507813 301.207031 200.855469 297.753906 205.730469 C 300.757813 203.957031 303.007813 200.855469 309.011719 198.347656 C 314.261719 196.132813 317.414063 195.539063 322.816406 194.0625 C 323.265625 190.222656 324.769531 187.417969 325.367188 185.351563 L 327.917969 187.566406 C 329.71875 182.988281 331.820313 171.027344 333.472656 164.382813 Z M 296.40625 213.410156 C 295.203125 213.851563 294.304688 214 293.253906 214.441406 L 291.453125 216.953125 C 292.054688 216.65625 295.503906 215.476563 296.40625 213.410156 M 289.953125 219.609375 C 289.203125 220.644531 288.902344 221.234375 288.300781 222.269531 L 299.707031 216.363281 C 297.753906 214.886719 292.804688 218.132813 289.953125 219.609375 M 337.523438 207.796875 C 336.324219 210.308594 336.773438 216.804688 333.621094 219.757813 C 335.722656 220.941406 334.519531 224.632813 332.570313 226.402344 C 333.472656 228.617188 334.070313 230.242188 330.921875 234.378906 C 330.769531 234.96875 332.269531 234.230469 332.570313 233.933594 C 332.269531 238.957031 331.070313 242.941406 329.570313 247.371094 C 324.917969 247.371094 320.714844 242.941406 318.3125 243.828125 C 318.464844 240.875 318.015625 239.695313 315.914063 239.695313 L 316.0625 237.628906 C 316.8125 237.628906 317.414063 237.183594 317.5625 236.148438 C 316.8125 236.148438 316.214844 235.707031 316.214844 234.675781 C 316.515625 231.277344 318.3125 226.992188 319.214844 222.5625 C 320.265625 222.5625 320.265625 224.484375 320.117188 226.699219 C 321.164063 226.699219 322.816406 220.644531 323.117188 217.246094 L 321.316406 216.511719 C 321.164063 218.871094 321.164063 222.121094 319.363281 221.382813 C 319.816406 219.316406 320.265625 214.148438 320.714844 212.375 L 323.265625 215.476563 C 323.117188 213.703125 323.867188 213.261719 323.566406 211.046875 C 315.015625 210.75 292.355469 222.710938 285.601563 227.289063 L 284.851563 229.210938 L 285.449219 230.980469 C 282.898438 236.148438 280.648438 242.203125 278.246094 245.304688 L 268.792969 241.320313 C 268.34375 236.742188 261.890625 234.820313 263.542969 230.980469 L 261.140625 230.980469 C 264.441406 208.683594 289.503906 184.761719 303.609375 166.152344 C 310.660156 156.996094 317.714844 150.796875 323.566406 146.21875 C 324.617188 145.332031 328.820313 146.808594 329.121094 144.003906 C 331.070313 144.59375 335.269531 146.363281 337.523438 148.136719 L 334.820313 149.023438 C 334.671875 151.53125 338.421875 148.726563 339.171875 149.316406 C 344.726563 154.042969 341.574219 162.019531 344.425781 166.300781 C 344.574219 167.039063 344.277344 179.738281 342.023438 181.066406 C 342.324219 181.363281 342.476563 181.363281 342.925781 181.660156 C 342.023438 184.90625 340.824219 189.191406 340.523438 193.324219 C 340.371094 195.097656 346.078125 200.117188 345.628906 206.617188 C 342.925781 206.910156 340.074219 207.503906 337.523438 207.796875 "/>
        <path style=" stroke:none;fill-rule:nonzero;fill:rgb(100%,100%,100%);fill-opacity:1;" d="M 168.847656 257.09375 C 167.015625 255.253906 161.425781 256.113281 159.023438 255.929688 L 159.023438 265.335938 C 161.457031 265.140625 166.996094 266.023438 168.847656 264.152344 C 170.734375 262.773438 170.746094 258.46875 168.847656 257.09375 M 172.292969 263.507813 C 170.417969 268.667969 163.324219 267.492188 159.023438 267.59375 L 159.023438 277.328125 L 156.457031 277.328125 L 156.457031 253.671875 C 163.46875 253.371094 175.730469 252.632813 172.292969 263.507813 "/>
        <path style="fill:none;stroke-width:20;stroke-linecap:butt;stroke-linejoin:miter;stroke:rgb(96.099854%,96.099854%,96.099854%);stroke-opacity:1;stroke-miterlimit:10;" d="M 1688.476563 1429.0625 C 1670.15625 1447.460938 1614.257813 1438.867188 1590.234375 1440.703125 L 1590.234375 1346.640625 C 1614.570313 1348.59375 1669.960938 1339.765625 1688.476563 1358.476563 C 1707.34375 1372.265625 1707.460938 1415.3125 1688.476563 1429.0625 Z M 1722.929688 1364.921875 C 1704.179688 1313.320313 1633.242188 1325.078125 1590.234375 1324.0625 L 1590.234375 1226.71875 L 1564.570313 1226.71875 L 1564.570313 1463.28125 C 1634.6875 1466.289063 1757.304688 1473.671875 1722.929688 1364.921875 Z M 1722.929688 1364.921875 " transform="matrix(0.1,0,0,-0.1,0,400)"/>
        <path style=" stroke:none;fill-rule:nonzero;fill:rgb(100%,100%,100%);fill-opacity:1;" d="M 186.304688 257.292969 L 181.78125 269.785156 L 190.761719 269.785156 Z M 193.429688 277.328125 L 191.503906 271.980469 L 181.003906 271.980469 L 179.078125 277.328125 L 176.34375 277.328125 L 185.191406 253.671875 L 187.351563 253.671875 L 196.164063 277.328125 "/>
        <path style="fill:none;stroke-width:20;stroke-linecap:butt;stroke-linejoin:miter;stroke:rgb(96.099854%,96.099854%,96.099854%);stroke-opacity:1;stroke-miterlimit:10;" d="M 1863.046875 1427.070313 L 1817.8125 1302.148438 L 1907.617188 1302.148438 Z M 1934.296875 1226.71875 L 1915.039063 1280.195313 L 1810.039063 1280.195313 L 1790.78125 1226.71875 L 1763.4375 1226.71875 L 1851.914063 1463.28125 L 1873.515625 1463.28125 L 1961.640625 1226.71875 Z M 1934.296875 1226.71875 " transform="matrix(0.1,0,0,-0.1,0,400)"/>
        <path style=" stroke:none;fill-rule:nonzero;fill:rgb(100%,100%,100%);fill-opacity:1;" d="M 215.867188 257.011719 C 214.097656 255.25 208.300781 256.125 205.992188 255.929688 L 205.992188 264.601563 C 211.378906 264.9375 220.988281 265.023438 215.867188 257.011719 M 217.234375 277.328125 L 211.765625 266.828125 L 205.992188 266.828125 L 205.992188 277.328125 L 203.425781 277.328125 L 203.425781 253.671875 C 205.601563 253.820313 213.585938 253.285156 215.515625 254.117188 C 221.644531 255.921875 220.914063 265.796875 214.535156 266.597656 L 220.242188 277.328125 "/>
        <path style="fill:none;stroke-width:20;stroke-linecap:butt;stroke-linejoin:miter;stroke:rgb(96.099854%,96.099854%,96.099854%);stroke-opacity:1;stroke-miterlimit:10;" d="M 2158.671875 1429.882813 C 2140.976563 1447.5 2083.007813 1438.75 2059.921875 1440.703125 L 2059.921875 1353.984375 C 2113.789063 1350.625 2209.882813 1349.765625 2158.671875 1429.882813 Z M 2172.34375 1226.71875 L 2117.65625 1331.71875 L 2059.921875 1331.71875 L 2059.921875 1226.71875 L 2034.257813 1226.71875 L 2034.257813 1463.28125 C 2056.015625 1461.796875 2135.859375 1467.148438 2155.15625 1458.828125 C 2216.445313 1440.78125 2209.140625 1342.03125 2145.351563 1334.023438 L 2202.421875 1226.71875 Z M 2172.34375 1226.71875 " transform="matrix(0.1,0,0,-0.1,0,400)"/>
        <path style="fill-rule:nonzero;fill:rgb(100%,100%,100%);fill-opacity:1;stroke-width:20;stroke-linecap:butt;stroke-linejoin:miter;stroke:rgb(96.099854%,96.099854%,96.099854%);stroke-opacity:1;stroke-miterlimit:10;" d="M 2289.53125 1226.71875 L 2315.195313 1226.71875 L 2315.195313 1463.28125 L 2289.53125 1463.28125 Z M 2289.53125 1226.71875 " transform="matrix(0.1,0,0,-0.1,0,400)"/>
        <path style=" stroke:none;fill-rule:nonzero;fill:rgb(100%,100%,100%);fill-opacity:1;" d="M 255.746094 273.625 C 252.75 279.085938 243.730469 278.523438 239.792969 274.40625 L 241.546875 272.679688 C 248.992188 280.394531 260.417969 269.570313 249.480469 266.796875 C 231.675781 265.785156 243.511719 246.128906 255.289063 256.0625 L 253.636719 257.691406 C 249.804688 253.210938 239.410156 256.667969 244.046875 262.777344 C 249.535156 265.582031 258.867188 263.8125 255.746094 273.625 "/>
        <path style="fill:none;stroke-width:20;stroke-linecap:butt;stroke-linejoin:miter;stroke:rgb(96.099854%,96.099854%,96.099854%);stroke-opacity:1;stroke-miterlimit:10;" d="M 2557.460938 1263.75 C 2527.5 1209.140625 2437.304688 1214.765625 2397.929688 1255.9375 L 2415.46875 1273.203125 C 2489.921875 1196.054688 2604.179688 1304.296875 2494.804688 1332.03125 C 2316.757813 1342.148438 2435.117188 1538.710938 2552.890625 1439.375 L 2536.367188 1423.085938 C 2498.046875 1467.890625 2394.101563 1433.320313 2440.46875 1372.226563 C 2495.351563 1344.179688 2588.671875 1361.875 2557.460938 1263.75 Z M 2557.460938 1263.75 " transform="matrix(0.1,0,0,-0.1,0,400)"/>
    </g>
</svg>
