<svg xmlns="http://www.w3.org/2000/svg" viewBox="0 0 1892.16 560.52">
    <defs>
        <style>.cls-1{fill:#0C469C;}</style>
    </defs>
    <g id="Calque_2" data-name="Calque 2">
        <g id="logo">
            <path class="cls-1" d="M1531.17,63h-65.92a1.94,1.94,0,0,0-2.06,2.06v39.13a1.94,1.94,0,0,0,2.06,2.06h20.19a2,2,0,0,1,2.06,2.06V208.47a2,2,0,0,1-2.06,2.06h-20.6a1.94,1.94,0,0,0-2.06,2.06v39.14a2,2,0,0,0,2.06,2.06h91.05a2,2,0,0,0,2.06-2.06V212.59a2,2,0,0,0-2.06-2.06h-20.6a2,2,0,0,1-2.06-2.06V65.1a2,2,0,0,0-2.06-2.06M901.36,63H835.44a2,2,0,0,0-2.06,2.06v39.13a2,2,0,0,0,2.06,2.06h20.19a2,2,0,0,1,2.06,2.06v60.57c0,26.78-13.18,46.55-39.55,46.55-27.6,0-35.84-18.95-35.84-45.73V65.1A2,2,0,0,0,780.24,63h-63a1.94,1.94,0,0,0-2.06,2.06v39.13a1.94,1.94,0,0,0,2.06,2.06h17.3a2,2,0,0,1,2.06,2.06v70c0,46.56,21,79.52,69.63,79.52,21,0,40.38-7.83,52.74-21.43,1.23-1.23,2.47-.82,2.47.83v14.42a2,2,0,0,0,2.06,2.06h56.85a2,2,0,0,0,2.06-2.06V212.59a1.94,1.94,0,0,0-2.06-2.06H905.48a2,2,0,0,1-2.06-2.06V65.1A1.94,1.94,0,0,0,901.36,63M1659.3,213.41c-31.31,0-54-21.83-54-54.38s22.24-55.62,54.79-55.62,55.21,22.25,55.21,53.56-24.72,56.44-56,56.44M1712,84.05c-14-16.07-34.19-25.13-58.5-25.13-58.5,0-96,45.31-96,100.11s36.67,98.88,93.94,98.88c26,0,46.55-8.24,60.56-23.9,1.24-1.23,2.47-.82,2.47.83v16.89a2,2,0,0,0,2.06,2.06h63.86a2,2,0,0,0,2.06-2.06V212.59a1.94,1.94,0,0,0-2.06-2.06h-17.3a2,2,0,0,1-2.06-2.06V108.35a2,2,0,0,1,2.06-2.06h17.3a1.94,1.94,0,0,0,2.06-2.06V65.1a1.94,1.94,0,0,0-2.06-2.06h-63.86a2,2,0,0,0-2.06,2.06V83.22c0,1.65-1.23,2.06-2.47.83m-519.11,131c-32.13,0-56-23.9-56-57.68,0-32.55,23.9-55.62,56-55.62s56,23.07,56,55.62c0,33.78-23.89,57.68-56,57.68m167.27,0c-30.9,0-53.56-23.9-53.56-57.68,0-32.55,22.25-55.62,53.15-55.62,21.42,0,37.9,11.54,45.32,29.25a3,3,0,0,0,2.47,1.65h38.32a2,2,0,0,0,2.06-2.06V65.1a2,2,0,0,0-2.06-2.06h-35.44a2,2,0,0,0-2.06,2.06V75c0,1.65-1.23,2.06-2.47.83-11.53-10.3-29.66-16.89-50.67-16.89-32.14,0-59.74,16.89-76.63,43.25a1.59,1.59,0,0,1-2.89,0c-17.71-26.36-47.79-43.25-82.81-43.25-58.09,0-103,43.25-103,98.46,0,56.44,44.91,100.53,103,100.53,35.43,0,65.51-17.31,83.22-44.5.83-1.23,1.65-1.23,2.48,0,17.3,27.19,46.55,44.5,81.57,44.5,49.85,0,81.16-28,92.29-68.39,0-1.65-.83-2.48-2.06-2.48h-45.73a3,3,0,0,0-2.48,1.65c-7,16.48-21.42,26.37-42,26.37m-337.27-76.63-17.71-4.12c-17.72-4.12-24.31-9.48-24.31-19s7.83-16.48,20.6-16.48c13.6,0,23.9,7.83,26.37,21.83a2.6,2.6,0,0,0,2.47,2.06H1072a1.94,1.94,0,0,0,2.06-2.06V65.1A1.94,1.94,0,0,0,1072,63h-31.72a1.94,1.94,0,0,0-2.06,2.06v8.24c0,1.64-1.24,2-2.47.82C1025,63,1011,58.92,994.5,58.92c-34.61,0-62.22,22.24-62.22,58.5,0,36.67,22.25,51.5,53.15,58.09l23.49,4.94c19.77,4.12,28,8.65,28,20.19s-7.83,18.13-21.42,18.13c-14.83,0-28.84-8.24-33.78-25.13-.42-1.24-.83-1.65-2.06-1.65H938.88a1.94,1.94,0,0,0-2.06,2.06v57.68a2,2,0,0,0,2.06,2.06H970.6a2,2,0,0,0,2.06-2.06v-9.89c0-1.65,1.24-2.06,2.47-.82,11.13,11.12,26.37,16.89,47.79,16.89,33,0,61-19,61-58.92,0-37.9-23.07-51.91-61-60.56m-318.08-4.12c0-47-23.07-75.39-68.8-75.39-24.72,0-47.38,12.77-59.74,31.31-.82,1.23-2.06,1.23-2.88-.42-10.72-20.59-27.61-30.89-52.74-30.89-23.48,0-42.44,8.65-56,26-1.24,1.65-2.47.82-2.47-.82v-19A2,2,0,0,0,460.12,63H400a1.94,1.94,0,0,0-2.06,2.06v39.13a1.94,1.94,0,0,0,2.06,2.06h18.12a2,2,0,0,1,2.06,2.06V208.47a2,2,0,0,1-2.06,2.06H400a1.94,1.94,0,0,0-2.06,2.06v39.14a2,2,0,0,0,2.06,2.06h93.11a2,2,0,0,0,2.06-2.06V212.59a2,2,0,0,0-2.06-2.06H468a2,2,0,0,1-2.06-2.06v-61c0-26.36,16.89-43.26,40.78-43.26,26,0,33,19,33,44.5v59.74a2,2,0,0,1-2.06,2.06H512.44a2,2,0,0,0-2.06,2.06v39.14a2,2,0,0,0,2.06,2.06H612.56a2,2,0,0,0,2.06-2.06V212.59a2,2,0,0,0-2.06-2.06H587.42a2,2,0,0,1-2.06-2.06v-61c0-26.36,16.9-43.26,40.79-43.26,26,0,33,19,33,44.5v59.74a2,2,0,0,1-2.06,2.06H631.92a1.94,1.94,0,0,0-2.06,2.06v39.14a2,2,0,0,0,2.06,2.06h92.7a2,2,0,0,0,2.06-2.06V212.59a2,2,0,0,0-2.06-2.06H706.9a2,2,0,0,1-2.06-2.06Zm-444.95,79.1c-31.31,0-54-21.83-54-54.38s22.25-55.62,54.79-55.62,55.21,22.25,55.21,53.56-24.72,56.44-56,56.44M312.62,84.05c-14-16.07-34.19-25.13-58.5-25.13-58.5,0-96,45.31-96,100.11s36.67,98.88,93.93,98.88c26,0,46.56-8.24,60.56-23.9,1.24-1.23,2.48-.82,2.48.83v16.89a2,2,0,0,0,2.06,2.06H381a2,2,0,0,0,2.06-2.06V212.59a2,2,0,0,0-2.06-2.06H363.71a2,2,0,0,1-2.06-2.06V108.35a2,2,0,0,1,2.06-2.06H381a2,2,0,0,0,2.06-2.06V65.1A2,2,0,0,0,381,63H317.16a1.94,1.94,0,0,0-2.06,2.06V83.22c0,1.65-1.24,2.06-2.48.83m-222,54.38-17.72-4.12c-17.71-4.12-24.3-9.48-24.3-19s7.82-16.48,20.6-16.48c13.59,0,23.89,7.83,26.36,21.83a2.61,2.61,0,0,0,2.47,2.06h41.62a2,2,0,0,0,2.06-2.06V65.1A2,2,0,0,0,139.67,63H107.94a2,2,0,0,0-2.06,2.06v8.24c0,1.64-1.23,2-2.47.82C92.7,63,78.69,58.92,62.21,58.92,27.6,58.92,0,81.16,0,117.42c0,36.67,22.25,51.5,53.15,58.09l23.48,4.94c19.78,4.12,28,8.65,28,20.19s-7.83,18.13-21.43,18.13c-14.83,0-28.84-8.24-33.78-25.13C49,192.4,48.62,192,47.38,192H6.59a2,2,0,0,0-2.06,2.06v57.68a2,2,0,0,0,2.06,2.06H38.32a2,2,0,0,0,2.06-2.06v-9.89c0-1.65,1.23-2.06,2.47-.82C54,252.14,69.22,257.91,90.64,257.91c33,0,61-19,61-58.92,0-37.9-23.07-51.91-61-60.56M1865.79,0h-65.92a2,2,0,0,0-2.06,2.06V40.79a2,2,0,0,0,2.06,2.06h20.19a1.94,1.94,0,0,1,2.06,2.06V208.47a2,2,0,0,1-2.06,2.06h-20.19a2,2,0,0,0-2.06,2.06v39.14a2,2,0,0,0,2.06,2.06h90.23a2,2,0,0,0,2.06-2.06V212.59a2,2,0,0,0-2.06-2.06h-20.19a2,2,0,0,1-2.06-2.06V2.06A1.94,1.94,0,0,0,1865.79,0M1531.17,0h-41.61a1.94,1.94,0,0,0-2.06,2.06V46.14a1.94,1.94,0,0,0,2.06,2.06h41.61a2,2,0,0,0,2.06-2.06V2.06A2,2,0,0,0,1531.17,0m180.95,369.35h-49.85a2,2,0,0,0-2.06,2.06v16.9a2,2,0,0,0,2.06,2.06h26.36a1.94,1.94,0,0,1,2.06,2.06v140.9a2,2,0,0,1-2.06,2.06h-29.25a2,2,0,0,0-2.06,2.06v16.89a2,2,0,0,0,2.06,2.06h82.81a2,2,0,0,0,2.06-2.06V537.45a1.94,1.94,0,0,0-2.06-2.06h-26a2,2,0,0,1-2.06-2.06V371.41a2,2,0,0,0-2.06-2.06m-124.84,32.14V371.41a2,2,0,0,0-2.06-2.06h-49.44a2,2,0,0,0-2.06,2.06v16.9a2,2,0,0,0,2.06,2.06h26.79a2,2,0,0,1,2.06,2.06v140.9a2,2,0,0,1-2.06,2.06h-26.79a2,2,0,0,0-2.06,2.06v16.89a2,2,0,0,0,2.06,2.06h82.4a2,2,0,0,0,2.06-2.06V537.45a1.94,1.94,0,0,0-2.06-2.06h-28.84a2,2,0,0,1-2.06-2.06V457.11c0-39.14,17.72-63.86,56.45-68a2,2,0,0,0,2.06-2.06V369.35a2,2,0,0,0-2.06-2.06c-23.07,1.65-44.5,11.95-54.8,34.61-.41,1.24-1.65.83-1.65-.41m250.49,52.32-19.36-4.12c-26.37-5.77-38.73-15.24-38.73-34.19,0-19.37,15.66-29.67,35.85-29.67,21,0,41.2,11.95,47.79,40.79a2.25,2.25,0,0,0,2.47,1.65h16.07a2,2,0,0,0,2.06-2.06v-54.8a2,2,0,0,0-2.06-2.06H1867a2,2,0,0,0-2.06,2.06v14.84c0,1.23-1.24,1.64-2.06.41-10.72-15.25-29.26-21.43-47-21.43-34.2,0-59.33,19.37-59.33,52.74,0,31.72,21.84,47,55.62,53.15l20.6,3.7c20.6,3.71,36.26,11.95,36.26,32.55s-12.36,33-36.26,33c-25.95,0-44.08-14.42-52.73-40.79-.42-1.23-.83-1.65-2.06-1.65h-16.48a2,2,0,0,0-2.06,2.06v54.39a2,2,0,0,0,2.06,2.06h15.24a2,2,0,0,0,2.06-2.06V537c0-1.64,1.24-2.06,2.06-.82,10.71,16.48,28,24.31,51.09,24.31,37.9,0,60.15-22.66,60.15-54.8,0-31.72-18.13-44.08-54.39-51.91m-446.59,85.28c-38.73,0-70.87-32.54-70.87-75.8s32.14-76.63,70.87-76.63c45.31,0,75,31.31,75,76.22s-29.67,76.21-75,76.21m72.51-136c-16.48-26.37-42-37.91-72.93-37.91-54,0-93.93,43.67-93.93,98.06,0,54,40,97.23,93.93,97.23,30.9,0,56.45-11.54,73.34-37.91.82-1.23,2.06-1.23,2.06.42v31.31a2,2,0,0,0,2.06,2.06h48.61a2,2,0,0,0,2.06-2.06V537.45a1.94,1.94,0,0,0-2.06-2.06h-25.95a2,2,0,0,1-2.06-2.06V392.43a1.94,1.94,0,0,1,2.06-2.06h25.95a2,2,0,0,0,2.06-2.06v-16.9a2,2,0,0,0-2.06-2.06h-48.61a2,2,0,0,0-2.06,2.06v30.9c0,2.06-1.24,2.48-2.47.83m248.43-99.7h-19.37a2,2,0,0,0-2.06,2.06v32.13a2,2,0,0,0,2.06,2.06h19.37a2,2,0,0,0,2.06-2.06V305.5a2,2,0,0,0-2.06-2.06M1212,432.39h-43.67a2,2,0,0,1-2.06-2.06V328.15a2,2,0,0,1,2.06-2.06h43.26c36.25,0,63,19.37,63,52.74,0,34.19-23.89,53.56-62.62,53.56m0-129.78H1110.22a2,2,0,0,0-2.06,2.06V324a1.94,1.94,0,0,0,2.06,2.06h28a2,2,0,0,1,2.06,2.06v202.7a1.94,1.94,0,0,1-2.06,2.06h-28a2,2,0,0,0-2.06,2.06v19.37a2,2,0,0,0,2.06,2.06h86.11a2,2,0,0,0,2.06-2.06V535a2,2,0,0,0-2.06-2.06h-28a1.94,1.94,0,0,1-2.06-2.06V457.93a2,2,0,0,1,2.06-2.06h46.14c51.09,0,85.7-28.84,85.7-77.45,0-47.38-35.85-75.81-88.17-75.81"/>
        </g>
    </g>
</svg>