<svg xmlns="http://www.w3.org/2000/svg" width="75" height="75" viewBox="0 0 75 75">
    <g fill="none" fill-rule="evenodd">
        <path fill="#FFF" d="M8.949 7.34h55.782v61.87H8.949z"/>
        <path fill="#000" d="M54.973 57.928l-1.141-2.226-1.133 2.226z"/>
        <path fill="#000" fill-rule="nonzero" d="M44.82 39.762H28.831l-13.555-21.19h12.44l9.228 14.792 9.445-16.728c2.46-4.357 6.01-4.05 7.466-4.05h6.34L44.819 39.762zm12.253 22.353l-.936-1.867h-4.62l-.95 1.867h-2.63l5.883-11.629 5.898 11.63H57.073zm-11.216-4.27c0 .936-.066 1.719-.51 2.556-.59 1.066-1.659 1.767-2.828 1.95 0 0-.58.107-1.295 0-2.021-.306-3.238-1.902-3.303-3.938h2.333c.03.717.294 1.267.97 1.569 0 0 .673.232 1.295 0 .921-.367.973-1.152.973-2.02V50.99h2.365v6.857-.001zm-9.961-4.522h-5.634v2.07h3.552v2.335h-3.552v2.053h5.634v2.335H27.91V50.985h7.985V53.323zm-16.094 9.31l-5.914-11.645h2.643l3.282 6.45 3.26-6.45h2.63l-5.901 11.645zM68.162.306H5.92l-5.615 5.7v63.202l5.615 5.7h62.244l5.611-5.7V6.004l-5.611-5.7v.001z"/>
    </g>
</svg>
